<svg id="Group_21569" data-name="Group 21569" xmlns="http://www.w3.org/2000/svg" width="29.46" height="22.448" viewBox="0 0 29.46 22.448">
  <path id="Path_41589" data-name="Path 41589" d="M410.643,92.415a1.108,1.108,0,0,1-1.159.641q-7.062-.019-14.122-.008h-.354V70.633h8.73v.3q0,2.791,0,5.581a.888.888,0,0,0,1.007,1h5.9ZM401.953,79.24c-1.428,0-2.854,0-4.282,0a.876.876,0,0,0-.877.526.863.863,0,0,0,.869,1.2q4.294,0,8.591,0a.866.866,0,1,0-.019-1.724Q404.093,79.237,401.953,79.24Zm-.027,5.178q2.126,0,4.252,0c.613,0,1.006-.334,1.011-.856s-.395-.87-1.024-.87h-1.955q-3.261,0-6.522,0a.886.886,0,0,0-.875.485.859.859,0,0,0,.83,1.24C399.072,84.422,400.5,84.418,401.926,84.418Zm.061,1.727c-1.447,0-2.893,0-4.339,0a.865.865,0,1,0,.008,1.724c.6,0,1.207,0,1.811,0q3.376,0,6.752,0a.887.887,0,0,0,.889-.509.859.859,0,0,0-.839-1.217C404.841,86.141,403.413,86.145,401.987,86.145Zm-2.62-8.631c.564,0,1.13,0,1.694,0a.866.866,0,1,0,.011-1.726q-1.708,0-3.416,0a.865.865,0,1,0-.011,1.724C398.219,77.516,398.793,77.514,399.367,77.514Z" transform="translate(-381.184 -70.609)" fill="#fff"/>
  <path id="Path_41590" data-name="Path 41590" d="M390.69,73.516c.683-.27,1.314-.515,1.94-.776a.3.3,0,0,0,.148-.223c.017-.325,0-.652.008-.977a.865.865,0,0,1,.913-.925c.833-.005,1.666,0,2.519,0v5.223a6,6,0,0,0-5.368,2.006,5.8,5.8,0,0,0-1.507,4.336,6.054,6.054,0,0,0,6.876,5.647v5.227h-1.487c-.336,0-.671,0-1.007,0a.871.871,0,0,1-.939-.93c0-.326.008-.652-.006-.978a.281.281,0,0,0-.125-.211c-.635-.262-1.276-.509-1.969-.782-.225.234-.485.516-.758.786a.86.86,0,0,1-1.319-.008q-1.173-1.165-2.338-2.338a.864.864,0,0,1,.006-1.321c.256-.26.513-.517.769-.776.006-.006.01-.017,0,0-.261-.665-.511-1.314-.776-1.956a.287.287,0,0,0-.22-.113c-.326-.013-.652,0-.978-.006a.866.866,0,0,1-.916-.922q-.006-1.668,0-3.337a.865.865,0,0,1,.92-.918c.326,0,.652.009.977-.008a.306.306,0,0,0,.227-.143c.26-.627.5-1.26.776-1.95-.23-.222-.509-.481-.779-.753a.863.863,0,0,1,0-1.319q1.165-1.173,2.339-2.338a.861.861,0,0,1,1.319,0C390.2,73,390.462,73.281,390.69,73.516Z" transform="translate(-384.153 -70.614)" fill="#fff"/>
  <path id="Path_41591" data-name="Path 41591" d="M394.741,76.129v1.75a2.571,2.571,0,0,0-3.106,1.228,2.425,2.425,0,0,0,.117,2.691c.619.94,1.516,1.239,2.984,1.029v1.732a4.246,4.246,0,0,1-4.3-1.628,4.307,4.307,0,0,1,4.3-6.8Z" transform="translate(-382.67 -69.13)" fill="#fff"/>
  <path id="Path_41592" data-name="Path 41592" d="M403.235,71.076l4.566,4.566h-4.566Z" transform="translate(-378.933 -70.488)" fill="#fff"/>
  <path id="Path_41593" data-name="Path 41593" d="M394.01,79.6a.862.862,0,1,1-.865-.852A.872.872,0,0,1,394.01,79.6Z" transform="translate(-381.928 -68.389)" fill="#fff"/>
</svg>
