<svg xmlns="http://www.w3.org/2000/svg" width="570.385" height="506.819" viewBox="0 0 570.385 506.819">
  <g id="Group_21564" data-name="Group 21564" transform="translate(-277.499 -4488.45)">
    <g id="Group_21528" data-name="Group 21528" transform="translate(277.499 4568.53)">
      <path id="Path_41515" data-name="Path 41515" d="M122.477,139.3c-.125,9.428-.916,11.867-2.648,13.745a12.316,12.316,0,0,1-8.072,3.567,14.247,14.247,0,0,1-8.988-2.378,1.045,1.045,0,0,0-1.169,1.732,16.378,16.378,0,0,0,8.03,2.732l.272,4.568a16.459,16.459,0,0,1-9.491,3.587A16.725,16.725,0,0,1,89.877,163.6a33.548,33.548,0,0,0-.646-10.824,14.587,14.587,0,0,0,2.21-3.088,15.274,15.274,0,0,0,1.753-7.987c.042.021.1.021.145.042h.187a1.041,1.041,0,0,0,.189-2.065A4.412,4.412,0,0,1,90.9,137.99c-.96-1.4-1.188-3.712,0-4.609a3.238,3.238,0,0,1,3.338.042,1.044,1.044,0,1,0,.96-1.855c-.251-.125-.521-.189-.793-.293-.918-3.149-.876-5.359.125-6.381.9-.918,2.4-.689,5.465-.168,1.252.23,2.669.48,4.277.648,3.9.438,11.826.875,17.644-1.587C122.31,128.96,122.518,134.174,122.477,139.3Z" transform="translate(-36.756 -103.922)" fill="#fff"/>
      <path id="Path_41516" data-name="Path 41516" d="M130.85,120.771c-1.356-5.257-11.827-7.008-17.791-7.2-4.4-.147-11.722-.4-17.521,4.942a19.991,19.991,0,0,0-5.694,9.846,1,1,0,0,1-.708.75,7.534,7.534,0,0,0-3.192,1.815c-2.69,2.586-2.482,6.653-2.4,8.176.208,4.129,1.9,6.466,4.046,9.406a33.342,33.342,0,0,1,4.9,8.614c.083.251.147.521.23.793a14.776,14.776,0,0,0,1.084-1.689,13.542,13.542,0,0,0,1.439-7.822,6.172,6.172,0,0,1-1.857-1.71c-1.564-2.233-1.751-5.779.438-7.447a4.287,4.287,0,0,1,2.524-.856c-.876-3.5-.584-5.943.876-7.445,1.71-1.732,4.067-1.315,7.341-.752,1.209.21,2.586.459,4.13.627,3.066.333,11.784.958,17.353-1.795.417-.229.814-.48,1.232-.708a8.493,8.493,0,0,0,2.377-2.254A7.144,7.144,0,0,0,130.85,120.771Z" transform="translate(-40.948 -111.438)" fill="#231f20"/>
      <path id="Path_41517" data-name="Path 41517" d="M129.66,126.068a8.493,8.493,0,0,1-2.377,2.254c-.417.229-.814.48-1.232.708-5.569,2.752-14.287,2.127-17.353,1.795-1.543-.168-2.92-.417-4.13-.627-3.274-.563-5.631-.98-7.341.752-1.46,1.5-1.753,3.942-.876,7.445a4.287,4.287,0,0,0-2.524.856c-2.189,1.668-2,5.214-.438,7.447a6.172,6.172,0,0,0,1.857,1.71,13.542,13.542,0,0,1-1.439,7.822,14.776,14.776,0,0,1-1.084,1.689c-.083-.272-.147-.542-.23-.793a33.342,33.342,0,0,0-4.9-8.614c-2.15-2.939-3.838-5.276-4.046-9.406-.085-1.523-.293-5.59,2.4-8.176a7.534,7.534,0,0,1,3.192-1.815,1,1,0,0,0,.708-.75,19.991,19.991,0,0,1,5.694-9.846c5.8-5.339,13.119-5.089,17.521-4.942,5.964.187,16.435,1.938,17.791,7.2A7.144,7.144,0,0,1,129.66,126.068Z" transform="translate(-40.948 -111.438)" fill="#252362"/>
      <path id="Path_41518" data-name="Path 41518" d="M123.263,231.093h-3.5a1.032,1.032,0,0,0-1.043,1.043v1.419a62.686,62.686,0,0,0-50.538,12.912,124.882,124.882,0,0,1,2.233-29.1C87.743,222.688,105.428,227.277,123.263,231.093Z" transform="translate(-52.257 -35.403)" fill="#fff"/>
      <path id="Path_41519" data-name="Path 41519" d="M175.889,245.108a5.187,5.187,0,0,1-1.483-1.128,4.563,4.563,0,0,1-.395-.494,5.155,5.155,0,0,1-.594-1.088,4.936,4.936,0,0,1-.317-1.207c-2.314-17.169-5.281-34.477-8.822-51.428-1.325-6.31-2.749-12.7-4.272-19.03-.5-2.117-1.01-4.213-1.524-6.31a2.951,2.951,0,0,0-.139-.454,4.709,4.709,0,0,0-.376-.871,4.8,4.8,0,0,0-1.6-1.68,105.144,105.144,0,0,0-23.043-11.533,21.156,21.156,0,0,1-24.746-.059,108.851,108.851,0,0,0-16.636,5.4A106.432,106.432,0,0,0,74.654,164.4a5.389,5.389,0,0,0-1.762,1.957,4.084,4.084,0,0,0-.395.949,2.538,2.538,0,0,0-.12.514c-2.829,15.529-5.34,31.333-7.457,46.959q-1.364,10.149-2.571,20.395c-.792,6.823-1.5,13.667-2.176,20.473a4.282,4.282,0,0,0,.217,1.879.99.99,0,0,0,.159.395,3.972,3.972,0,0,0,.949,1.464,4.143,4.143,0,0,0,1.166.87,4.307,4.307,0,0,0,.693.3c3.185,1.048,6.369,2.077,9.594,3.085a624.312,624.312,0,0,0,72.1,17.982h.019l5.4-18.06-53.07-21.5a4.835,4.835,0,0,1-1.9-1.346,4.757,4.757,0,0,1-.871-1.285,5.328,5.328,0,0,1-.454-3.007l3.994-27.574a1.07,1.07,0,0,1,.357-.632,1.025,1.025,0,0,1,.792-.237,1.191,1.191,0,0,1,.376.118.911.911,0,0,1,.277.258,1.069,1.069,0,0,1,.256.693v.118l-3.956,27.574a4.01,4.01,0,0,0-.019.691,1.089,1.089,0,0,0,.019.258,2.488,2.488,0,0,0,.277.87,2.379,2.379,0,0,0,.494.752,2.811,2.811,0,0,0,1.148.811l61.121,24.786a1.039,1.039,0,0,1,.632,1.109.4.4,0,0,1-.019.158l-1.128,3.5c2.493-.3,4.985-.573,7.577-.85,2.037-.217,4.055-.395,6.033-.573l-8.19-4.135a6.753,6.753,0,0,1-1.325-.909,6.607,6.607,0,0,1-1.048-1.187,6.383,6.383,0,0,1-.951-2.2,5.281,5.281,0,0,1-.118-.811l-3.2-35.09a.861.861,0,0,1,.019-.317c.021-.059.04-.1.061-.158a.835.835,0,0,1,.2-.317,1.658,1.658,0,0,1,.277-.237h.019a1.168,1.168,0,0,1,.376-.1,1.008,1.008,0,0,1,.752.256.747.747,0,0,1,.258.3,1.178,1.178,0,0,1,.118.376l3.2,35.109a3.113,3.113,0,0,0,.237,1.05,3.925,3.925,0,0,0,.475.949,4.234,4.234,0,0,0,1.6,1.4l14.162,7.2,5.993,2.73,4.292-20.176v-.019Zm-25.714-47.472a8.525,8.525,0,0,1-17.05,0v-9.475a1.02,1.02,0,0,1,1.027-1.029h14.994a1.021,1.021,0,0,1,1.029,1.029Z" transform="translate(-58.047 -84.855)" fill="#fff"/>
      <path id="Path_41520" data-name="Path 41520" d="M118.3,171.364H103.307a1.02,1.02,0,0,0-1.027,1.029v9.475a8.525,8.525,0,0,0,17.05,0v-9.475A1.021,1.021,0,0,0,118.3,171.364Zm-1.048,10.5a6.448,6.448,0,0,1-12.9,0v-8.427h12.9Z" transform="translate(-27.202 -69.087)" fill="#231f20"/>
      <path id="Path_41521" data-name="Path 41521" d="M101.346,138.911a.783.783,0,0,0-.348,1.526,6.314,6.314,0,0,0,1.394.156,6.183,6.183,0,0,0,1.5-.185,6.448,6.448,0,0,0,3.251-2.03.782.782,0,0,0-1.187-1.02,4.859,4.859,0,0,1-2.448,1.533A4.649,4.649,0,0,1,101.346,138.911Z" transform="translate(-28.585 -94.185)" fill="#231f20"/>
      <path id="Path_41522" data-name="Path 41522" d="M101.87,130.466a.785.785,0,0,0-.282,1.07c1.18,2.023,1.211,3.828.558,4.407a1.28,1.28,0,0,1-.75.272.782.782,0,0,0,.069,1.561c.023,0,.047,0,.069,0a2.786,2.786,0,0,0,1.651-.658c1.344-1.193,1.244-3.811-.244-6.366A.787.787,0,0,0,101.87,130.466Z" transform="translate(-28.372 -99.107)" fill="#231f20"/>
      <circle id="Ellipse_9252" data-name="Ellipse 9252" cx="2.016" cy="2.016" r="2.016" transform="translate(77.968 24.639)" fill="#231f20"/>
      <circle id="Ellipse_9253" data-name="Ellipse 9253" cx="2.016" cy="2.016" r="2.016" transform="translate(64.289 25.092)" fill="#231f20"/>
      <path id="Path_41523" data-name="Path 41523" d="M172.024,209.421c-2.377-2.815-7.069-2.815-10.428.042a8.759,8.759,0,0,0-3.045,5.048,5.994,5.994,0,0,0,6.07,7.363,8.943,8.943,0,0,0,5.631-2.15,9.045,9.045,0,0,0,3.045-5.046,7.206,7.206,0,0,0,.125-1.315A6.031,6.031,0,0,0,172.024,209.421Zm-.792,4.86a6.745,6.745,0,0,1-2.337,3.837c-2.482,2.106-5.86,2.233-7.507.293a4.179,4.179,0,0,1-.793-3.525,7.091,7.091,0,0,1,6.612-5.507,3.927,3.927,0,0,1,4.026,4.9Z" transform="translate(13.902 -42.764)" fill="#231f20"/>
      <path id="Path_41524" data-name="Path 41524" d="M277.347,317.661a1.014,1.014,0,0,0,1.029-.819l13.168-70.927a1.146,1.146,0,0,0-.21-.857,1.266,1.266,0,0,0-.819-.381l-20.772.267-2.1.019-1.562.019-3.944.038-.972.019h-1.01l-1.067.019-60.543.686a1.044,1.044,0,0,0-1.029.819l-6.555,30.756L177.7,270.688a2.96,2.96,0,0,1-1.659-2.306c-2.306-17.228-5.3-34.588-8.841-51.6-1.772-8.462-3.735-17-5.813-25.383a7.137,7.137,0,0,0-2.991-4.27,107.019,107.019,0,0,0-12.711-7.241,113.3,113.3,0,0,0-10.767-4.5l-.724-3.374-.3-4.916a.93.93,0,0,1,.229-.019,14.277,14.277,0,0,0,9.414-4.211c2.363-2.593,3.087-5.966,3.22-15.15.019-1.069.019-2.155-.019-3.222q-.029-6.659-.61-13.358a10.472,10.472,0,0,0,3.239-3.03,9.079,9.079,0,0,0,1.488-6.974c-2-7.757-16.809-8.671-19.743-8.767-4.4-.133-12.577-.419-19.017,5.488a21.85,21.85,0,0,0-6.137,10.31,9.435,9.435,0,0,0-3.468,2.153c-3.392,3.239-3.125,8.138-3.049,9.757.248,4.763,2.267,7.566,4.459,10.558a30.989,30.989,0,0,1,4.611,8.079c.1.286.21.572.286.857a30.448,30.448,0,0,1,1.164,12.692l-1.2,3.05a116.45,116.45,0,0,0-16.712,5.43A105.849,105.849,0,0,0,74.4,190.156a7.157,7.157,0,0,0-3.2,4.763c-2.841,15.569-5.337,31.385-7.471,47.051C61.9,255.52,60.3,269.278,58.962,282.9a6.785,6.785,0,0,0,4.649,7.069q4.744,1.6,9.624,3.125c.61.21,1.219.381,1.848.553a125.66,125.66,0,0,0-2.172,31.692,1.065,1.065,0,0,0,.019.419c.171,2.648.476,5.335.915,8.041a.978.978,0,0,0,.1.478c2.02,12.137,6.821,24.238,17.036,32.281a39.934,39.934,0,0,0,6.232,4.02H62.982a1.033,1.033,0,0,0-1.048,1.048v12.444a1.057,1.057,0,0,0,1.048,1.048H190.565l-22.277,93.643a.207.207,0,0,0-.019.1l-1.581,6.652a1.015,1.015,0,0,0,.553,1.162l3.2,1.562-2.134,6.232a.463.463,0,0,0-.019.17,4.172,4.172,0,0,0-2.877-.572,4.435,4.435,0,0,0-3.05,1.983l-7.831,12.33a4.009,4.009,0,0,0-.476,3.258,3.943,3.943,0,0,0,2.058,2.553L202.169,537.9l1.793.915a.993.993,0,0,0,1.334-.324l.419-.61,1.505-2.21a6.07,6.07,0,0,0-.877-7.871,74.576,74.576,0,0,1-16.733-22.544,4.048,4.048,0,0,0-1.334-1.6l2.06-5.735,2.553,1.219a.686.686,0,0,0,.419.133.867.867,0,0,0,.381-.1.857.857,0,0,0,.591-.553l2.725-6.4c0-.019,0-.019.038-.038v-.019a.683.683,0,0,0,.076-.21l10.176-23.9,4,25.115v.019l1.105,6.995a1.045,1.045,0,0,0,1.029.877h.038l5.794-.191.572,10.9c-.419-.076-.857-.172-1.277-.267a3.837,3.837,0,0,0-4.784,3.7v21.363a1.083,1.083,0,0,0,1.048,1.048h62.486a.982.982,0,0,0,.743-.343.881.881,0,0,0,.3-.743l-.248-5.165a4.052,4.052,0,0,0-3.411-3.849,47.21,47.21,0,0,1-27.86-15.264,4.02,4.02,0,0,0-3.944-1.238l-.726-10.862,5.356-.172a1.21,1.21,0,0,0,.7-.324,1.043,1.043,0,0,0,.267-.762c-.114-2.591-.21-5.127-.362-7.661a.419.419,0,0,0,.019-.152.206.206,0,0,0-.019-.114c-1.982-42.343-4-78.131-5.87-104.982l.362-.857H268.18a1.057,1.057,0,0,0,1.048-1.048V371.629a1.033,1.033,0,0,0-1.048-1.048h-19.36l2.725-6.4a20.78,20.78,0,0,0-2.172-14.54,20.531,20.531,0,0,0-11.091-9.243,51.355,51.355,0,0,0-1.448-7.833,28.68,28.68,0,0,0-3.963-7.488,26.241,26.241,0,0,0-8.919-7.414Zm-149.878-2.1V310.1h12.615c4.573.9,9.165,1.772,13.778,2.572a.372.372,0,0,0,.152.019,1.064,1.064,0,0,0,1.01-.743l.591-1.848h28.356l-1.162,5.468Zm25.84-23.745,5.221,2.117-4.649,14.692v.038l-.553,1.791c-.9-.171-1.791-.324-2.668-.5-.878-.152-1.755-.324-2.65-.476Zm19.322,16.2.819-.343a9.818,9.818,0,0,1,5.489-.535l4.4.878Zm6.709-2.917a.419.419,0,0,0-.152-.019,11.707,11.707,0,0,0-5.451.286c-.343.114-.705.229-1.048.381l-5.7,2.269H156.263c.286-.859.553-1.7.8-2.555.229-.724.457-1.467.686-2.191.4-1.277.781-2.572,1.181-3.849.686-.1,1.391-.191,2.1-.286s1.41-.191,2.136-.286c1.448-.191,2.915-.343,4.42-.514,1.6-.172,3.2-.286,4.763-.4s3.087-.191,4.556-.267l8.841,4.039-.934,4.459Zm20.065-57.283V247.8l59.018-.648h.648l1.086-.019h1.01l.972-.019,3.944-.057,1.562-.019,2.1-.019,19.515-.229-12.768,68.774H184.923l3.049-14.254ZM144.657,147.7c-.019,1.238-.038,2.363-.076,3.353-.019.362-.038.724-.057,1.048v.21c-.019.229-.038.438-.038.648-.076,1.143-.171,2.134-.3,2.972a4.833,4.833,0,0,1-.076.553c-.057.362-.114.7-.191,1.01a5.073,5.073,0,0,1-.152.629,4.906,4.906,0,0,1-.191.629,3.985,3.985,0,0,1-.21.572,3.216,3.216,0,0,1-.229.514,3.631,3.631,0,0,1-.248.459,4.262,4.262,0,0,1-.419.591,6.4,6.4,0,0,1-.457.553,7.3,7.3,0,0,1-.553.534c-.191.171-.362.324-.572.5a5.4,5.4,0,0,1-.534.381,7.365,7.365,0,0,1-.819.514.019.019,0,0,1-.019.019,13.186,13.186,0,0,1-2.039.9,10.874,10.874,0,0,1-1.126.343,16.236,16.236,0,0,1-2,.324c-.152.019-.286.038-.419.057a10.28,10.28,0,0,1-1.067.057h-.038c-.324,0-.648-.019-.972-.038-.133-.019-.248-.019-.381-.038-.419-.057-.838-.114-1.238-.191-.343-.057-.648-.133-.953-.21a5.7,5.7,0,0,1-.61-.191,1.59,1.59,0,0,1-.286-.076,14.213,14.213,0,0,1-2.782-1.277,6.428,6.428,0,0,1-.648-.4,1.037,1.037,0,0,0-1.448.267,1.013,1.013,0,0,0-.152.838,1.15,1.15,0,0,0,.229.457,2.021,2.021,0,0,0,.21.171,16.384,16.384,0,0,0,8.022,2.725l.267,4.573a16.4,16.4,0,0,1-9.472,3.584c-.248.019-.5.019-.743.019-.362,0-.7-.019-1.048-.038-.419-.038-.838-.076-1.239-.133-.343-.057-.686-.114-1.01-.171-.019-.019-.038-.019-.076-.019a14.353,14.353,0,0,1-1.677-.476c-.191-.057-.381-.114-.572-.192-.21-.074-.4-.151-.591-.229a7.788,7.788,0,0,1-.8-.362,6.744,6.744,0,0,1-.743-.362c-.343-.191-.667-.362-.953-.553-.248-.152-.476-.3-.686-.438a.19.19,0,0,1-.1-.076,1.886,1.886,0,0,1-.324-.21v-.019a33.126,33.126,0,0,0-.648-10.823,14.07,14.07,0,0,0,2.82-4.4,8.957,8.957,0,0,0,.457-1.238,3.652,3.652,0,0,0,.171-.61c.057-.191.114-.4.152-.591a8.185,8.185,0,0,0,.171-.9,6.9,6.9,0,0,0,.114-.876,1.286,1.286,0,0,0,.038-.267c.019-.191.019-.381.038-.572.019-.362.019-.724.019-1.086a4.982,4.982,0,0,1,0-.534c.019,0,.038.019.057.019.038.019.057.019.076.038h.191a1.067,1.067,0,0,0,.667-.248,1.087,1.087,0,0,0,.133-1.467,1.113,1.113,0,0,0-.267-.248.91.91,0,0,0-.343-.114,3.19,3.19,0,0,1-.553-.133,3.676,3.676,0,0,1-.743-.286,2.145,2.145,0,0,1-.4-.229,3.3,3.3,0,0,1-.781-.63,4.051,4.051,0,0,1-.343-.419,3,3,0,0,1-.343-.591,4.745,4.745,0,0,1-.419-2.629,2.629,2.629,0,0,1,.152-.553,1.462,1.462,0,0,1,.191-.343c0-.038.038-.076.057-.114s.057-.057.076-.1a.541.541,0,0,1,.191-.171.229.229,0,0,1,.1-.1,1.023,1.023,0,0,1,.3-.191,1.33,1.33,0,0,1,.381-.152,2.494,2.494,0,0,1,.781-.114,3.7,3.7,0,0,1,.457.038,5.221,5.221,0,0,1,.7.152,7.184,7.184,0,0,1,.705.3.54.54,0,0,0,.248.076.908.908,0,0,0,.553-.019.683.683,0,0,0,.21-.076.761.761,0,0,0,.229-.191,1.187,1.187,0,0,0,.171-.229c.038-.1.057-.171.1-.248a1.015,1.015,0,0,0-.019-.534,1.322,1.322,0,0,0-.1-.248,2.018,2.018,0,0,0-.191-.229.9.9,0,0,0-.229-.172c-.267-.114-.514-.19-.8-.286-.934-3.144-.876-5.373.114-6.385.915-.915,2.4-.686,5.468-.171,1.259.229,2.669.476,4.289.648,3.887.44,11.8.878,17.627-1.581h.019c.057.762.114,1.505.133,2.269.076.724.114,1.467.133,2.191.057.61.076,1.2.1,1.81.057,1.258.114,2.515.133,3.754,0,.21.019.438.019.648.019.762.038,1.505.019,2.229C144.657,145.964,144.657,146.84,144.657,147.7Zm-22.2,31.5a20.608,20.608,0,0,1-2.915-.114c-.362-.038-.705-.1-1.048-.152a17.481,17.481,0,0,1-1.848-.438c-.248-.076-.5-.152-.724-.229a20.074,20.074,0,0,1-5.068-2.553l.629-1.583a18.644,18.644,0,0,0,10.4,3.241c.248,0,.534,0,.819-.019a17.02,17.02,0,0,0,3.069-.419c.476-.114.953-.229,1.391-.362a18.377,18.377,0,0,0,2.458-.934,16.575,16.575,0,0,0,2.02-1.105c.3-.191.572-.362.838-.553l.362,1.734a18.394,18.394,0,0,1-4.783,2.458c-.229.076-.476.152-.724.229-.229.076-.476.152-.724.21a17.09,17.09,0,0,1-3.258.553C123.067,179.18,122.761,179.2,122.456,179.2Zm-11.871-20.791c-.038-.152-.076-.267-.114-.4-.172-.476-.362-.934-.534-1.372-.383-.876-.783-1.677-1.183-2.42-.419-.762-.857-1.448-1.277-2.115-.438-.648-.857-1.258-1.277-1.848l-.629-.857c-.286-.343-.534-.724-.781-1.067s-.5-.7-.724-1.069a10.413,10.413,0,0,1-.648-1.048,11.972,11.972,0,0,1-.591-1.086c-.133-.286-.267-.553-.381-.838s-.229-.591-.324-.9c-.057-.191-.114-.4-.171-.61s-.1-.438-.133-.667c-.057-.21-.1-.438-.133-.667s-.076-.457-.1-.7-.038-.5-.057-.762a4.824,4.824,0,0,1-.019-.553,13.943,13.943,0,0,1,.057-2.306c.019-.133.038-.286.057-.438a3.817,3.817,0,0,1,.076-.457,4.644,4.644,0,0,1,.114-.5c.038-.133.076-.3.114-.457a6.246,6.246,0,0,1,.324-.953,6.783,6.783,0,0,1,.4-.84,6.988,6.988,0,0,1,1.277-1.677,7.579,7.579,0,0,1,3.182-1.81,1.076,1.076,0,0,0,.457-.286.149.149,0,0,0,.076-.076c.019-.019.019-.038.038-.057a1.275,1.275,0,0,0,.133-.324,19.513,19.513,0,0,1,1.2-3.487,16.6,16.6,0,0,1,.973-1.924,20.27,20.27,0,0,1,1.543-2.306c.324-.4.686-.819,1.067-1.221q.429-.457.915-.915c.3-.267.591-.534.9-.781a9.717,9.717,0,0,1,.934-.686,7.122,7.122,0,0,1,.934-.61,9.514,9.514,0,0,1,.953-.553l.019-.019c4.954-2.61,10.291-2.42,13.8-2.306.743.019,1.562.076,2.42.152a6.556,6.556,0,0,1,.857.1c.286.038.553.057.857.1.057,0,.133.019.191.019.248.038.514.057.781.1a.117.117,0,0,0,.076.019c.364.057.745.114,1.126.191l1.143.229c.381.076.762.152,1.124.248.362.076.705.191,1.029.267.4.114.8.229,1.162.343.362.133.724.248,1.067.381.019,0,.038.019.076.019.3.133.61.248.915.381.1.038.21.1.3.133.229.114.438.229.629.324a1.268,1.268,0,0,1,.229.114l.229.114c0,.019.019.019.038.019.248.133.476.286.686.419.21.152.438.3.629.457s.381.343.572.5a3.593,3.593,0,0,1,.381.381c.114.133.229.267.343.381.1.152.21.286.3.438a5.142,5.142,0,0,1,.457.916,4.6,4.6,0,0,1,.152.476,7.147,7.147,0,0,1-1.181,5.3c-.171.229-.324.438-.5.629-.191.229-.381.4-.572.591a9.771,9.771,0,0,1-1.315,1.029c-.419.229-.8.476-1.239.724-3.925,1.943-9.433,2.191-13.416,2.058-1.105-.038-2.077-.114-2.877-.171-.419-.038-.762-.076-1.067-.114-.7-.076-1.372-.171-2.02-.267a1.679,1.679,0,0,0-.324-.038,1.287,1.287,0,0,0-.267-.038c-.476-.1-.935-.172-1.355-.248-.057,0-.114-.019-.171-.019-3.239-.572-5.583-.991-7.317.743H115.2a3.812,3.812,0,0,0-.267.3c0,.019-.019.019-.019.038l-.019.019c-.1.133-.191.267-.286.419-.076.133-.152.286-.229.438a3.544,3.544,0,0,0-.191.476,2.909,2.909,0,0,0-.133.44c0,.019-.019.055-.019.076a.279.279,0,0,0-.019.133,1.213,1.213,0,0,0-.038.133.324.324,0,0,0-.019.133c-.019.076-.038.171-.057.248v.038c0,.1-.019.21-.019.343,0,.1-.019.21-.019.343a2.3,2.3,0,0,0-.019.362c0,.267.019.534.038.819a6.368,6.368,0,0,0,.1.819c.038.3.1.591.152.915.057.3.133.629.21.953a4.117,4.117,0,0,0-1.353.229,3.866,3.866,0,0,0-1.181.61,3.419,3.419,0,0,0-.381.362,3.105,3.105,0,0,0-.324.381c-.038.038-.057.076-.1.114a.669.669,0,0,0-.1.152.5.5,0,0,0-.1.172,4,4,0,0,0-.248.5,3.073,3.073,0,0,0-.171.553,2.788,2.788,0,0,0-.1.381,4.794,4.794,0,0,0-.076.514,5.764,5.764,0,0,0,.286,2.534c.057.152.114.324.171.476a2.075,2.075,0,0,0,.191.476,6.31,6.31,0,0,0,.5.859,5.929,5.929,0,0,0,.438.534c.152.152.3.3.476.457a5.34,5.34,0,0,0,.953.7,14.469,14.469,0,0,1-.1,3.811,12.873,12.873,0,0,1-.343,1.562v.019a14.425,14.425,0,0,1-.7,1.829c-.1.191-.191.4-.3.61-.171.286-.324.572-.5.857-.1.152-.21.3-.3.438l-.019.019a2.246,2.246,0,0,1-.248.343.019.019,0,0,0-.019.019c-.019-.076-.038-.152-.057-.21ZM73.844,291.1c-3.22-.991-6.4-2.02-9.6-3.068-.229-.1-.457-.191-.686-.3a3.979,3.979,0,0,1-1.162-.876,3.764,3.764,0,0,1-.953-1.467.945.945,0,0,1-.152-.381,4.2,4.2,0,0,1-.229-1.886c.667-6.8,1.391-13.644,2.191-20.467q1.172-10.232,2.534-20.389,1.6-11.721,3.487-23.516c1.24-7.852,2.574-15.7,4-23.459a2.8,2.8,0,0,1,.114-.514,3.372,3.372,0,0,1,.4-.934,5.405,5.405,0,0,1,1.753-1.963,107.3,107.3,0,0,1,17.284-9.186,108.683,108.683,0,0,1,16.636-5.392,21.144,21.144,0,0,0,24.754.057,98.464,98.464,0,0,1,10.558,4.4,102.144,102.144,0,0,1,12.482,7.128,4.989,4.989,0,0,1,1.6,1.677,3.943,3.943,0,0,1,.381.876c.038.133.076.3.114.457.534,2.1,1.048,4.192,1.543,6.307,1.524,6.328,2.955,12.711,4.27,19.038,3.544,16.941,6.516,34.243,8.822,51.414a5.229,5.229,0,0,0,.324,1.219,6,6,0,0,0,.591,1.086c.114.171.267.324.4.5a5.352,5.352,0,0,0,1.488,1.124l13.721,6.859v.019l-4.289,20.181-6-2.725-14.159-7.2a4.4,4.4,0,0,1-1.6-1.41,3.717,3.717,0,0,1-.476-.953,3.118,3.118,0,0,1-.229-1.048l-3.222-35.1a1.265,1.265,0,0,0-.114-.381c-.038-.057-.076-.1-.114-.152-.038-.038-.076-.1-.133-.152a1.055,1.055,0,0,0-.762-.248,1.128,1.128,0,0,0-.362.1h-.019a.9.9,0,0,0-.286.248.83.83,0,0,0-.191.3,1.205,1.205,0,0,1-.076.171.543.543,0,0,0-.038.3l3.22,35.1a2.891,2.891,0,0,0,.057.4,2.483,2.483,0,0,0,.076.4,6.068,6.068,0,0,0,.954,2.191,6.177,6.177,0,0,0,1.048,1.2,6.4,6.4,0,0,0,1.315.9l8.193,4.136c-1.982.191-4,.362-6.04.572-2.591.286-5.07.553-7.566.857h-.019l1.124-3.508a.359.359,0,0,0,.038-.152,1.026,1.026,0,0,0-.629-1.105L99.075,267.583a2.894,2.894,0,0,1-1.143-.8,3.3,3.3,0,0,1-.762-1.62,1.258,1.258,0,0,1-.019-.267,2.752,2.752,0,0,1,0-.686l3.944-27.574c0-.038.019-.076.019-.114a1.132,1.132,0,0,0-.248-.7.927.927,0,0,0-.286-.248,1.15,1.15,0,0,0-.362-.114,1.073,1.073,0,0,0-1.181.857l-3.965,27.574a5.206,5.206,0,0,0,.457,3.011,4.541,4.541,0,0,0,.859,1.278,4.717,4.717,0,0,0,1.905,1.353l53.072,21.495-5.432,18.066A622.753,622.753,0,0,1,73.844,291.1Zm.915,24.964c.019-1.01.038-2.02.1-2.991.019-.21.019-.4.038-.591v-.171c0-.152.019-.3.019-.476,0-.133.019-.267.019-.419l.057-.857c.019-.114.019-.248.038-.362a1.639,1.639,0,0,1,.019-.3,4.305,4.305,0,0,1,.019-.5c0-.133.019-.229.019-.343.057-.8.133-1.562.21-2.307.019-.152.019-.3.038-.438s.019-.248.038-.362c.038-.362.076-.724.114-1.067l.114-1.029c.019-.267.038-.5.076-.762.171-1.258.324-2.439.476-3.506.057-.324.114-.629.152-.934.057-.286.114-.591.152-.857.019-.1.019-.191.038-.286.076-.514.171-.991.248-1.429.019-.057.019-.114.038-.171.057-.324.114-.629.171-.876.038-.267.1-.514.133-.726,17.284,5.318,34.95,9.891,52.767,13.7.038,0,.057.019.1.019H126.44a1.052,1.052,0,0,0-.743.3.976.976,0,0,0-.3.724v1.429a62.616,62.616,0,0,0-50.538,12.9C74.74,320.882,74.721,318.424,74.759,316.061Zm.514,12.787c-.114-.991-.191-1.943-.267-2.915q.686-.572,1.372-1.086a14.222,14.222,0,0,1,1.391-1.067c1.048-.8,2.134-1.562,3.22-2.267.5-.343,1.01-.65,1.505-.954.362-.229.745-.457,1.107-.667,1.01-.591,2.039-1.162,3.068-1.7s2.1-1.029,3.163-1.505c.7-.3,1.41-.61,2.134-.876.915-.362,1.829-.7,2.763-1.029.838-.286,1.659-.553,2.5-.8s1.677-.476,2.534-.686a61.475,61.475,0,0,1,25.631-.724v2.9a64.554,64.554,0,0,0-9.586-.286c-.762.019-1.524.057-2.286.133-.838.057-1.677.133-2.515.248q-1.258.143-2.517.343c-.667.114-1.334.229-2,.362-1.315.248-2.648.534-3.963.876a62.057,62.057,0,0,0-8.576,2.915,64.809,64.809,0,0,0-15.74,9.51c-.61.514-1.2,1.01-1.772,1.505-.286.248-.553.476-.819.724v-.019C75.483,330.791,75.369,329.82,75.273,328.848ZM64.03,383.025V372.658H192.165l.553,3.47-1.658,6.9ZM190.755,511.789q.657,1.143,1.372,2.229c.3.476.61.953.934,1.429.343.533.705,1.048,1.067,1.543.838,1.219,1.734,2.4,2.648,3.563.5.611.991,1.221,1.505,1.812.457.553.915,1.086,1.41,1.62.5.572,1.01,1.124,1.524,1.658,1.181,1.277,2.441,2.515,3.717,3.7a3.978,3.978,0,0,1,.572,5.165l-1.41,2.039-47.051-24.221a1.959,1.959,0,0,1-.876-2.572c.038-.1.076-.171.114-.248l7.833-12.311a2.377,2.377,0,0,1,1.124-.953,1.958,1.958,0,0,1,.476-.133,2.431,2.431,0,0,1,.362-.019,1.974,1.974,0,0,1,.743.133,1.93,1.93,0,0,1,.648.4q.8.686,1.658,1.315a36.042,36.042,0,0,0,3.506,2.325c.61.362,1.219.686,1.848,1.01q.972.486,1.945.915a2.622,2.622,0,0,0,.248.114c.648.286,1.315.553,1.982.8.953.343,1.924.648,2.9.915.5.133.972.248,1.467.362.991.229,1.982.4,2.991.553a2.621,2.621,0,0,1,.553.152,3.754,3.754,0,0,1,.476.248c.019,0,.019.019.038.038a1.314,1.314,0,0,1,.343.3,1.624,1.624,0,0,1,.324.476C188.658,508.074,189.669,509.96,190.755,511.789Zm-4.422-8.919c-.724-.114-1.429-.229-2.134-.381-.7-.133-1.41-.3-2.1-.5-.457-.133-.915-.267-1.372-.419-.457-.133-.915-.286-1.353-.457-.457-.152-.915-.324-1.353-.514-.876-.362-1.755-.743-2.612-1.181a34.431,34.431,0,0,1-5.678-3.677l-.038-.038a.794.794,0,0,0,.191-.076.9.9,0,0,0,.4-.476l2.058-6h.019L188.448,497Zm6.461-6.059-2.4-1.181a.478.478,0,0,0-.133-.076,1.313,1.313,0,0,1-.152-.057l-21.191-10.329,1.105-4.632,24.716,11.72Zm-22.258-18.352,22.2-93.338h1.391l12.558,79.065-11.129,26.126Zm22.7-95.434.343-1.429.229,1.429Zm50.041,130.06a1.874,1.874,0,0,1,2,.553,50.281,50.281,0,0,0,4.535,4.478c.514.438,1.048.877,1.562,1.3.61.476,1.238.953,1.867,1.412s1.277.9,1.924,1.315c.514.343,1.048.667,1.582.991a43.911,43.911,0,0,0,5.642,2.9,47.19,47.19,0,0,0,11.987,3.525,2.016,2.016,0,0,1,1.658,1.924l.191,4.041H215.87V515.2a1.675,1.675,0,0,1,.669-1.353,1.7,1.7,0,0,1,1.524-.324c1.467.362,2.934.648,4.421.877a44.186,44.186,0,0,0,5.945.534c.8.038,1.6.038,2.4.019A49.286,49.286,0,0,0,243.273,513.085Zm-12.48-.229c-.286.019-.591.019-.876.019-.669,0-1.336,0-1.983-.038-.667-.019-1.334-.057-2-.133-.648-.038-1.315-.114-1.982-.21-.21-.019-.419-.057-.648-.1-.438-.057-.9-.133-1.334-.21l-.629-11.377,18.732-.61.762,11.358c-.743.191-1.505.343-2.267.5-.667.114-1.334.229-2,.324-.343.057-.686.1-1.029.152-.724.076-1.467.152-2.21.21C232.489,512.8,231.65,512.837,230.793,512.856Zm15.588-14.94-32.054,1.048-.781-4.9,32.568-1.829C246.209,494.124,246.3,496.011,246.381,497.916Zm20.77-125.258v10.367H243.523l4.421-10.367Zm-28.565-29.9a18.584,18.584,0,0,1,9,7.909,16.98,16.98,0,0,1,1.162,2.477,11.583,11.583,0,0,1,.419,1.219c.114.381.229.762.3,1.143q.143.572.229,1.143c.038.267.076.553.114.819.038.21.057.438.076.648a19.426,19.426,0,0,1-.324,5.413l-2.991,7.05-.9,2.077-3.717,8.747c-.229-3.049-.438-5.964-.648-8.747-.057-.7-.114-1.391-.152-2.077-.019-.381-.057-.743-.076-1.105-.152-2.039-.3-3.982-.457-5.869-.133-1.543-.248-3.05-.381-4.479-.076-.915-.171-1.81-.248-2.668-.114-1.2-.229-2.363-.324-3.487q-.086-.943-.171-1.829c-.343-3.163-.648-5.966-.934-8.385ZM224.9,320.616a4.059,4.059,0,0,1,.476.3c.3.189.629.419.915.629a6.177,6.177,0,0,1,.591.457c.267.191.5.381.743.591a3.916,3.916,0,0,1,.438.381c.3.267.61.534.9.819a12.481,12.481,0,0,1,1.105,1.143,10.9,10.9,0,0,1,.859,1.029c.1.114.191.248.286.362,0,0,.038.057.114.152s.172.229.286.4c.229.343.572.857.953,1.467.267.476.572,1.01.876,1.6.191.381.4.781.572,1.219a9.5,9.5,0,0,1,.438,1.01c.133.343.286.7.4,1.067.076.191.133.419.21.688.057.265.133.553.21.876.076.4.172.857.248,1.353a.359.359,0,0,1,.038.152c.019.019.019.019.019.038a5.109,5.109,0,0,1,.1.572,1.125,1.125,0,0,1,.038.267c.057.286.114.591.152.915.114.686.21,1.429.324,2.229.019.21.057.438.076.667v.019a.527.527,0,0,0-.019.171c0,.076.019.133.019.191a.383.383,0,0,0,.076.152v.019c.21,1.658.419,3.468.648,5.507.038.23.057.459.1.688.248,2.42.514,5.125.781,8.1.038.4.076.8.1,1.2.038.476.076.953.133,1.429q.486,5.519.991,12.1c.057.686.114,1.372.171,2.077.114,1.431.21,2.9.324,4.4.1,1.3.191,2.591.286,3.944.038.667.1,1.334.133,2.02.038.343.057.686.076,1.048.019.343.038.686.057,1.048.019.133.019.3.038.438v.019c.019.362.057.724.1,1.086.038.381.057.781.076,1.183.057.762.1,1.524.133,2.306v.019c.057.8.1,1.639.171,2.458.038.419.057.838.076,1.258.038.419.057.857.1,1.277q.457,6.8.9,14.235c.038.591.076,1.2.133,1.791.076,1.41.171,2.82.248,4.251.019.5.057.972.076,1.467.038.419.057.857.076,1.315.038.533.057,1.067.114,1.6.038.724.076,1.448.114,2.191q.457,7.774.916,16.159c.057,1.067.133,2.134.191,3.2.038.934.1,1.848.152,2.782q.343,6.459.686,13.244c.076,1.315.133,2.648.21,3.982.172,3.487.362,7.033.534,10.634.057,1.239.114,2.458.172,3.7.019.514.057,1.048.076,1.581.057.9.1,1.81.133,2.725.057.9.1,1.812.133,2.746.114,2.42.229,4.9.362,7.393l-32.816,1.848-4.382-27.574-.61-3.849-11.968-75.464-.343-2.1-1.639-10.367-.191-1.2a1.04,1.04,0,0,0-.114-.343.593.593,0,0,0-.133-.172c-.019-.019-.038-.019-.057-.038a.445.445,0,0,0-.133-.133.455.455,0,0,0-.21-.114.747.747,0,0,0-.343-.076H102.181a39.038,39.038,0,0,1-9.91-5.659,31.864,31.864,0,0,1-3.373-3.03c-.267-.267-.514-.534-.781-.819a28.226,28.226,0,0,1-2-2.307,5.567,5.567,0,0,1-.4-.534c-.191-.229-.381-.476-.553-.724a18.14,18.14,0,0,1-1.143-1.639,12.364,12.364,0,0,1-.686-1.048,42.976,42.976,0,0,1-2.822-5.335l-.171-.4c-.1-.191-.191-.4-.267-.591a5.238,5.238,0,0,1-.286-.686,6.219,6.219,0,0,1-.286-.764c-.114-.267-.229-.534-.324-.8-.076-.172-.133-.343-.191-.514-.171-.476-.343-.953-.514-1.448a3.763,3.763,0,0,1-.152-.5c-.152-.457-.3-.934-.438-1.41-.229-.819-.457-1.62-.667-2.439-.229-.9-.438-1.81-.629-2.725-.21-.972-.4-1.963-.572-2.953a62.624,62.624,0,0,1,27.06-15.094c.838-.229,1.7-.419,2.553-.591.21-.057.419-.1.629-.133.857-.191,1.715-.343,2.572-.476a60.168,60.168,0,0,1,7.871-.743c1.238-.038,2.5-.038,3.754,0a1.85,1.85,0,0,1,.324.019c.934.038,1.867.1,2.822.152.9.057,1.791.152,2.706.267h92.538c.572.21,1.143.438,1.7.667s1.105.476,1.62.743a11.9,11.9,0,0,1,1.2.629c.191.1.381.21.572.3C224.256,320.2,224.579,320.405,224.9,320.616Z" transform="translate(-58.937 -112.318)" fill="#150035"/>
      <path id="Path_41525" data-name="Path 41525" d="M189.129,262.615v10.367H165.5l4.421-10.367Z" transform="translate(19.086 -2.275)" fill="#fff"/>
      <path id="Path_41526" data-name="Path 41526" d="M190.565,266.084l-1.658,6.9H61.877V262.615H190.012Z" transform="translate(-56.784 -2.275)" fill="#fff"/>
      <path id="Path_41527" data-name="Path 41527" d="M116.375,172.563v8.427a6.448,6.448,0,0,1-12.9,0v-8.427Z" transform="translate(-26.324 -68.209)" fill="#fff"/>
      <path id="Path_41528" data-name="Path 41528" d="M164.48,372.277l-1.4,2.044L116.03,350.105a1.908,1.908,0,0,1-1-1.23,1.946,1.946,0,0,1,.249-1.585l7.822-12.328a2.265,2.265,0,0,1,1.606-1.064,2.024,2.024,0,0,1,.355-.021,2.046,2.046,0,0,1,1.4.521A37.073,37.073,0,0,0,145,342.723a2.232,2.232,0,0,1,1.73,1.209,76.324,76.324,0,0,0,9.032,14.412,81.277,81.277,0,0,0,8.155,8.782A3.97,3.97,0,0,1,164.48,372.277Z" transform="translate(-17.919 49.901)" fill="#fff"/>
      <path id="Path_41529" data-name="Path 41529" d="M148.249,336.618l-1.94,4.547L143.91,340a1.271,1.271,0,0,0-.291-.146l-21.191-10.324,1.105-4.63Z" transform="translate(-12.45 43.325)" fill="#fff"/>
      <path id="Path_41530" data-name="Path 41530" d="M181.024,337.324l-32.057,1.043-.771-4.881,32.558-1.834C180.858,333.527,180.941,335.425,181.024,337.324Z" transform="translate(6.416 48.271)" fill="#fff"/>
      <path id="Path_41531" data-name="Path 41531" d="M172.181,347.6a45.385,45.385,0,0,1-10.033,1.313,46.474,46.474,0,0,1-8.824-.667l-.625-11.389,18.73-.6Z" transform="translate(9.713 51.638)" fill="#fff"/>
      <path id="Path_41532" data-name="Path 41532" d="M141.637,337.711l-2.129,5.882A35.7,35.7,0,0,1,128.6,340.13a33.577,33.577,0,0,1-5.694-3.67l-.021-.023a1.029,1.029,0,0,0,.584-.563l2.065-6.005Z" transform="translate(-12.115 46.966)" fill="#fff"/>
      <path id="Path_41533" data-name="Path 41533" d="M118.589,228.357v2.9a63.81,63.81,0,0,0-22.858,1.689,64.492,64.492,0,0,0-26.906,14.621c-.272-1.961-.459-3.922-.606-5.839a60.678,60.678,0,0,1,50.37-13.371Z" transform="translate(-52.14 -28.099)" fill="#fff"/>
      <path id="Path_41534" data-name="Path 41534" d="M155,226.5l-1.169,5.486H98.5V226.5H111.12c4.568.9,9.156,1.774,13.767,2.565a.376.376,0,0,0,.166.023,1.052,1.052,0,0,0,1-.731l.584-1.857Z" transform="translate(-29.967 -28.721)" fill="#fff"/>
      <path id="Path_41535" data-name="Path 41535" d="M144.6,223.366l-.939,4.464-5.463-1.064a11.677,11.677,0,0,0-6.653.625l-5.7,2.273h-10.72c.9-2.856,1.774-5.714,2.669-8.573,2.754-.416,5.633-.771,8.635-1.084,3.234-.333,6.362-.542,9.324-.688Z" transform="translate(-17.793 -33.975)" fill="#fff"/>
      <path id="Path_41536" data-name="Path 41536" d="M120.876,218.055l-4.651,14.7v.042l-.565,1.772c-1.772-.314-3.523-.646-5.3-.96l5.276-17.665Z" transform="translate(-21.284 -36.443)" fill="#fff"/>
      <path id="Path_41537" data-name="Path 41537" d="M110.91,149.647a19.012,19.012,0,0,1-10.386,3.5,19.245,19.245,0,0,1-11.618-3.5l.625-1.585a18.675,18.675,0,0,0,10.409,3.232c.249,0,.542,0,.812-.021a18.547,18.547,0,0,0,9.782-3.357Z" transform="translate(-36.994 -86.254)" fill="#fff"/>
      <path id="Path_41538" data-name="Path 41538" d="M209.893,366.159H149.532V345.845a1.692,1.692,0,0,1,.669-1.356,1.756,1.756,0,0,1,1.523-.334,48.7,48.7,0,0,0,25.215-.437,1.89,1.89,0,0,1,2,.563,49.514,49.514,0,0,0,29.1,15.913,2.008,2.008,0,0,1,1.67,1.919Z" transform="translate(7.395 57.041)" fill="#fff"/>
      <path id="Path_41539" data-name="Path 41539" d="M236,189.952l-12.765,68.787H131.676l3.045-14.266,11.43-53.5,59.672-.667,2.086-.021,6.487-.084,2.086-.021Z" transform="translate(-5.679 -55.477)" fill="#fff"/>
      <path id="Path_41541" data-name="Path 41541" d="M159.526,348.877l-11.138,26.134L123.36,363.164v-.021l22.213-93.335h1.4Z" transform="translate(-11.767 2.991)" fill="#150035"/>
      <path id="Path_41542" data-name="Path 41542" d="M173.642,266.127l-3,7.048-.9,2.086L166.029,284c-.23-3.045-.438-5.966-.646-8.741-.043-.708-.106-1.4-.147-2.086-.918-11.867-1.793-21.252-2.586-27.822a18.519,18.519,0,0,1,8.99,7.9A18.745,18.745,0,0,1,173.642,266.127Z" transform="translate(16.999 -14.914)" fill="#150035"/>
      <path id="Path_41543" data-name="Path 41543" d="M238.809,403.556,206,405.412l-4.379-27.573-.606-3.859-11.971-75.46-.334-2.086-1.647-10.367-.187-1.209a1.046,1.046,0,0,0-1-.876H94.958a38.876,38.876,0,0,1-9.908-5.652c-9.657-7.613-14.287-19.083-16.248-30.659a61.567,61.567,0,0,1,50.287-16.6h92.522A26.387,26.387,0,0,1,224,239.743a26.843,26.843,0,0,1,3.629,6.9,48.394,48.394,0,0,1,1.419,7.758v.021a.659.659,0,0,0,.083.521v.021c.833,6.508,1.751,16.31,2.732,29.012.062.689.1,1.377.166,2.086.251,3.276.5,6.738.752,10.367.042.688.1,1.377.146,2.086.021.146.021.293.042.438v.021c.106,1.5.21,3,.293,4.568v.021C235.033,329.679,236.932,363.7,238.809,403.556Z" transform="translate(-51.713 -25.72)" fill="#150035"/>
    </g>
    <path id="Path_41583" data-name="Path 41583" d="M415.706,4715.544l-14.756,68.863h92.261l13.161-69.528Z" transform="translate(2 -12)" fill="#e9666b" stroke="#707070" stroke-width="1"/>
    <path id="Path_41540" data-name="Path 41540" d="M170.351,213.409a6.745,6.745,0,0,1-2.337,3.837c-2.482,2.106-5.86,2.233-7.507.293a4.179,4.179,0,0,1-.793-3.525,7.091,7.091,0,0,1,6.612-5.507,3.927,3.927,0,0,1,4.026,4.9Z" transform="translate(292.283 4526.639)" fill="#fff"/>
    <rect id="Rectangle_8494" data-name="Rectangle 8494" width="317.158" height="1" transform="translate(278 4994.27)" fill="#231f20"/>
    <g id="Group_21536" data-name="Group 21536" transform="translate(524.528 4488.45)">
      <path id="Path_41545" data-name="Path 41545" d="M123.976,75.213V309.049a7.389,7.389,0,0,0,7.381,7.38H394.534a7.392,7.392,0,0,0,7.4-7.38V75.213a7.393,7.393,0,0,0-7.4-7.381H131.357A7.39,7.39,0,0,0,123.976,75.213Z" transform="translate(-123.976 -62.89)" fill="#231f20" opacity="0.1"/>
      <path id="Path_41546" data-name="Path 41546" d="M127.876,64.352H391.053a7.393,7.393,0,0,1,7.4,7.38V305.567a7.393,7.393,0,0,1-7.4,7.381H127.876a7.39,7.39,0,0,1-7.38-7.381V71.732A7.389,7.389,0,0,1,127.876,64.352Zm-5.732,241.215a5.737,5.737,0,0,0,5.732,5.734H391.053a5.751,5.751,0,0,0,5.749-5.734V88.815H122.143Zm0-218.4H396.8V71.732A5.751,5.751,0,0,0,391.053,66H127.876a5.737,5.737,0,0,0-5.732,5.732Z" transform="translate(-115.553 -64.352)" fill="#150035"/>
      <path id="Path_41547" data-name="Path 41547" d="M121.656,71.244V86.681H396.315V71.244a5.751,5.751,0,0,0-5.749-5.732H127.388A5.737,5.737,0,0,0,121.656,71.244Z" transform="translate(-115.066 -63.865)" fill="#e9666b"/>
      <path id="Path_41548" data-name="Path 41548" d="M121.656,81.58V298.332a5.737,5.737,0,0,0,5.732,5.734H390.565a5.751,5.751,0,0,0,5.749-5.734V81.58Z" transform="translate(-115.066 -57.117)" fill="#fff"/>
      <g id="Group_21529" data-name="Group 21529" transform="translate(27.051 53.293)">
        <path id="Path_41549" data-name="Path 41549" d="M141.379,105.706v167.18a3.829,3.829,0,0,0,3.84,3.823H363.733a3.828,3.828,0,0,0,3.838-3.823V105.706a3.828,3.828,0,0,0-3.838-3.823H145.219A3.829,3.829,0,0,0,141.379,105.706Z" transform="translate(-141.379 -101.883)" fill="#231f20" opacity="0.1"/>
      </g>
      <g id="Group_21530" data-name="Group 21530" transform="translate(30.346 49.999)">
        <path id="Path_41550" data-name="Path 41550" d="M142.9,99.563H361.41a3.828,3.828,0,0,1,3.84,3.821V270.566a3.829,3.829,0,0,1-3.84,3.823H142.9a3.828,3.828,0,0,1-3.838-3.823V103.384A3.827,3.827,0,0,1,142.9,99.563Zm-2.191,171a2.175,2.175,0,0,0,2.191,2.174H361.41a2.186,2.186,0,0,0,2.191-2.174V103.384a2.187,2.187,0,0,0-2.191-2.174H142.9a2.176,2.176,0,0,0-2.191,2.174Z" transform="translate(-139.058 -99.563)" fill="#150035"/>
        <path id="Path_41551" data-name="Path 41551" d="M140.219,102.9V270.079a2.175,2.175,0,0,0,2.191,2.174H360.924a2.186,2.186,0,0,0,2.191-2.174V102.9a2.187,2.187,0,0,0-2.191-2.174H142.41A2.176,2.176,0,0,0,140.219,102.9Z" transform="translate(-138.572 -99.076)" fill="#fff"/>
      </g>
      <rect id="Rectangle_8495" data-name="Rectangle 8495" width="24.841" height="74.691" rx="1.154" transform="translate(55.811 148.314)" fill="none" stroke="#e9666b" stroke-width="1"/>
      <rect id="Rectangle_8496" data-name="Rectangle 8496" width="24.841" height="95.358" rx="1.154" transform="translate(105.234 128.647)" fill="none" stroke="#31ccaf" stroke-width="1"/>
      <rect id="Rectangle_8497" data-name="Rectangle 8497" width="24.841" height="50.208" rx="1.154" transform="translate(156.305 173.797)" fill="none" stroke="#e9666b" stroke-width="1"/>
      <rect id="Rectangle_8498" data-name="Rectangle 8498" width="24.841" height="75.691" rx="1.154" transform="translate(207.375 148.314)" fill="none" stroke="#31ccaf" stroke-width="1"/>
      <g id="Group_21531" data-name="Group 21531" transform="translate(68.507 110.271)">
        <path id="Path_41552" data-name="Path 41552" d="M264.736,193.725l51.6-26.4-.75-1.467-50.544,25.862-51.061-49.712L164.67,165.851l.718,1.483,48.269-23.341Z" transform="translate(-164.67 -142.008)" fill="#231f20"/>
      </g>
      <circle id="Ellipse_9256" data-name="Ellipse 9256" cx="6.209" cy="6.209" r="6.209" transform="translate(213.587 128.647)" fill="#31ccaf"/>
      <circle id="Ellipse_9257" data-name="Ellipse 9257" cx="6.209" cy="6.209" r="6.209" transform="translate(111.446 105.055)" fill="#31ccaf"/>
      <path id="Path_41553" data-name="Path 41553" d="M94.322,211.331V317a5.207,5.207,0,0,0,5.207,5.206H309.411A5.207,5.207,0,0,0,314.617,317V211.331a5.217,5.217,0,0,0-5.206-5.206H99.529A5.217,5.217,0,0,0,94.322,211.331Z" transform="translate(5.446 -4.81)" fill="#231f20" opacity="0.1"/>
      <path id="Path_41554" data-name="Path 41554" d="M97.208,203.8H307.09a5.216,5.216,0,0,1,5.206,5.206V314.676a5.205,5.205,0,0,1-5.206,5.206H97.208A5.205,5.205,0,0,1,92,314.676V209.011A5.216,5.216,0,0,1,97.208,203.8ZM93.649,314.676a3.553,3.553,0,0,0,3.558,3.559H307.09a3.553,3.553,0,0,0,3.558-3.559v-91.7h-217Zm0-93.343h217V209.011a3.564,3.564,0,0,0-3.558-3.558H97.208a3.564,3.564,0,0,0-3.558,3.558Z" transform="translate(11.062 -5.784)" fill="#150035"/>
      <path id="Path_41555" data-name="Path 41555" d="M93.162,208.523v12.323h217V208.523a3.564,3.564,0,0,0-3.558-3.558H96.72A3.564,3.564,0,0,0,93.162,208.523Z" transform="translate(11.549 -5.297)" fill="#e9666b"/>
      <path id="Path_41556" data-name="Path 41556" d="M93.162,217.309V309a3.553,3.553,0,0,0,3.558,3.558H306.6A3.553,3.553,0,0,0,310.161,309v-91.7Z" transform="translate(11.549 -0.113)" fill="#fff"/>
      <rect id="Rectangle_8499" data-name="Rectangle 8499" width="181.557" height="26.031" rx="2.6" transform="translate(121.525 232.671)" fill="none" stroke="#707070" stroke-width="1"/>
      <rect id="Rectangle_8500" data-name="Rectangle 8500" width="181.557" height="5.767" rx="1.75" transform="translate(121.525 290.149)" fill="none" stroke="#707070" stroke-width="1"/>
      <rect id="Rectangle_8501" data-name="Rectangle 8501" width="181.557" height="5.767" rx="1.75" transform="translate(121.525 273.675)" fill="none" stroke="#707070" stroke-width="1"/>
      <g id="Group_21532" data-name="Group 21532" transform="translate(186.364 77.685)">
        <rect id="Rectangle_8502" data-name="Rectangle 8502" width="10.58" height="10.58" rx="1.546" transform="translate(45.256)" fill="none" stroke="#e9666b" stroke-width="1"/>
        <rect id="Rectangle_8503" data-name="Rectangle 8503" width="39.64" height="3.033" rx="0.92" transform="translate(0 0.565)" fill="#e9666b"/>
        <rect id="Rectangle_8504" data-name="Rectangle 8504" width="22.135" height="3.033" rx="0.92" transform="translate(17.505 7.547)" fill="#e9666b"/>
      </g>
      <g id="Group_21533" data-name="Group 21533" transform="translate(186.364 61.211)">
        <rect id="Rectangle_8505" data-name="Rectangle 8505" width="10.58" height="10.58" rx="1.546" transform="translate(45.256)" fill="none" stroke="#31ccaf" stroke-width="1"/>
        <rect id="Rectangle_8506" data-name="Rectangle 8506" width="39.64" height="3.033" rx="0.92" transform="translate(0 0.565)" fill="#31ccaf"/>
        <rect id="Rectangle_8507" data-name="Rectangle 8507" width="22.135" height="3.033" rx="0.92" transform="translate(17.505 7.547)" fill="#31ccaf"/>
      </g>
      <g id="Group_21534" data-name="Group 21534" transform="translate(231.916 8.453)">
        <circle id="Ellipse_9258" data-name="Ellipse 9258" cx="4.119" cy="4.119" r="4.119" transform="translate(0)" fill="#fff"/>
        <circle id="Ellipse_9259" data-name="Ellipse 9259" cx="4.119" cy="4.119" r="4.119" transform="translate(16.474)" fill="#fff"/>
        <circle id="Ellipse_9260" data-name="Ellipse 9260" cx="4.119" cy="4.119" r="4.119" transform="translate(32.949)" fill="#fff"/>
      </g>
      <g id="Group_21535" data-name="Group 21535" transform="translate(274.097 203.49)">
        <circle id="Ellipse_9261" data-name="Ellipse 9261" cx="4.119" cy="4.119" r="4.119" transform="translate(0)" fill="#fff"/>
        <circle id="Ellipse_9262" data-name="Ellipse 9262" cx="4.119" cy="4.119" r="4.119" transform="translate(16.474)" fill="#fff"/>
        <circle id="Ellipse_9263" data-name="Ellipse 9263" cx="4.119" cy="4.119" r="4.119" transform="translate(32.949)" fill="#fff"/>
      </g>
      <circle id="Ellipse_9254" data-name="Ellipse 9254" cx="6.209" cy="6.209" r="6.209" transform="translate(162.516 154.776)" fill="#e9666b"/>
      <circle id="Ellipse_9255" data-name="Ellipse 9255" cx="6.209" cy="6.209" r="6.209" transform="translate(62.656 128.647)" fill="#e9666b"/>
    </g>
  </g>
</svg>
