<svg xmlns="http://www.w3.org/2000/svg" xmlns:xlink="http://www.w3.org/1999/xlink" width="280" height="120" viewBox="0 0 280 120">
  <defs>
    <filter id="Rectangle_8471" x="0" y="0" width="280" height="120" filterUnits="userSpaceOnUse">
      <feOffset dy="4" input="SourceAlpha"/>
      <feGaussianBlur stdDeviation="5" result="blur"/>
      <feFlood flood-opacity="0.078"/>
      <feComposite operator="in" in2="blur"/>
      <feComposite in="SourceGraphic"/>
    </filter>
  </defs>
  <g id="Group_21463" data-name="Group 21463" transform="translate(-1382 -4512)">
    <g transform="matrix(1, 0, 0, 1, 1382, 4512)" filter="url(#Rectangle_8471)">
      <rect id="Rectangle_8471-2" data-name="Rectangle 8471" width="250" height="90" rx="10" transform="translate(15 11)" fill="#fff"/>
    </g>
    <g id="Avalanche_Horizontal_Red" transform="translate(1429 4549)">
      <path id="Path_41455" data-name="Path 41455" d="M771.552,210.7h2.031l5.684,13.195h-2.684l-1.23-3.019h-5.721L768.44,223.9h-2.628Zm2.982,8.163L772.5,213.5l-2.069,5.367Z" transform="translate(-721.009 -198.376)" fill="#e84142"/>
      <path id="Path_41456" data-name="Path 41456" d="M1038.86,210.7h2.7l3.6,9.971,3.708-9.971h2.535l-5.33,13.195h-2.031Z" transform="translate(-978.083 -198.376)" fill="#e84142"/>
      <path id="Path_41457" data-name="Path 41457" d="M1304.32,210.7h2.032l5.684,13.195h-2.683l-1.23-3.019H1302.4l-1.193,3.019h-2.628Zm2.982,8.163-2.031-5.367-2.069,5.367Z" transform="translate(-1222.608 -198.376)" fill="#e84142"/>
      <path id="Path_41458" data-name="Path 41458" d="M1617.35,210.7h2.348v11.07h5.609V223.9h-7.958Z" transform="translate(-1522.729 -198.376)" fill="#e84142"/>
      <path id="Path_41459" data-name="Path 41459" d="M1826.82,210.7h2.032l5.684,13.195h-2.684l-1.23-3.019H1824.9l-1.193,3.019h-2.627Zm2.982,8.163-2.031-5.367-2.069,5.367Z" transform="translate(-1714.539 -198.376)" fill="#e84142"/>
      <path id="Path_41460" data-name="Path 41460" d="M2139.85,210.7h3.112l6.393,9.8h.037v-9.8h2.348V223.9h-2.982l-6.523-10.12h-.037V223.9h-2.348Z" transform="translate(-2014.661 -198.376)" fill="#e84142"/>
      <path id="Path_41461" data-name="Path 41461" d="M2454.756,208.4a3.9,3.9,0,0,0-1.416-1.044,3.729,3.729,0,0,0-1.361-.261,4.539,4.539,0,0,0-1.864.373,4.1,4.1,0,0,0-1.416,1.006,4.6,4.6,0,0,0-.932,1.491,5.293,5.293,0,0,0-.316,1.845,5.837,5.837,0,0,0,.316,1.957,4.727,4.727,0,0,0,.932,1.547,4.323,4.323,0,0,0,1.416,1.025,4.54,4.54,0,0,0,1.864.373,3.417,3.417,0,0,0,1.547-.373,4.332,4.332,0,0,0,1.417-1.23l1.937,1.379a5.273,5.273,0,0,1-2.18,1.789,6.794,6.794,0,0,1-2.739.559,7.914,7.914,0,0,1-2.814-.485,6.71,6.71,0,0,1-2.2-1.4,6.574,6.574,0,0,1-1.435-2.18,7.316,7.316,0,0,1-.522-2.814,7.56,7.56,0,0,1,.522-2.87,6.491,6.491,0,0,1,1.435-2.218,6.328,6.328,0,0,1,2.2-1.4,7.652,7.652,0,0,1,2.814-.5,6.254,6.254,0,0,1,2.479.485,5.683,5.683,0,0,1,2.144,1.6Z" transform="translate(-2301.949 -192.977)" fill="#e84142"/>
      <path id="Path_41462" data-name="Path 41462" d="M2738.88,210.7h2.348v5.255h6.169V210.7h2.349V223.9H2747.4v-5.815h-6.169V223.9h-2.348Z" transform="translate(-2578.645 -198.376)" fill="#e84142"/>
      <path id="Path_41463" data-name="Path 41463" d="M3038.7,210.7h8.74v2.125h-6.392v3.243h6.057v2.125h-6.057v3.578h6.728V223.9H3038.7Z" transform="translate(-2860.924 -198.376)" fill="#e84142"/>
      <circle id="Ellipse_9240" data-name="Ellipse 9240" cx="14.809" cy="14.809" r="14.809" transform="translate(4.022 4.022)" fill="#fff"/>
      <path id="Path_41464" data-name="Path 41464" d="M37.852,18.926A18.926,18.926,0,1,1,18.926,0,18.926,18.926,0,0,1,37.852,18.926ZM13.563,26.457H9.89A2.948,2.948,0,0,1,8.5,26.308a.933.933,0,0,1-.423-.73c-.014-.274.177-.609.558-1.279L17.708,8.314c.386-.679.581-1.018.828-1.144a.936.936,0,0,1,.846,0c.246.126.442.465.828,1.144l1.864,3.255.01.017h0a6.1,6.1,0,0,1,.72,1.485,2.761,2.761,0,0,1,0,1.293,6.127,6.127,0,0,1-.725,1.5l-4.764,8.421-.012.022a6.046,6.046,0,0,1-.927,1.387,2.771,2.771,0,0,1-1.13.656A6.64,6.64,0,0,1,13.563,26.457Zm9.276,0H28.1a2.923,2.923,0,0,0,1.4-.153.93.93,0,0,0,.423-.735c.013-.265-.173-.587-.539-1.218l-.038-.066-2.636-4.51-.03-.051c-.37-.627-.558-.943-.8-1.065a.926.926,0,0,0-.842,0c-.242.125-.437.456-.823,1.12l-2.627,4.51-.009.016c-.385.664-.577,1-.563,1.268a.942.942,0,0,0,.423.735A2.972,2.972,0,0,0,22.839,26.458Z" fill="#e84142"/>
    </g>
  </g>
</svg>
