<svg xmlns="http://www.w3.org/2000/svg" width="22.021" height="16.012" viewBox="0 0 22.021 16.012">
  <path id="Path_41449" data-name="Path 41449" d="M115.288,259.12h.277q8.523,0,17.047,0a1.868,1.868,0,0,1,.464.037.994.994,0,0,1-.217,1.951c-.1.005-.2,0-.3,0H115.219c.1.108.162.173.225.236q2.487,2.488,4.975,4.975a1.019,1.019,0,0,1,.327,1.059,1,1,0,0,1-1.584.506,2.548,2.548,0,0,1-.2-.194l-6.749-6.75a1.023,1.023,0,0,1-.01-1.647q3.415-3.417,6.83-6.834a1.017,1.017,0,0,1,1.059-.324,1,1,0,0,1,.5,1.587,3.178,3.178,0,0,1-.226.238q-2.462,2.463-4.925,4.925a1.529,1.529,0,0,1-.208.148Z" transform="translate(-111.789 -252.098)"/>
</svg>
