<svg xmlns="http://www.w3.org/2000/svg" xmlns:xlink="http://www.w3.org/1999/xlink" width="1923" height="329.096" viewBox="0 0 1923 329.096">
  <defs>
    <clipPath id="clip-path">
      <rect id="Rectangle_7094" data-name="Rectangle 7094" width="1920" height="329" transform="translate(0 0.064)" fill="none" stroke="#707070" stroke-width="1"/>
    </clipPath>
    <radialGradient id="radial-gradient" cx="0.5" cy="0.5" r="0.5" gradientUnits="objectBoundingBox">
      <stop offset="0" stopColor="#436f81"/>
      <stop offset="1" stopColor="#0c2936" stop-opacity="0"/>
    </radialGradient>
    <clipPath id="clip-path-2">
      <rect id="Rectangle_7530" data-name="Rectangle 7530" width="1923" height="328.707" fill="none"/>
    </clipPath>
    <radialGradient id="radial-gradient-3" cx="0.491" cy="0.5" r="0.47" gradientUnits="objectBoundingBox">
      <stop offset="0" stopColor="#75afe2"/>
      <stop offset="0.32" stopColor="#4a6f90"/>
      <stop offset="0.649" stopColor="#223443"/>
      <stop offset="0.884" stopColor="#090e12"/>
      <stop offset="1"/>
    </radialGradient>
    <radialGradient id="radial-gradient-4" cx="0.5" cy="0.5" r="0.501" gradientUnits="objectBoundingBox">
      <stop offset="0" stopColor="#0d3e69"/>
      <stop offset="0.109" stopColor="#1f4c74"/>
      <stop offset="0.331" stopColor="#507392"/>
      <stop offset="0.645" stopColor="#9eb2c3"/>
      <stop offset="1" stopColor="#fff"/>
    </radialGradient>
    <radialGradient id="radial-gradient-10" cx="0.491" cy="0.5" r="0.423" gradientUnits="objectBoundingBox">
      <stop offset="0" stopColor="#75afe2"/>
      <stop offset="0.377" stopColor="#74ade0"/>
      <stop offset="0.515" stopColor="#70a8d9"/>
      <stop offset="0.613" stopColor="#6a9fcd"/>
      <stop offset="0.693" stopColor="#6191bc"/>
      <stop offset="0.762" stopColor="#5680a6"/>
      <stop offset="0.823" stopColor="#476b8a"/>
      <stop offset="0.878" stopColor="#37526a"/>
      <stop offset="0.929" stopColor="#233544"/>
      <stop offset="0.974" stopColor="#0e151b"/>
      <stop offset="1"/>
    </radialGradient>
    <linearGradient id="linear-gradient" x1="1.129" y1="1.197" x2="0.212" y2="0.114" gradientUnits="objectBoundingBox">
      <stop offset="0" stopColor="#234e60"/>
      <stop offset="0.975" stopColor="#173442" stop-opacity="0"/>
      <stop offset="1" stop-opacity="0.8"/>
    </linearGradient>
  </defs>
  <g id="Group_21570" data-name="Group 21570" transform="translate(3 0.096)">
    <g id="Group_20015" data-name="Group 20015" transform="translate(-3 -0.096)">
      <g id="Group_5" data-name="Group 5" transform="translate(3 0.031)">
        <path id="Path_10" data-name="Path 10" d="M0,0H1920V328.676H0Z" fill="#0c2936"/>
        <g id="Mask_Group_3" data-name="Mask Group 3" clip-path="url(#clip-path)">
          <ellipse id="Ellipse_8" data-name="Ellipse 8" cx="733" cy="239" rx="733" ry="239" transform="translate(707 -238.935)" fill="url(#radial-gradient)"/>
          <ellipse id="Ellipse_10" data-name="Ellipse 10" cx="960" cy="313" rx="960" ry="313" transform="translate(-960 16.064)" fill="url(#radial-gradient)"/>
        </g>
      </g>
      <g id="Group_30" data-name="Group 30">
        <g id="Group_11" data-name="Group 11" opacity="0.3" clip-path="url(#clip-path-2)">
          <path id="Path_11" data-name="Path 11" d="M152.4,533.5c4.132,71.434,193.769,127.826,434.214,129.115,242.131,1.3,430.541-53.194,437.238-126.463C1030.5,463.2,851.93,403.276,616.571,399.486,368.98,395.5,148.128,459.263,152.4,533.5Z" transform="translate(-100.094 -357.692)" opacity="0.15" fill="url(#radial-gradient-3)" style="mix-blend-mode: screen;isolation: isolate"/>
          <path id="Path_12" data-name="Path 12" d="M3873.286,1649.958c4.132,71.434,193.769,127.826,434.214,129.115,242.131,1.3,430.541-53.194,437.238-126.463,6.651-72.953-171.923-132.874-407.281-136.664C4089.865,1511.96,3869.013,1575.723,3873.286,1649.958Z" transform="translate(-2544.8 -1357.788)" opacity="0.33" fill="url(#radial-gradient-4)" style="mix-blend-mode: multiply;isolation: isolate"/>
          <path id="Path_13" data-name="Path 13" d="M-1118.373-961.045c4.131,71.434,193.768,127.826,434.213,129.115,242.131,1.3,430.541-53.194,437.239-126.463,6.65-72.953-171.923-132.874-407.282-136.664C-901.795-1099.043-1122.646-1035.28-1118.373-961.045Z" transform="translate(734.834 981.082)" opacity="0.33" fill="url(#radial-gradient-4)" style="mix-blend-mode: multiply;isolation: isolate"/>
          <path id="Path_14" data-name="Path 14" d="M2623.849-29.411c4.132,71.434,193.769,127.826,434.214,129.115C3300.194,101,3488.6,46.51,3495.3-26.759c6.651-72.953-171.923-132.874-407.282-136.664C2840.428-167.409,2619.576-103.646,2623.849-29.411Z" transform="translate(-1723.892 146.548)" opacity="0.4" fill="url(#radial-gradient-4)" style="mix-blend-mode: multiply;isolation: isolate"/>
          <path id="Path_15" data-name="Path 15" d="M4921.169,291.926c4.132,71.434,193.769,127.826,434.214,129.115,242.131,1.3,430.541-53.194,437.238-126.463,6.65-72.953-171.923-132.874-407.282-136.664C5137.748,153.928,4916.9,217.691,4921.169,291.926Z" transform="translate(-3233.285 -141.297)" opacity="0.33" fill="url(#radial-gradient-4)" style="mix-blend-mode: multiply;isolation: isolate"/>
          <path id="Path_16" data-name="Path 16" d="M-302.292,2024.761c4.132,71.434,193.769,127.825,434.214,129.114,242.131,1.3,430.541-53.194,437.238-126.462,6.651-72.953-171.923-132.874-407.282-136.664C-85.713,1886.763-306.565,1950.526-302.292,2024.761Z" transform="translate(198.65 -1693.527)" opacity="0.4" fill="url(#radial-gradient-4)" style="mix-blend-mode: multiply;isolation: isolate"/>
          <path id="Path_17" data-name="Path 17" d="M3910.967-721.581c3.531,61.044,165.585,109.233,371.058,110.335,206.914,1.109,367.919-45.457,373.643-108.069,5.683-62.342-146.917-113.548-348.043-116.786C4096.044-839.507,3907.316-785.019,3910.967-721.581Z" transform="translate(-2569.564 749.093)" opacity="0.15" fill="url(#radial-gradient-3)" style="mix-blend-mode: screen;isolation: isolate"/>
          <path id="Path_18" data-name="Path 18" d="M4854.8,1759.019c.829,14.339,38.9,25.659,87.163,25.918,48.6.26,86.425-10.678,87.77-25.385,1.334-14.644-34.511-26.673-81.756-27.433C4898.274,1731.317,4853.942,1744.117,4854.8,1759.019Z" transform="translate(-3189.711 -1551.556)" opacity="0.15" fill="url(#radial-gradient-10)" style="mix-blend-mode: screen;isolation: isolate"/>
          <path id="Path_19" data-name="Path 19" d="M3770.693,2487.877c1.109,19.168,52,34.3,116.515,34.646,64.973.348,115.53-14.274,117.327-33.934,1.784-19.576-46.133-35.655-109.288-36.672C3828.809,2450.847,3769.547,2467.957,3770.693,2487.877Z" transform="translate(-2477.425 -2196.323)" opacity="0.1" fill="url(#radial-gradient-10)" style="mix-blend-mode: screen;isolation: isolate"/>
          <path id="Path_20" data-name="Path 20" d="M5014.711,697.771c.638,11.032,29.924,19.74,67.057,19.939,37.394.2,66.49-8.215,67.524-19.53,1.027-11.266-26.551-20.52-62.9-21.105C5048.158,676.46,5014.051,686.307,5014.711,697.771Z" transform="translate(-3294.778 -606.483)" opacity="0.1" fill="url(#radial-gradient-10)" style="mix-blend-mode: screen;isolation: isolate"/>
          <path id="Path_21" data-name="Path 21" d="M1589.782,821.931c1.063,18.381,49.86,32.892,111.731,33.224,62.3.334,110.786-13.688,112.509-32.541,1.711-18.772-44.239-34.191-104.8-35.166C1645.511,786.422,1588.682,802.829,1589.782,821.931Z" transform="translate(-1044.516 -705.336)" opacity="0.07" fill="url(#radial-gradient-10)" style="mix-blend-mode: screen;isolation: isolate"/>
          <path id="Path_22" data-name="Path 22" d="M2624.793,2288c.261,4.509,12.23,8.068,27.407,8.149,15.283.082,27.175-3.357,27.6-7.982.419-4.6-10.852-8.387-25.707-8.626C2638.463,2279.29,2624.524,2283.314,2624.793,2288Z" transform="translate(-1724.55 -2041.947)" opacity="0.07" fill="url(#radial-gradient-10)" style="mix-blend-mode: screen;isolation: isolate"/>
          <path id="Path_23" data-name="Path 23" d="M86.825,1885.075c1.948,33.69,91.386,60.285,204.785,60.893,114.195.612,203.053-25.088,206.211-59.642,3.137-34.406-81.083-62.667-192.083-64.454C188.969,1819.992,84.81,1850.064,86.825,1885.075Z" transform="translate(-57.03 -1631.913)" opacity="0.07" fill="url(#radial-gradient-10)" style="mix-blend-mode: screen;isolation: isolate"/>
          <path id="Path_24" data-name="Path 24" d="M708.878,164.1c1,17.34,47.035,31.028,105.4,31.341,58.774.315,104.508-12.912,106.134-30.7,1.614-17.708-41.732-32.254-98.862-33.174C761.45,130.606,707.841,146.084,708.878,164.1Z" transform="translate(-465.742 -117.823)" opacity="0.1" fill="url(#radial-gradient-10)" style="mix-blend-mode: screen;isolation: isolate"/>
        </g>
      </g>
    </g>
    <g id="Group_1142" data-name="Group 1142" transform="translate(688.923 53.495)" opacity="0.4">
      <path id="Path_4518" data-name="Path 4518" d="M804.756,37.02l-.338-.2L38.1,192.4l.861.524-.117.07.35.072.025.014.025-.005L622.92,311.932h4.467l-29.173-5.941,67.357-13.7L732.928,306l-29.15,5.933h4.467l26.917-5.478,26.911,5.478h4.465L737.395,306l67.361-13.71L872.115,306l-29.142,5.933h4.467l26.908-5.478,26.917,5.478h4.469L876.582,306l67.357-13.713,67.359,13.7-29.173,5.941h4.465l282.592-57.544v-.91l-46.879,9.546-67.355-13.694,67.357-13.712,46.877,9.527v-.909l-44.643-9.074,44.643-9.089v-.909l-46.879,9.543-67.357-13.69,67.359-13.708,46.877,9.525v-.909l-44.643-9.071,44.643-9.086v-.91L1222.3,206.4l-67.355-13.687,67.357-13.7,46.877,9.522v-.908l-44.643-9.069,44.643-9.083v-.91L1222.3,178.1l-67.357-13.682,67.359-13.7,46.877,9.52v-.908l-44.643-9.067,44.643-9.081v-.909l-46.879,9.536-67.357-13.68,67.359-13.7,46.877,9.518v-.908L805.091,36.815ZM735.163,51.784l67.357,13.68L735.163,79.142,667.809,65.459Zm69.593,126.35L737.4,164.441l67.355-13.69,67.355,13.69Zm69.591-13.239,67.355,13.69-67.355,13.7-67.355-13.694ZM802.52,178.589l-67.357,13.694-67.355-13.7,67.355-13.69Zm-67.357-14.6-67.355-13.694,67.355-13.686L802.52,150.3Zm-2.235.454-67.355,13.69-67.355-13.7,67.355-13.686Zm-69.591,14.145-67.357,13.69-67.355-13.7,67.355-13.686Zm-69.59,14.144L526.39,206.42l-67.355-13.705,67.355-13.686Zm2.233.454,67.357,13.7L595.98,220.579l-67.355-13.7Zm2.235-.454,67.357-13.69,67.357,13.7-67.357,13.695Zm136.948.462,67.357,13.7-67.357,13.7-67.357-13.7Zm2.238-.455,67.355-13.693,67.355,13.693-67.355,13.7Zm136.945.455L941.7,206.886l-67.357,13.7-67.355-13.7Zm2.235-.455,67.355-13.7,67.357,13.69-67.355,13.7Zm67.355-14.606-67.355-13.69,67.357-13.694,67.353,13.686Zm-69.59-14.144L806.992,150.3l67.355-13.69L941.7,150.292Zm-69.591-14.144L737.4,136.152l67.357-13.687,67.355,13.687ZM735.163,135.7l-67.355-13.69,67.355-13.682,67.355,13.687Zm-2.235.454-67.355,13.686-67.355-13.694,67.353-13.682Zm-69.591,14.141-67.355,13.686-67.357-13.7L595.98,136.6Zm-69.59,14.141L526.39,178.119l-67.357-13.7,67.357-13.683Zm-69.593,14.141L456.8,192.26l-67.357-13.7L456.8,164.873Zm-69.59,14.141L387.207,206.4,319.85,192.692l67.357-13.682Zm2.234.455,67.359,13.7L456.8,220.564l-67.357-13.709Zm69.592,14.159,67.357,13.7L526.39,234.727l-67.355-13.708Zm69.591,14.159,67.357,13.705-67.357,13.7-67.355-13.708Zm2.235-.454,67.357-13.694,67.355,13.7-67.355,13.7Zm136.948.462,67.357,13.7-67.357,13.7-67.357-13.7Zm2.234-.454,67.359-13.7,67.357,13.7-67.357,13.7Zm136.95.454,67.357,13.7-67.357,13.7L806.99,235.2Zm2.235-.454,67.357-13.7,67.357,13.694-67.357,13.7Zm136.948.447,67.357,13.695-67.357,13.708-67.355-13.7Zm0-.908-67.355-13.694,67.355-13.7,67.357,13.69Zm0-28.3-67.357-13.69,67.357-13.7,67.357,13.686Zm0-28.3-67.353-13.686L1013.53,136.6l67.355,13.683Zm-69.59-14.141-67.353-13.686,67.355-13.69,67.355,13.682Zm-69.59-14.14-67.355-13.686,67.355-13.687L941.7,122.007Zm-69.591-14.141L737.4,107.87l67.355-13.682,67.355,13.682Zm-69.59-14.14L667.809,93.729l67.355-13.68L802.52,93.734Zm-2.236.454-67.357,13.682-67.355-13.69,67.355-13.68Zm-69.592,14.137L595.982,135.69,528.625,122l67.355-13.679Zm-69.59,14.137-67.355,13.682-67.357-13.7,67.353-13.679Zm-69.591,14.137L456.8,163.964l-67.357-13.7L456.8,136.583Zm-69.593,14.137L387.209,178.1,319.85,164.4l67.355-13.68Zm-69.59,14.137-67.355,13.682-67.361-13.708,67.357-13.68Zm-69.593,14.137-67.355,13.683-67.359-13.713,67.355-13.679Zm2.234.454,67.357,13.709-67.355,13.686L250.259,206.83Zm69.593,14.163,67.357,13.708-67.357,13.69L319.85,221ZM456.8,221.473l67.357,13.708L456.8,248.876l-67.355-13.712Zm69.592,14.163,67.357,13.708-67.359,13.7-67.355-13.712ZM595.98,249.8l67.359,13.709-67.359,13.7L528.621,263.5Zm2.235-.454,67.357-13.7,67.357,13.705-67.357,13.7Zm136.948.462,67.359,13.7-67.359,13.7-67.357-13.708Zm2.236-.454,67.357-13.7,67.357,13.7-67.357,13.7Zm136.947.454,67.357,13.7-67.357,13.708-67.357-13.7Zm2.233-.454,67.359-13.705,67.357,13.7-67.359,13.709Zm136.95.447,67.359,13.7L1013.53,277.21l-67.357-13.7Zm2.234-.455,67.359-13.708,67.357,13.695-67.357,13.712Zm67.357-14.617-67.355-13.694,67.357-13.7,67.355,13.69Zm0-28.308-67.355-13.69,67.357-13.7,67.355,13.687Zm0-28.3-67.355-13.687,67.355-13.7,67.357,13.683Zm0-28.292-67.355-13.682,67.359-13.695,67.353,13.679Zm-69.591-14.137-67.355-13.682,67.357-13.691L1080.885,122Zm-69.59-14.137-67.355-13.682,67.357-13.687,67.355,13.68Zm-69.593-14.137L806.99,93.734,874.347,80.05,941.7,93.729ZM804.756,93.279,737.4,79.6l67.357-13.679L872.111,79.6ZM665.573,65.913,732.93,79.6l-67.355,13.68L598.218,79.589ZM595.98,80.043l67.357,13.687-67.355,13.679-67.357-13.69Zm-69.593,14.13,67.357,13.69-67.353,13.679-67.357-13.694ZM456.8,108.3,524.154,122,456.8,135.675l-67.359-13.7Zm-69.591,14.129,67.357,13.7-67.355,13.68-67.359-13.7Zm-69.593,14.13,67.357,13.7-67.353,13.679-67.359-13.7ZM248.022,150.69,315.381,164.4l-67.355,13.679-67.359-13.708Zm-69.593,14.13,67.361,13.709-67.355,13.679-67.359-13.713Zm-136.945,27.8,67.355-13.675L176.2,192.662l-67.355,13.679ZM111.076,206.8l67.355-13.679,67.359,13.713-67.355,13.682Zm69.593,14.171,67.355-13.683L315.381,221l-67.355,13.686Zm69.59,14.171,67.355-13.687,67.359,13.713-67.357,13.69Zm69.59,14.171,67.357-13.69,67.357,13.712-67.357,13.694Zm69.59,14.171L456.8,249.785,524.154,263.5l-67.357,13.7Zm69.591,14.171,67.357-13.7,67.359,13.713-67.322,13.695.035.022Zm137.152,27.845.207.125-67.766-13.8,67.357-13.7,67.357,13.712Zm2.031-27.83,67.359-13.7,67.357,13.708-67.359,13.705Zm136.947,27.879L667.8,291.831l67.359-13.7,67.359,13.708Zm2.236-27.872,67.359-13.7,67.357,13.7L804.756,291.38Zm136.952,27.872L806.99,291.835l67.357-13.708,67.359,13.7Zm69.59-14.167L876.58,277.671l67.357-13.708,67.359,13.7Zm69.181,14.243.207-.125-67.153-13.664,67.355-13.712,67.359,13.7Zm69.93-14.24.037-.022-67.322-13.695,67.357-13.713,67.357,13.7Zm137.019-27.9-67.357,13.716-67.355-13.7,67.355-13.713Zm0-28.315-67.357,13.712-67.357-13.694,67.357-13.708Zm0-28.308-67.359,13.709-67.355-13.69,67.357-13.7Zm0-28.3-67.357,13.7-67.355-13.687,67.355-13.7Zm0-28.294-67.359,13.7-67.357-13.682,67.359-13.7Zm0-28.285-67.357,13.7L1085.356,122l67.357-13.694Zm-69.593-14.13-67.355,13.694-67.355-13.679,67.357-13.69Zm-69.59-14.13-67.357,13.69L946.173,93.729l67.357-13.687Zm-69.592-14.129L943.937,93.276,876.582,79.6l67.355-13.683ZM941.7,65.459,874.347,79.142,806.992,65.464l67.355-13.68Zm-136.948-.45L737.4,51.33l67.357-13.676L872.111,51.33Z" transform="translate(-38.105 -36.815)" opacity="0.5" fill="url(#linear-gradient)" style="mix-blend-mode: screen;isolation: isolate"/>
    </g>
  </g>
</svg>
