<svg xmlns="http://www.w3.org/2000/svg" width="41" height="41" viewBox="0 0 41 41">
  <g id="Group_21577" data-name="Group 21577" transform="translate(-1495 -7010)">
    <circle id="Ellipse_9200" data-name="Ellipse 9200" cx="20.5" cy="20.5" r="20.5" transform="translate(1495 7010)" fill="#e9666b"/>
    <g id="Group_21445" data-name="Group 21445" transform="translate(1250.796 6826.965)">
      <path id="Path_41451" data-name="Path 41451" d="M269.552,212.683H259.5a10.014,10.014,0,0,1-1.045-.227,4.656,4.656,0,0,1-3.25-4.465c-.008-3.082,0-6.164,0-9.246a4.469,4.469,0,0,1,.621-2.344A4.6,4.6,0,0,1,260,194.039q4.476-.009,8.953,0a5.543,5.543,0,0,1,.977.071A4.544,4.544,0,0,1,273.509,197a9.3,9.3,0,0,1,.34,1.332v10.051c-.023.125-.045.249-.068.374a4.567,4.567,0,0,1-2.916,3.59A9.39,9.39,0,0,1,269.552,212.683Zm-10.78-9.33h-.013c0,.655,0,1.31,0,1.966a6.706,6.706,0,0,0,.051.779,3.575,3.575,0,0,0,3.325,3.014c1.492.03,2.984.016,4.476.016a4.514,4.514,0,0,0,.6-.049,3.657,3.657,0,0,0,3.1-3.436c.025-.982.009-1.966.01-2.948,0-.486-.2-.693-.691-.713-.266-.011-.533-.023-.8-.041a.577.577,0,0,1-.585-.475c-.032-.142-.057-.285-.081-.428a5.158,5.158,0,0,0-.28-1.31,3.708,3.708,0,0,0-1.351-1.561,3.1,3.1,0,0,0-1.912-.581c-.684.027-1.371,0-2.056.008a6.486,6.486,0,0,0-.761.05,3.583,3.583,0,0,0-3.033,3.326C258.754,201.763,258.772,202.558,258.772,203.353Z" transform="translate(0 0)" fill="#fff"/>
      <path id="Path_41452" data-name="Path 41452" d="M289.744,247.339c-.685,0-1.37,0-2.054,0a.732.732,0,0,1-.4-1.342.864.864,0,0,1,.425-.126q2.036-.014,4.072,0a.736.736,0,1,1-.025,1.473C291.089,247.342,290.416,247.34,289.744,247.339Z" transform="translate(-25.228 -41.171)" fill="#fff"/>
      <path id="Path_41453" data-name="Path 41453" d="M288.686,225.718c.334,0,.667,0,1,0a.663.663,0,1,1,.022,1.322c-.7.009-1.4.012-2.092-.005a.652.652,0,0,1-.63-.841.676.676,0,0,1,.645-.473c.352-.008.7,0,1.055,0Z" transform="translate(-25.224 -25.167)" fill="#fff"/>
    </g>
  </g>
</svg>
