<svg xmlns="http://www.w3.org/2000/svg" width="41" height="41" viewBox="0 0 41 41">
  <g id="Group_48750" data-name="Group 48750" transform="translate(-1357 -6192)">
    <circle id="Ellipse_9239" data-name="Ellipse 9239" cx="20.5" cy="20.5" r="20.5" transform="translate(1357 6192)" fill="#e9666b"/>
    <path id="Path_42867" data-name="Path 42867" d="M13.986,0H1.856A1.86,1.86,0,0,0,0,1.865V14.1a1.86,1.86,0,0,0,1.856,1.865H12.121l-.48-1.675L12.8,15.371l1.1,1.014,1.946,1.72V1.865A1.86,1.86,0,0,0,13.986,0ZM10.492,11.823s-.326-.389-.6-.733a2.857,2.857,0,0,0,1.639-1.077,5.174,5.174,0,0,1-1.041.534,5.957,5.957,0,0,1-1.313.389,6.342,6.342,0,0,1-2.345-.009A7.6,7.6,0,0,1,5.5,10.537a5.312,5.312,0,0,1-.661-.308c-.027-.018-.054-.027-.081-.045a.125.125,0,0,1-.036-.027C4.562,10.066,4.472,10,4.472,10a2.815,2.815,0,0,0,1.584,1.068c-.272.344-.607.751-.607.751a3.282,3.282,0,0,1-2.761-1.376,12.123,12.123,0,0,1,1.3-5.278,4.476,4.476,0,0,1,2.544-.951l.091.109A6.106,6.106,0,0,0,4.246,5.513s.2-.109.534-.263a6.8,6.8,0,0,1,2.055-.57.887.887,0,0,1,.154-.018,7.66,7.66,0,0,1,1.829-.018,7.379,7.379,0,0,1,2.725.869,6.025,6.025,0,0,0-2.254-1.15l.127-.145a4.476,4.476,0,0,1,2.544.951,12.122,12.122,0,0,1,1.3,5.278,3.309,3.309,0,0,1-2.77,1.376ZM6.282,7.6a1.008,1.008,0,0,0,0,2.01.964.964,0,0,0,.923-1,.959.959,0,0,0-.923-1m3.3,0a1.008,1.008,0,1,0,.923,1,.964.964,0,0,0-.923-1" transform="translate(1370 6203)" fill="#fff"/>
  </g>
</svg>
