<svg xmlns="http://www.w3.org/2000/svg" width="15.6" height="17.828" viewBox="0 0 15.6 17.828">
  <path id="Icon_awesome-calendar-alt" data-name="Icon awesome-calendar-alt" d="M0,16.157a1.672,1.672,0,0,0,1.671,1.671H13.928A1.672,1.672,0,0,0,15.6,16.157V6.686H0ZM11.143,9.332a.419.419,0,0,1,.418-.418h1.393a.419.419,0,0,1,.418.418v1.393a.419.419,0,0,1-.418.418H11.56a.419.419,0,0,1-.418-.418Zm0,4.457a.419.419,0,0,1,.418-.418h1.393a.419.419,0,0,1,.418.418v1.393a.419.419,0,0,1-.418.418H11.56a.419.419,0,0,1-.418-.418ZM6.686,9.332A.419.419,0,0,1,7.1,8.914H8.5a.419.419,0,0,1,.418.418v1.393a.419.419,0,0,1-.418.418H7.1a.419.419,0,0,1-.418-.418Zm0,4.457a.419.419,0,0,1,.418-.418H8.5a.419.419,0,0,1,.418.418v1.393A.419.419,0,0,1,8.5,15.6H7.1a.419.419,0,0,1-.418-.418ZM2.229,9.332a.419.419,0,0,1,.418-.418H4.039a.419.419,0,0,1,.418.418v1.393a.419.419,0,0,1-.418.418H2.646a.419.419,0,0,1-.418-.418Zm0,4.457a.419.419,0,0,1,.418-.418H4.039a.419.419,0,0,1,.418.418v1.393a.419.419,0,0,1-.418.418H2.646a.419.419,0,0,1-.418-.418Zm11.7-11.56H12.257V.557A.559.559,0,0,0,11.7,0H10.585a.559.559,0,0,0-.557.557V2.229H5.571V.557A.559.559,0,0,0,5.014,0H3.9a.559.559,0,0,0-.557.557V2.229H1.671A1.672,1.672,0,0,0,0,3.9V5.571H15.6V3.9A1.672,1.672,0,0,0,13.928,2.229Z" fill="#fe5c63"/>
</svg>
