<svg id="Group_21636" data-name="Group 21636" xmlns="http://www.w3.org/2000/svg" width="23.325" height="20" viewBox="0 0 23.325 20">
  <path id="Path_4525" data-name="Path 4525" d="M784.764,367.441c0-.763,0-1.483,0-2.2a.625.625,0,0,1,.362-.659.61.61,0,0,1,.725.193q1.9,1.9,3.8,3.792c.036.036.066.076.108.125-.046.052-.082.1-.124.14q-1.89,1.887-3.784,3.771a.919.919,0,0,1-.366.233.584.584,0,0,1-.717-.609c-.006-.668,0-1.336,0-2v-.249a5.1,5.1,0,0,0-4.588,1.415,4.356,4.356,0,0,0-.972,4.684,4.418,4.418,0,0,0,3.717,2.989,5.052,5.052,0,0,0,.6.044,1.25,1.25,0,1,1-.018,2.5,7.079,7.079,0,0,1-1.811-13.925,9.01,9.01,0,0,1,2.586-.239C784.429,367.443,784.584,367.441,784.764,367.441Z" transform="translate(-776.421 -364.526)" fill="#fff"/>
  <path id="Path_4526" data-name="Path 4526" d="M830.338,390.408a5.29,5.29,0,0,0,4.215-1.066,4.579,4.579,0,0,0-2.354-8.024,5.058,5.058,0,0,0-.623-.047,1.25,1.25,0,1,1,.032-2.5,7.08,7.08,0,0,1,1.6,13.977,10.431,10.431,0,0,1-2.541.186h-.326v.334q0,.976,0,1.953a.578.578,0,0,1-.366.577.552.552,0,0,1-.647-.13c-1.324-1.316-2.645-2.636-3.977-3.964a1.025,1.025,0,0,1,.091-.126q1.917-1.916,3.835-3.83a.6.6,0,0,1,1.065.436c0,.1,0,.191,0,.286Z" transform="translate(-815.353 -375.851)" fill="#fff"/>
</svg>
