<svg xmlns="http://www.w3.org/2000/svg" width="60" height="60" viewBox="0 0 60 60">
  <g id="Group_21609" data-name="Group 21609" transform="translate(-455 -200)">
    <rect id="Rectangle_30" data-name="Rectangle 30" width="60" height="60" rx="10" transform="translate(455 200)" fill="#3cc99a"/>
    <g id="Group_25" data-name="Group 25" transform="translate(7593.775 -789.029)">
      <path id="Path_24" data-name="Path 24" d="M-7120.448,1026.5c-.546,0-1.042,0-1.537,0a2.811,2.811,0,0,1-2.788-2.8q-.007-6.93,0-13.859a2.8,2.8,0,0,1,2.789-2.8q11.271-.006,22.543,0a2.806,2.806,0,0,1,2.784,2.773c0,.5,0,1.009,0,1.552.5,0,.966,0,1.436,0a2.808,2.808,0,0,1,2.89,2.872q0,6.862,0,13.724a2.806,2.806,0,0,1-2.856,2.872q-11.2,0-22.407,0a2.811,2.811,0,0,1-2.854-2.842C-7120.45,1027.5-7120.448,1027.019-7120.448,1026.5Zm9.759-17.308h-11.017c-.688,0-.907.221-.907.914q0,6.658,0,13.317c0,.693.22.915.907.915h21.966c.709,0,.924-.217.924-.932q0-6.642,0-13.283c0-.715-.214-.932-.923-.932Zm-7.6,17.308v1.2c0,.765.2.969.955.969h21.895c.739,0,.949-.208.949-.941v-13.281a2.42,2.42,0,0,0-.007-.3.656.656,0,0,0-.62-.61c-.5-.023-1.006-.006-1.539-.006v.429q0,4.782,0,9.563a2.816,2.816,0,0,1-2.981,2.984h-18.65Z" transform="translate(0)" fill="#fff"/>
      <path id="Path_25" data-name="Path 25" d="M-7012.615,1066.941a4.314,4.314,0,0,1,4.312,4.347,4.318,4.318,0,0,1-4.355,4.3,4.32,4.32,0,0,1-4.295-4.364A4.319,4.319,0,0,1-7012.615,1066.941Zm2.149,4.336a2.189,2.189,0,0,0-2.135-2.173,2.189,2.189,0,0,0-2.19,2.152,2.191,2.191,0,0,0,2.169,2.174A2.19,2.19,0,0,0-7010.465,1071.277Z" transform="translate(-98.087 -54.502)" fill="#fff"/>
      <path id="Path_26" data-name="Path 26" d="M-7074.693,1082.716c0,.879,0,1.758,0,2.637a1.071,1.071,0,0,1-1.071,1.14,1.07,1.07,0,0,1-1.087-1.124q0-2.653,0-5.307a1.067,1.067,0,0,1,1.071-1.138,1.073,1.073,0,0,1,1.088,1.156C-7074.692,1080.958-7074.693,1081.837-7074.693,1082.716Z" transform="translate(-43.594 -65.402)" fill="#fff"/>
      <path id="Path_27" data-name="Path 27" d="M-6883.038,1082.708c0,.878,0,1.757,0,2.635a1.078,1.078,0,0,1-1.1,1.148,1.083,1.083,0,0,1-1.062-1.151q0-2.635,0-5.27a1.078,1.078,0,0,1,1.064-1.147,1.077,1.077,0,0,1,1.1,1.15C-6883.037,1080.951-6883.038,1081.83-6883.038,1082.708Z" transform="translate(-217.943 -65.401)" fill="#fff"/>
    </g>
  </g>
</svg>
