<svg xmlns="http://www.w3.org/2000/svg" width="41" height="41" viewBox="0 0 41 41">
  <g id="Group_21578" data-name="Group 21578" transform="translate(-1547 -7010)">
    <circle id="Ellipse_9201" data-name="Ellipse 9201" cx="20.5" cy="20.5" r="20.5" transform="translate(1547 7010)" fill="#e9666b"/>
    <path id="Path_41450" data-name="Path 41450" d="M70.8,193.89H88.258a.626.626,0,0,1,.359.628q-.014,7.838-.007,15.676v.213H82.621c-.038,0-.075,0-.113,0a.435.435,0,0,1-.42-.385,2.145,2.145,0,0,1-.022-.289c0-.79,0-1.58-.007-2.37a1.655,1.655,0,0,0-.236-.933c-.12-.177-.231-.36-.346-.541l.143-.027a9.721,9.721,0,0,0,1.877-.442,3.347,3.347,0,0,0,1.6-1.129,3.445,3.445,0,0,0,.385-.659,6.756,6.756,0,0,0,.414-1.181,3.689,3.689,0,0,0-.125-1.962,3.947,3.947,0,0,0-.59-1.05.662.662,0,0,1-.173-.592,3.128,3.128,0,0,0-.094-1.885.309.309,0,0,0-.326-.228,3.187,3.187,0,0,0-.511.053,6.916,6.916,0,0,0-1.727.724.817.817,0,0,1-.528.082c-.238-.043-.475-.087-.714-.123a10.5,10.5,0,0,0-3.718.119.681.681,0,0,1-.453-.047c-.419-.2-.833-.42-1.268-.579a7.7,7.7,0,0,0-1.061-.25.206.206,0,0,0-.255.12,3.435,3.435,0,0,0-.175.46,2.322,2.322,0,0,0-.022,1.384c.151.4-.07.593-.241.857a3.157,3.157,0,0,0-.455.831,4.467,4.467,0,0,0,.5,3.729,3.049,3.049,0,0,0,.862.87,5.086,5.086,0,0,0,2.042.778l.837.147a4.52,4.52,0,0,0-.411.766.731.731,0,0,1-.6.571,2.131,2.131,0,0,1-2.332-.773,4.786,4.786,0,0,0-.6-.638,1.5,1.5,0,0,0-1.147-.37,1.257,1.257,0,0,0-.3.11c.069.1.139.2.209.3,0,.007.02.006.029.011a2.715,2.715,0,0,1,1.069,1.072c.124.217.241.438.381.645a1.734,1.734,0,0,0,.883.634,3.7,3.7,0,0,0,1.573.167c.214-.016.428-.022.643-.033,0,.593.009,1.177-.01,1.761,0,.085-.128.191-.222.24a.737.737,0,0,1-.33.053q-2.75,0-5.5,0c-.416,0-.582-.167-.582-.583q0-7.652-.007-15.3A.626.626,0,0,1,70.8,193.89Z" transform="translate(1487.556 6828.11)" fill="#fff"/>
  </g>
</svg>
