<svg xmlns="http://www.w3.org/2000/svg" width="178.631" height="54.84" viewBox="0 0 178.631 54.84">
  <g id="Group_48980" data-name="Group 48980" transform="translate(-769.4 -738.75)">
    <path id="Path_109915" data-name="Path 109915" d="M975.33,806.013a9.713,9.713,0,0,1,9.348-10.063h.387c4.942,0,7.86,2.888,8.723,6.282l-3.1,1.042a5.359,5.359,0,0,0-5.627-4.228c-3.185,0-6.4,2.322-6.4,7.026s3.126,6.937,6.431,6.937a5.855,5.855,0,0,0,5.776-4.257l3.007.982a8.689,8.689,0,0,1-8.812,6.4,9.582,9.582,0,0,1-9.765-9.408,5.724,5.724,0,0,1,.03-.715" transform="translate(-144.6 -40.171)" fill="#fff"/>
    <path id="Path_109916" data-name="Path 109916" d="M1050.245,815.548H1047v-19.8h3.245v7.77a4.692,4.692,0,0,1,3.781-1.667c3.275,0,4.882,2.352,4.882,5.27v8.425h-3.156v-7.89a2.58,2.58,0,0,0-2.173-2.918h0a1.8,1.8,0,0,0-.566,0,2.783,2.783,0,0,0-2.769,2.769v8.038Z" transform="translate(-194.953 -40.03)" fill="#fff"/>
    <path id="Path_109917" data-name="Path 109917" d="M1101.118,822.183l3.424-.536c.774-.089.983-.506.983-.953,0-1.131-.744-2.025-2.531-2.025a2.547,2.547,0,0,0-2.739,2.263v.119l-2.888-.655c.238-2.292,2.322-4.347,5.6-4.347,4.109,0,5.657,2.322,5.657,5.032v6.609a10.426,10.426,0,0,0,.179,2.143h-2.948a6.525,6.525,0,0,1-.119-1.7,4.719,4.719,0,0,1-4.109,2.114,4.21,4.21,0,0,1-4.525-3.781v-.208c-.03-2.471,1.727-3.751,4.019-4.079m4.376,2.144v-.6l-3.483.506a1.858,1.858,0,0,0-1.786,1.816,1.723,1.723,0,0,0,1.786,1.727h.149a3.024,3.024,0,0,0,3.365-2.68v-.06a1.458,1.458,0,0,0-.03-.714Z" transform="translate(-230.137 -54.286)" fill="#fff"/>
    <path id="Path_109918" data-name="Path 109918" d="M1149.123,794.85a2.069,2.069,0,1,1-2.025,2.084,2.022,2.022,0,0,1,2.025-2.084m-1.548,20.126V801.608h3.186v13.308Z" transform="translate(-265.25 -39.398)" fill="#fff"/>
    <path id="Path_109919" data-name="Path 109919" d="M1176.086,829.943H1172.9V816.635h3.1v1.786a4.5,4.5,0,0,1,3.93-2.173c3.245,0,4.793,2.352,4.793,5.27v8.425h-3.156v-7.89c0-1.637-.744-2.947-2.739-2.947a2.821,2.821,0,0,0-2.8,2.828v.328Z" transform="translate(-283.371 -54.425)" fill="#fff"/>
    <rect id="Rectangle_13524" data-name="Rectangle 13524" width="3.156" height="19.798" transform="translate(905.249 755.72)" fill="#fff"/>
    <path id="Path_109920" data-name="Path 109920" d="M1250.554,794.85a2.069,2.069,0,1,1-2.054,2.084v-.03a2.04,2.04,0,0,1,2.054-2.054m-1.578,20.126V801.608h3.156v13.308Z" transform="translate(-336.463 -39.398)" fill="#fff"/>
    <path id="Path_109921" data-name="Path 109921" d="M1277.656,829.943H1274.5V816.635h3.1v1.786a4.5,4.5,0,0,1,3.93-2.173c3.245,0,4.823,2.352,4.823,5.27v8.425h-3.156v-7.89a2.58,2.58,0,0,0-2.173-2.918h0a1.8,1.8,0,0,0-.566,0,2.751,2.751,0,0,0-2.769,2.8v.328Z" transform="translate(-354.722 -54.425)" fill="#fff"/>
    <path id="Path_109922" data-name="Path 109922" d="M1334.1,807.837l5.6,7.711h-3.9l-3.9-5.508-1.638,1.727v3.781H1327.1v-19.8h3.156V807.6l5.121-5.359h4.2Z" transform="translate(-391.662 -40.03)" fill="#fff"/>
    <path id="Path_109923" data-name="Path 109923" d="M793.158,750.361l13.725,7.89v15.809l-13.665,7.919-13.725-7.8V758.31Zm0-11.611-5.031,2.918-13.7,7.949-5.031,2.918v27.42l5.031,2.888,13.725,7.86,5.031,2.888,5.031-2.918,13.665-7.949,5.031-2.918v-27.45l-5.031-2.888-13.725-7.89-5-2.828Z" transform="translate(0 0)" fill="#fff"/>
  </g>
</svg>
