<svg xmlns="http://www.w3.org/2000/svg" width="26.284" height="26.278" viewBox="0 0 26.284 26.278">
  <path id="Path_109874" data-name="Path 109874" d="M155.7,115.015a13.139,13.139,0,1,1,13.138-13.167A13.163,13.163,0,0,1,155.7,115.015Zm0-14.84c-.086-.082-.161-.148-.232-.22q-1.554-1.552-3.106-3.106a1.187,1.187,0,0,0-1.142-.376,1.141,1.141,0,0,0-.9.828,1.166,1.166,0,0,0,.339,1.226l3.125,3.127c.07.07.138.144.258.269a2.329,2.329,0,0,0-.272.2q-1.537,1.531-3.068,3.066a1.2,1.2,0,1,0,1.675,1.7c1.033-1.025,2.058-2.057,3.087-3.086.072-.07.146-.138.231-.218.079.073.149.132.213.2q.942.94,1.879,1.879c.436.435.866.877,1.309,1.3a1.193,1.193,0,0,0,2.006-.617,1.22,1.22,0,0,0-.405-1.16q-1.546-1.539-3.087-3.086c-.07-.07-.137-.144-.241-.252.1-.083.187-.141.259-.213q1.535-1.531,3.069-3.065a1.218,1.218,0,0,0,.405-1.159,1.138,1.138,0,0,0-.818-.908,1.159,1.159,0,0,0-1.229.327q-1.565,1.561-3.127,3.125C155.859,100.028,155.784,100.094,155.7,100.176Z" transform="translate(-142.555 -88.737)" fill="#323436" opacity="0.3"/>
</svg>
