<svg xmlns="http://www.w3.org/2000/svg" width="60" height="60" viewBox="0 0 60 60">
  <g id="Group_21610" data-name="Group 21610" transform="translate(-927 -200)">
    <rect id="Rectangle_24" data-name="Rectangle 24" width="60" height="60" rx="10" transform="translate(927 200)" fill="#604aba"/>
    <g id="Group_23" data-name="Group 23" transform="translate(7303.379 -1260.742)">
      <path id="Path_17" data-name="Path 17" d="M-6356.929,1501.029c0-.187,0-.375,0-.562-.021-.722-.08-.8-.784-.985-.643-.171-1.3-.3-1.928-.514a1.686,1.686,0,0,1-1.159-2.357c.214-.628.528-1.221.795-1.831.3-.692.276-.8-.3-1.285-.493-.414-1.016-.8-1.467-1.254a1.739,1.739,0,0,1,0-2.72c.468-.472,1.011-.87,1.52-1.3s.547-.564.281-1.175c-.164-.375-.357-.737-.522-1.111a7.5,7.5,0,0,1-.327-.849,1.7,1.7,0,0,1,1.113-2.275c.6-.217,1.237-.338,1.857-.5.146-.039.291-.089.438-.125a.591.591,0,0,0,.479-.641q.016-.948.047-1.9c.047-1.44.848-2.32,2.638-1.958.562.114,1.124.225,1.681.355a.62.62,0,0,0,.777-.367c.2-.408.4-.822.613-1.222a7.533,7.533,0,0,1,.621-1.015,1.613,1.613,0,0,1,2.129-.489,10.922,10.922,0,0,1,1.248.842c.21.149.4.321.61.475.609.455.726.458,1.324.012.329-.245.638-.516.97-.755a6.285,6.285,0,0,1,.916-.585,1.6,1.6,0,0,1,2.1.488,10.743,10.743,0,0,1,.915,1.612c.561,1.141.587,1.161,1.818.873.466-.109.936-.207,1.41-.275a1.768,1.768,0,0,1,2.18,1.744c.05.689.045,1.381.07,2.071.019.516.1.637.594.771.574.156,1.157.283,1.733.43a3.469,3.469,0,0,1,.5.17,1.7,1.7,0,0,1,1.056,2.277,14.045,14.045,0,0,1-.661,1.545c-.5,1.075-.5,1.113.434,1.858a12.862,12.862,0,0,1,1.175,1,1.756,1.756,0,0,1,0,2.749c-.46.463-.995.853-1.5,1.275-.526.443-.563.574-.287,1.2.165.374.358.736.524,1.11a7.349,7.349,0,0,1,.314.817,1.7,1.7,0,0,1-1.094,2.285c-.6.222-1.236.341-1.856.507-.124.033-.249.064-.374.094a.668.668,0,0,0-.564.728c0,.609-.023,1.218-.042,1.826-.046,1.507-.9,2.334-2.657,1.969-.549-.114-1.1-.219-1.646-.349a.637.637,0,0,0-.8.382c-.2.409-.394.823-.611,1.223a7.19,7.19,0,0,1-.6.986,1.612,1.612,0,0,1-2.187.477,12.31,12.31,0,0,1-1.515-1.074c-.943-.728-1-.73-1.945.011a13.4,13.4,0,0,1-1.33.974,1.678,1.678,0,0,1-2.473-.543,17.406,17.406,0,0,1-.91-1.7c-.43-.834-.482-.859-1.39-.667-.571.121-1.143.249-1.72.335a1.764,1.764,0,0,1-2.162-1.692c-.046-.465-.054-.934-.08-1.4Zm1.553.075-.049,0c.026.409.054.817.076,1.225.013.24.139.341.368.3.54-.1,1.081-.192,1.616-.31,1.671-.37,2.412-.013,3.162,1.532.2.421.4.845.629,1.254.261.471.346.492.775.184s.815-.63,1.223-.946a2.3,2.3,0,0,1,3.326-.014c.251.192.492.4.742.592.166.13.333.26.507.377.423.284.509.276.755-.173.308-.564.565-1.156.88-1.716a2.088,2.088,0,0,1,2.556-1.16c.653.128,1.306.258,1.96.38.238.044.385-.048.393-.311.017-.643.039-1.286.055-1.929a2.147,2.147,0,0,1,1.805-2.333c.585-.162,1.184-.277,1.768-.441.483-.135.538-.248.344-.7-.248-.581-.545-1.14-.783-1.724a2.053,2.053,0,0,1,.6-2.679c.128-.12.266-.23.4-.342.344-.283.7-.553,1.03-.85.431-.387.427-.492-.007-.888-.233-.213-.488-.4-.729-.608-.319-.274-.653-.536-.949-.834a1.813,1.813,0,0,1-.472-2.031c.229-.611.515-1.2.78-1.8.366-.827.338-.881-.529-1.109-.666-.174-1.339-.327-1.989-.551a1.717,1.717,0,0,1-1.2-1.551c-.066-.709-.055-1.426-.081-2.138-.025-.682-.143-.777-.8-.64-.549.114-1.1.241-1.646.348a2.073,2.073,0,0,1-2.481-1.119c-.1-.171-.192-.349-.28-.526-.167-.335-.322-.676-.495-1.008-.374-.719-.462-.74-1.1-.257-.4.3-.785.632-1.194.926a2.16,2.16,0,0,1-3.008-.006c-.456-.329-.884-.7-1.337-1.026-.472-.344-.574-.323-.85.189-.294.545-.539,1.117-.843,1.657a2.084,2.084,0,0,1-2.555,1.16c-.653-.126-1.306-.257-1.959-.379-.239-.045-.386.048-.394.31-.018.643-.038,1.286-.055,1.929a2.143,2.143,0,0,1-1.8,2.334c-.574.159-1.16.272-1.734.43-.524.144-.576.252-.365.746.249.58.549,1.139.784,1.724a2.037,2.037,0,0,1-.588,2.623c-.127.121-.265.231-.4.343-.369.307-.75.6-1.1.924-.374.339-.364.432.006.788.16.154.334.294.5.438.393.334.8.647,1.175,1a1.847,1.847,0,0,1,.511,2.115c-.232.61-.519,1.2-.783,1.8-.349.79-.317.857.507,1.068.622.159,1.252.293,1.863.487a1.862,1.862,0,0,1,1.371,1.692C-6355.419,1500.286-6355.4,1500.7-6355.376,1501.1Z" transform="translate(0 0)" fill="#fff" stroke="#fff" stroke-width="1"/>
      <path id="Path_18" data-name="Path 18" d="M-6320.9,1504.1a3.222,3.222,0,0,1-.387.554q-3.491,3.514-7,7.011c-1.067,1.068-2.131,2.141-3.209,3.2a1.283,1.283,0,0,1-.561.321.646.646,0,0,1-.74-.346.724.724,0,0,1,.042-.825,2.049,2.049,0,0,1,.236-.259q5.079-5.082,10.166-10.156a1.35,1.35,0,0,1,.644-.373C-6321.278,1503.141-6320.914,1503.5-6320.9,1504.1Z" transform="translate(-18.998 -18.326)" fill="#fff" stroke="#fff" stroke-width="1"/>
      <path id="Path_19" data-name="Path 19" d="M-6312.9,1525.811a2.612,2.612,0,0,1,2.634-2.623,2.641,2.641,0,0,1,2.628,2.608,2.672,2.672,0,0,1-2.63,2.655A2.644,2.644,0,0,1-6312.9,1525.811Zm3.734-.016a1.1,1.1,0,0,0-1.127-1.1,1.116,1.116,0,0,0-1.1,1.132,1.105,1.105,0,0,0,1.131,1.093A1.1,1.1,0,0,0-6309.163,1525.795Z" transform="translate(-31.878 -31.182)" fill="#fff" stroke="#fff" stroke-width="1"/>
      <path id="Path_20" data-name="Path 20" d="M-6331.368,1507.363a2.642,2.642,0,0,1-2.616-2.62,2.666,2.666,0,0,1,2.64-2.642,2.643,2.643,0,0,1,2.622,2.65A2.613,2.613,0,0,1-6331.368,1507.363Zm-1.089-2.607a1.1,1.1,0,0,0,1.126,1.1,1.112,1.112,0,0,0,1.1-1.132,1.1,1.1,0,0,0-1.131-1.092A1.1,1.1,0,0,0-6332.457,1504.756Z" transform="translate(-18.307 -17.61)" fill="#fff" stroke="#fff" stroke-width="1"/>
    </g>
  </g>
</svg>
