<svg id="Group_48788" data-name="Group 48788" xmlns="http://www.w3.org/2000/svg" width="35" height="35" viewBox="0 0 35 35">
  <circle id="Ellipse_12622" data-name="Ellipse 12622" cx="17.5" cy="17.5" r="17.5" fill="#e9666b"/>
  <g id="Group_48799" data-name="Group 48799" transform="translate(-20.439 24.61) rotate(-90)">
    <g id="Group_48798" data-name="Group 48798" transform="translate(0 31.842)">
      <g id="Group_48797" data-name="Group 48797" transform="translate(0 0)">
        <path id="Path_109879" data-name="Path 109879" d="M13.365,36.941a1.016,1.016,0,0,0-.176-.013H3.157l.219-.1a2.035,2.035,0,0,0,.575-.407l2.813-2.813a1.053,1.053,0,0,0,.148-1.348,1.017,1.017,0,0,0-1.526-.132L.3,37.213a1.017,1.017,0,0,0,0,1.439h0L5.385,43.74a1.017,1.017,0,0,0,1.526-.1,1.053,1.053,0,0,0-.148-1.348L3.956,39.472a2.035,2.035,0,0,0-.509-.371l-.305-.137h9.991a1.053,1.053,0,0,0,1.073-.855A1.017,1.017,0,0,0,13.365,36.941Z" transform="translate(0 -31.842)" fill="#fff"/>
      </g>
    </g>
  </g>
</svg>
