<svg xmlns="http://www.w3.org/2000/svg" width="37.867" height="37.9" viewBox="0 0 37.867 37.9">
  <g id="Group_45" data-name="Group 45" transform="translate(885.255 3902.947)">
    <path id="Path_70" data-name="Path 70" d="M-847.388-3842.312c-.3.211-.615.4-.893.637-1.72,1.459-3.389,2.982-5.155,4.382a22.151,22.151,0,0,1-9.169,4.411,25.429,25.429,0,0,1-7.023.426,22.024,22.024,0,0,1-6.423-1.436,1.679,1.679,0,0,0-.174-.058.346.346,0,0,0-.1.017v1.514h-8.927V-3843.5h.382c2.207,0,4.415.006,6.622-.009a.992.992,0,0,0,.582-.219,7.842,7.842,0,0,1,3.957-1.945,5.3,5.3,0,0,1,3.325.6c.731.4,1.391.923,2.092,1.377a1.06,1.06,0,0,0,.521.19c1.233.017,2.466,0,3.7.01a5.364,5.364,0,0,1,4.057,1.816.466.466,0,0,0,.57.145,6.041,6.041,0,0,0,2.2-1.248c.455-.4.918-.785,1.383-1.172a5.43,5.43,0,0,1,7.876.813c.188.236.4.453.6.679Zm-13.62,3.258a3.3,3.3,0,0,0-3.148-2.221c-1.517-.01-3.034-.006-4.551,0a.829.829,0,0,1-.585-.228,18.308,18.308,0,0,0-1.949-1.508,3.153,3.153,0,0,0-2.2-.444,5.4,5.4,0,0,0-2.746,1.425.619.619,0,0,0-.139.421c-.01,1.517-.006,3.033-.006,4.55,0,.638,0,.636.6.887a21.412,21.412,0,0,0,10.577,1.427,19.178,19.178,0,0,0,7.632-2.473,32.544,32.544,0,0,0,5.49-4.182c.446-.4.91-.778,1.37-1.17a3.14,3.14,0,0,0-3.588.188c-.477.37-.934.767-1.388,1.165a8.568,8.568,0,0,1-2.517,1.592l-.513.2.133,2.568H-869.64v-2.2h8.633Zm-22.043,4.414h4.472v-6.618h-4.472Z" transform="translate(0 -32.66)" fill="#3cc99a"/>
    <path id="Path_71" data-name="Path 71" d="M-854.183-3902.948a11.613,11.613,0,0,1,1.928.861,4.346,4.346,0,0,1,1.559,5.147,4.465,4.465,0,0,1-4.615,2.861,4.478,4.478,0,0,1-3.908-3.64,4.446,4.446,0,0,1,3.507-5.152,1.266,1.266,0,0,0,.2-.078Zm-.665,2.221a2.248,2.248,0,0,0-2.221,2.208,2.251,2.251,0,0,0,2.2,2.231,2.253,2.253,0,0,0,2.24-2.228A2.25,2.25,0,0,0-854.849-3900.727Z" transform="translate(-14.818 0.001)" fill="#3cc99a"/>
    <path id="Path_72" data-name="Path 72" d="M-841.191-3866.371a7.762,7.762,0,0,1-7.748-7.8,7.761,7.761,0,0,1,7.811-7.738,7.761,7.761,0,0,1,7.73,7.819A7.764,7.764,0,0,1-841.191-3866.371Zm5.575-7.753a5.583,5.583,0,0,0-5.545-5.567,5.584,5.584,0,0,0-5.56,5.516,5.586,5.586,0,0,0,5.526,5.587A5.586,5.586,0,0,0-835.616-3874.124Z" transform="translate(-20.727 -12.007)" fill="#3cc99a"/>
    <path id="Path_73" data-name="Path 73" d="M-816.414-3894.1a3.319,3.319,0,0,1-3.334,3.333,3.32,3.32,0,0,1-3.325-3.343,3.321,3.321,0,0,1,3.316-3.315A3.318,3.318,0,0,1-816.414-3894.1Zm-2.22,0a1.145,1.145,0,0,0-1.119-1.1,1.145,1.145,0,0,0-1.1,1.119,1.147,1.147,0,0,0,1.118,1.1A1.146,1.146,0,0,0-818.634-3894.107Z" transform="translate(-35.491 -3.151)" fill="#3cc99a"/>
    <path id="Path_74" data-name="Path 74" d="M-833.36-3871.525h2.173v6.61h-2.173Z" transform="translate(-29.619 -17.934)" fill="#3cc99a"/>
  </g>
</svg>
