<svg width="142" height="26" viewBox="0 0 142 26" fill="none" xmlns="http://www.w3.org/2000/svg">
<path d="M39.4799 10.1793C39.2465 9.7444 38.9086 9.4151 38.4664 9.19143C38.0364 8.95533 37.5266 8.83728 36.9369 8.83728C35.9173 8.83728 35.1003 9.17901 34.4861 9.86245C33.8719 10.5335 33.5648 11.4344 33.5648 12.5653C33.5648 13.7707 33.8841 14.7152 34.523 15.3986C35.1741 16.0696 36.0647 16.4052 37.1949 16.4052C37.9689 16.4052 38.62 16.2063 39.1482 15.8087C39.6887 15.411 40.0819 14.8394 40.3276 14.0938H36.3289V11.7451H43.1838V14.7089C42.9503 15.5042 42.5511 16.2436 41.986 16.9271C41.4332 17.6106 40.7268 18.1636 39.8669 18.5861C39.0069 19.0086 38.0364 19.2198 36.9553 19.2198C35.6778 19.2198 34.5352 18.9403 33.5279 18.3811C32.5328 17.8094 31.7527 17.0203 31.1876 16.0138C30.6348 15.0072 30.3584 13.8577 30.3584 12.5653C30.3584 11.2729 30.6348 10.1234 31.1876 9.11682C31.7527 8.09782 32.5328 7.30875 33.5279 6.74954C34.523 6.17791 35.6593 5.89209 36.9369 5.89209C38.4848 5.89209 39.787 6.27111 40.8435 7.02915C41.9123 7.78718 42.6187 8.83728 42.9627 10.1793H39.4799Z" fill="white"/>
<path d="M50.2731 8.59425V11.2412H54.4929V13.7016H50.2731V16.5722H55.0458V19.1259H47.1221V6.04053H55.0458V8.59425H50.2731Z" fill="white"/>
<path d="M68.5909 6.04053V8.59425H65.1635V19.1259H62.0124V8.59425H58.585V6.04053H68.5909Z" fill="white"/>
<path d="M80.1982 12.4155C80.9474 12.577 81.549 12.956 82.0037 13.5525C82.4583 14.1366 82.6857 14.8077 82.6857 15.5657C82.6857 16.6593 82.3044 17.5291 81.5427 18.1753C80.7935 18.809 79.7435 19.1259 78.3919 19.1259H72.3662V6.04053H78.1892C79.5036 6.04053 80.5294 6.34498 81.2669 6.9539C82.0162 7.56281 82.3904 8.38917 82.3904 9.43301C82.3904 10.2035 82.188 10.8435 81.7826 11.353C81.3896 11.8625 80.8615 12.2166 80.1982 12.4155ZM75.5173 11.3344H77.5811C78.0971 11.3344 78.4902 11.2225 78.7607 10.9988C79.0427 10.7627 79.1841 10.421 79.1841 9.97364C79.1841 9.52621 79.0427 9.18449 78.7607 8.94839C78.4902 8.7123 78.0971 8.59425 77.5811 8.59425H75.5173V11.3344ZM77.8391 16.5536C78.3674 16.5536 78.7724 16.4356 79.0552 16.1994C79.3505 15.9509 79.4974 15.5967 79.4974 15.137C79.4974 14.6771 79.3442 14.3168 79.0372 14.0558C78.7419 13.7949 78.3305 13.6644 77.8023 13.6644H75.5173V16.5536H77.8391Z" fill="white"/>
<path d="M89.8569 16.6654H93.985V19.1259H86.7061V6.04053H89.8569V16.6654Z" fill="white"/>
<path d="M103.8 19.2563C102.584 19.2563 101.466 18.9705 100.446 18.3988C99.4389 17.8273 98.6342 17.0319 98.0326 16.013C97.4428 14.9815 97.1475 13.8258 97.1475 12.5458C97.1475 11.2659 97.4428 10.1164 98.0326 9.09741C98.6342 8.07842 99.4389 7.28308 100.446 6.71145C101.466 6.13982 102.584 5.854 103.8 5.854C105.016 5.854 106.128 6.13982 107.135 6.71145C108.155 7.28308 108.954 8.07842 109.531 9.09741C110.12 10.1164 110.416 11.2659 110.416 12.5458C110.416 13.8258 110.12 14.9815 109.531 16.013C108.941 17.0319 108.143 17.8273 107.135 18.3988C106.128 18.9705 105.016 19.2563 103.8 19.2563ZM103.8 16.3484C104.832 16.3484 105.655 16.0005 106.269 15.3046C106.896 14.6087 107.209 13.6891 107.209 12.5458C107.209 11.3902 106.896 10.4706 106.269 9.78711C105.655 9.09116 104.832 8.74327 103.8 8.74327C102.756 8.74327 101.92 9.08499 101.294 9.76844C100.68 10.452 100.372 11.3777 100.372 12.5458C100.372 13.7015 100.68 14.6273 101.294 15.3233C101.92 16.0067 102.756 16.3484 103.8 16.3484Z" fill="white"/>
<path d="M113.827 12.5653C113.827 11.2729 114.103 10.1234 114.656 9.11682C115.209 8.09782 115.976 7.30875 116.959 6.74954C117.955 6.17791 119.079 5.89209 120.332 5.89209C121.867 5.89209 123.182 6.30218 124.275 7.12234C125.369 7.94252 126.099 9.06096 126.468 10.4776H123.004C122.746 9.93081 122.377 9.51448 121.898 9.2287C121.431 8.94291 120.897 8.79994 120.295 8.79994C119.324 8.79994 118.538 9.14174 117.937 9.82519C117.334 10.5086 117.033 11.422 117.033 12.5653C117.033 13.7086 117.334 14.622 117.937 15.3054C118.538 15.9888 119.324 16.3306 120.295 16.3306C120.897 16.3306 121.431 16.1877 121.898 15.9019C122.377 15.6161 122.746 15.1998 123.004 14.653H126.468C126.099 16.0696 125.369 17.1881 124.275 18.0082C123.182 18.816 121.867 19.2198 120.332 19.2198C119.079 19.2198 117.955 18.9403 116.959 18.3811C115.976 17.8094 115.209 17.0203 114.656 16.0138C114.103 15.0072 113.827 13.8577 113.827 12.5653Z" fill="white"/>
<path d="M138.093 19.1259L133.744 13.3475V19.1259H130.593V6.04053H133.744V11.7817L138.056 6.04053H141.76L136.748 12.4527L141.944 19.1259H138.093Z" fill="white"/>
<path d="M11.2875 12.5553V25.1844L0.463867 18.9987V6.36963L11.2875 12.5553Z" fill="white"/>
<path opacity="0.25" d="M11.2881 12.5553L22.1117 6.36963V18.9987L11.2881 25.1844V12.5553Z" fill="white"/>
<path opacity="0.5" d="M11.2875 0.184082L22.111 6.36976L11.2875 12.5555L0.463867 6.36976L11.2875 0.184082Z" fill="white"/>
</svg>
