<svg xmlns="http://www.w3.org/2000/svg" width="41" height="41" viewBox="0 0 41 41">
  <g id="Group_48752" data-name="Group 48752" transform="translate(-1312 -6192)">
    <circle id="Ellipse_9239" data-name="Ellipse 9239" cx="20.5" cy="20.5" r="20.5" transform="translate(1312 6192)" fill="#e9666b"/>
    <g id="Group_48751" data-name="Group 48751" transform="translate(1323 6203)">
      <path id="Path_42868" data-name="Path 42868" d="M6.08,9.5h0Zm5.218,0h0Z" transform="translate(0.877 1.196)" fill="#fff"/>
      <path id="Path_42869" data-name="Path 42869" d="M18.634,8.957a2.321,2.321,0,0,0-2.319-2.319,2.29,2.29,0,0,0-1.394.47,9.748,9.748,0,0,0-4.792-1.57L11.1,3.256l2.83.661A1.731,1.731,0,1,0,14.2,2.789l-3.308-.773a.58.58,0,0,0-.667.337L8.881,5.507a9.943,9.943,0,0,0-5.2,1.571A2.321,2.321,0,0,0,0,8.957a2.3,2.3,0,0,0,1.172,2.007q-.013.156-.013.312c0,3.2,3.641,5.8,8.117,5.8s8.117-2.6,8.117-5.8c0-.09,0-.18-.009-.269a2.3,2.3,0,0,0,1.25-2.05Zm-2.98-5.8a.581.581,0,1,1-.582.58.581.581,0,0,1,.582-.58ZM5.218,10.7a1.161,1.161,0,1,1,1.16,1.109A1.161,1.161,0,0,1,5.218,10.7Zm6.736,3.846a4.564,4.564,0,0,1-5.355,0,.58.58,0,1,1,.679-.939,3.4,3.4,0,0,0,4,0,.58.58,0,1,1,.679.939Zm.221-2.687a1.16,1.16,0,1,1,1.16-1.16A1.16,1.16,0,0,1,12.175,11.856Z" transform="translate(0 0)" fill="#fff"/>
    </g>
  </g>
</svg>
