<svg width="200" height="200" viewBox="0 0 200 200" fill="none" xmlns="http://www.w3.org/2000/svg">
<path d="M99.6408 19.2261C99.3823 19.2261 99.1344 19.3069 98.9516 19.4506C98.7688 19.5944 98.666 19.7893 98.666 19.9925V25.2679C98.666 25.4712 98.7688 25.6662 98.9516 25.8099C99.1344 25.9537 99.3823 26.0344 99.6408 26.0344C99.8994 26.0344 100.147 25.9537 100.33 25.8099C100.513 25.6662 100.616 25.4712 100.616 25.2679V19.9925C100.616 19.7893 100.513 19.5944 100.33 19.4506C100.147 19.3069 99.8994 19.2261 99.6408 19.2261Z" fill="#E57876"/>
<path d="M83.0539 7.60305C82.6627 9.7147 83.1141 12.2779 84.277 14.5444L84.3981 14.7808L84.4241 14.7991C85.6606 16.5921 87.2716 17.9758 89.0037 19.0446C89.4922 19.3124 90.0209 19.5882 90.5027 19.8208C91.087 20.1029 91.5955 20.3595 91.9518 20.548C96.4278 22.4187 100.662 22.3441 100.9 22.3546C101.76 19.5217 101.573 16.7554 99.6959 14.0514C99.4362 13.6934 99.2355 13.3388 99.2496 13.263C99.2632 13.1871 99.2105 13.0957 99.1313 13.0605C99.0522 13.0253 98.6284 12.6022 98.19 12.1201C96.7573 10.5446 94.4507 9.06563 91.8142 8.03212C90.1844 7.39323 86.5997 6.50943 84.8 6.30291L83.3259 6.13403L83.0539 7.60305Z" fill="#EB6867"/>
<path d="M98.4825 1.04602C96.4608 2.5496 94.7174 4.86812 93.762 7.32524L93.6623 7.58141L93.6681 7.61004C93.1552 9.7225 93.2633 11.7026 93.7211 13.492C93.8778 13.9694 94.0586 14.4746 94.2387 14.9198C94.4571 15.4598 94.6381 15.9389 94.7578 16.2814C96.6676 20.1828 99.768 22.2649 99.9423 22.4003C102.911 20.5616 105.233 18.3325 105.997 15.1404C106.09 14.7118 106.225 14.3174 106.297 14.2634C106.37 14.2093 106.403 14.107 106.371 14.0362C106.339 13.9654 106.36 13.3967 106.416 12.7723C106.601 10.7317 106.036 8.30369 104.856 6.06112C104.126 4.67486 102.096 2.04846 100.883 0.922239L99.8895 0L98.4825 1.04602Z" fill="#D34B4A"/>
<path d="M115.197 6.32822C112.483 6.32822 109.323 7.04902 106.639 8.28085L106.359 8.40913L106.34 8.43214C104.262 9.653 102.753 11.1062 101.658 12.6084C101.392 13.0272 101.121 13.4784 100.898 13.8869C100.627 14.3823 100.378 14.8152 100.192 15.1196C98.4835 18.8729 98.8401 22.2697 98.8613 22.4565C107.474 22.4703 113.232 19.4587 115.919 13.208C116.488 11.8475 117.083 8.93012 117.084 7.49971V6.32812L115.197 6.32822Z" fill="#EB6867"/>
<path d="M174.219 180.845H25.7803C25.4788 180.845 25.2344 180.598 25.2344 180.293V86.6467C25.2344 86.342 25.4788 86.095 25.7803 86.095H174.219C174.52 86.095 174.765 86.342 174.765 86.6467V180.293C174.765 180.598 174.52 180.845 174.219 180.845Z" fill="url(#paint0_linear_324_1241)"/>
<path d="M186.798 87.3862H13.9241C11.6943 87.3862 9.88672 88.7459 9.88672 90.4232V91.4355C9.88672 93.1128 11.6943 94.4725 13.9241 94.4725H186.798C189.027 94.4725 190.835 93.1128 190.835 91.4355V90.4232C190.835 88.7459 189.027 87.3862 186.798 87.3862Z" fill="#E7ECEF"/>
<path d="M189.364 87.3862H11.3578C10.5453 87.3862 9.88672 87.8817 9.88672 88.4928V90.6634C9.88672 91.2745 10.5453 91.7699 11.3578 91.7699H189.364C190.176 91.7699 190.835 91.2745 190.835 90.6634V88.4928C190.835 87.8817 190.176 87.3862 189.364 87.3862Z" fill="#E7ECEF"/>
<path d="M40.4544 88.6538H27.9375V181.377H40.4544V88.6538Z" fill="url(#paint1_linear_324_1241)"/>
<path d="M171.835 88.6538H159.318V181.377H171.835V88.6538Z" fill="url(#paint2_linear_324_1241)"/>
<path d="M96.4961 25.3955C94.2333 25.7907 92.3329 26.556 91.1288 27.557L29.2399 79.0166C28.3416 79.764 27.8689 80.6116 27.8691 81.4745C27.8694 82.3373 28.3427 83.1848 29.2415 83.932C30.1403 84.6792 31.4329 85.2996 32.9895 85.7311C34.5461 86.1625 36.3118 86.3897 38.1092 86.3898L161.894 86.3887C163.691 86.3886 165.457 86.1614 167.014 85.7299C168.57 85.2985 169.863 84.6781 170.762 83.9309C171.66 83.1837 172.134 82.336 172.134 81.4732C172.134 80.6104 171.662 79.7628 170.763 79.0155L108.867 27.557C107.663 26.5561 105.763 25.7909 103.501 25.3956C101.239 25.0004 98.7585 25.0003 96.4961 25.3955Z" fill="#325F71"/>
<path d="M97.0007 31.2793C95.0642 31.6175 93.4378 32.2725 92.4073 33.1292L39.4407 77.17C38.6719 77.8096 38.2673 78.5351 38.2676 79.2735C38.2678 80.0119 38.6729 80.7373 39.4421 81.3767C40.2114 82.0162 41.3176 82.5472 42.6498 82.9165C43.9819 83.2857 45.4931 83.4802 47.0313 83.4802L152.97 83.4792C154.509 83.4791 156.02 83.2847 157.352 82.9155C158.684 82.5463 159.79 82.0153 160.56 81.3758C161.329 80.7363 161.734 80.0109 161.734 79.2725C161.734 78.534 161.33 77.8086 160.561 77.169L107.588 33.1292C106.558 32.2726 104.932 31.6177 102.996 31.2794C101.06 30.9411 98.937 30.9411 97.0007 31.2793Z" fill="url(#paint3_linear_324_1241)"/>
<path d="M62.863 119.082H42.3569C42.1145 119.082 41.918 119.281 41.918 119.526V145.407C41.918 145.652 42.1145 145.851 42.3569 145.851H62.863C63.1055 145.851 63.302 145.652 63.302 145.407V119.526C63.302 119.281 63.1055 119.082 62.863 119.082Z" fill="#F5F7F8"/>
<path d="M61.0768 121.415H44.1437C43.9436 121.415 43.7812 121.579 43.7812 121.781V143.153C43.7812 143.355 43.9436 143.519 44.1437 143.519H61.0768C61.277 143.519 61.4393 143.355 61.4393 143.153V121.781C61.4393 121.579 61.277 121.415 61.0768 121.415Z" fill="#2F3946"/>
<path d="M157.646 119.082H137.14C136.898 119.082 136.701 119.281 136.701 119.526V145.407C136.701 145.652 136.898 145.851 137.14 145.851H157.646C157.889 145.851 158.085 145.652 158.085 145.407V119.526C158.085 119.281 157.889 119.082 157.646 119.082Z" fill="#F5F7F8"/>
<path d="M155.856 121.415H138.923C138.723 121.415 138.561 121.579 138.561 121.781V143.153C138.561 143.355 138.723 143.519 138.923 143.519H155.856C156.056 143.519 156.219 143.355 156.219 143.153V121.781C156.219 121.579 156.056 121.415 155.856 121.415Z" fill="#2F3946"/>
<path d="M51.9355 88.6523V181.375H64.4525V88.6523H51.9355ZM135.55 88.6523V181.375H148.067V88.6523H135.55Z" fill="url(#paint4_linear_324_1241)"/>
<path d="M40.3071 90.9697H25.2576C23.3182 90.9697 21.7461 92.5586 21.7461 94.5186C21.7461 96.4786 23.3182 98.0675 25.2576 98.0675H40.3071C42.2464 98.0675 43.8186 96.4786 43.8186 94.5186C43.8186 92.5586 42.2464 90.9697 40.3071 90.9697Z" fill="#E7ECEF"/>
<path d="M173.268 90.9697H158.219C156.279 90.9697 154.707 92.5586 154.707 94.5186C154.707 96.4786 156.279 98.0675 158.219 98.0675H173.268C175.207 98.0675 176.78 96.4786 176.78 94.5186C176.78 92.5586 175.207 90.9697 173.268 90.9697Z" fill="#E7ECEF"/>
<path d="M170.973 83.9441H29.7555C27.2898 83.9441 25.291 85.9642 25.291 88.456V89.9599C25.291 92.4518 27.2898 94.4719 29.7555 94.4719H170.973C173.438 94.4719 175.437 92.4518 175.437 89.9599V88.456C175.437 85.9642 173.438 83.9441 170.973 83.9441Z" fill="#EFF2F4"/>
<path d="M122.621 143.63H77.3849C77.182 143.63 77.0176 143.81 77.0176 144.033V180.731C77.0176 180.954 77.182 181.135 77.3849 181.135H122.621C122.824 181.135 122.989 180.954 122.989 180.731V144.033C122.989 143.81 122.824 143.63 122.621 143.63Z" fill="#EFF2F4"/>
<path d="M119.456 147.066H80.5465C80.3622 147.066 80.2129 147.23 80.2129 147.432V180.767C80.2129 180.969 80.3622 181.133 80.5465 181.133H119.456C119.64 181.133 119.789 180.969 119.789 180.767V147.432C119.789 147.23 119.64 147.066 119.456 147.066Z" fill="#2F3946"/>
<path d="M121.585 151.027H78.4193C78.2859 151.027 78.1777 151.146 78.1777 151.292V153.772C78.1777 153.918 78.2859 154.037 78.4193 154.037H121.585C121.718 154.037 121.826 153.918 121.826 153.772V151.292C121.826 151.146 121.718 151.027 121.585 151.027Z" fill="#EFF2F4"/>
<path d="M38.3097 175.716H30.0803C27.8861 175.716 26.1074 177.514 26.1074 179.731C26.1074 181.949 27.8861 183.746 30.0803 183.746H38.3097C40.5039 183.746 42.2826 181.949 42.2826 179.731C42.2826 177.514 40.5039 175.716 38.3097 175.716Z" fill="#CAD4DB"/>
<path d="M62.2726 175.716H54.0431C51.849 175.716 50.0703 177.514 50.0703 179.731C50.0703 181.949 51.849 183.746 54.0431 183.746H62.2726C64.4668 183.746 66.2455 181.949 66.2455 179.731C66.2455 177.514 64.4668 175.716 62.2726 175.716Z" fill="#CAD4DB"/>
<path d="M145.843 175.719H137.613C135.419 175.719 133.641 177.517 133.641 179.734C133.641 181.952 135.419 183.749 137.613 183.749H145.843C148.037 183.749 149.816 181.952 149.816 179.734C149.816 177.517 148.037 175.719 145.843 175.719Z" fill="#CAD4DB"/>
<path d="M169.693 175.719H161.463C159.269 175.719 157.49 177.517 157.49 179.734C157.49 181.952 159.269 183.749 161.463 183.749H169.693C171.887 183.749 173.665 181.952 173.665 179.734C173.665 177.517 171.887 175.719 169.693 175.719Z" fill="#CAD4DB"/>
<path d="M16.8812 179.761H183.118C183.275 179.761 183.402 179.871 183.402 180.008V188.704C183.402 188.841 183.275 188.951 183.118 188.951H16.8812C16.724 188.951 16.5977 188.841 16.5977 188.704V180.008C16.5977 179.871 16.724 179.761 16.8812 179.761Z" fill="#2C3542"/>
<path d="M9.62337 186.506H190.372C190.53 186.506 190.656 186.606 190.656 186.731V194.624C190.656 194.748 190.53 194.848 190.372 194.848H9.62337C9.46623 194.848 9.33984 194.748 9.33984 194.624V186.731C9.33984 186.606 9.46621 186.506 9.62337 186.506Z" fill="#2F3946"/>
<path d="M0.312825 193.253H199.687C199.861 193.253 200 193.334 200 193.435V199.819C200 199.919 199.86 200 199.687 200H0.312825C0.139462 200 0 199.919 0 199.819V193.435C0 193.334 0.139551 193.253 0.312825 193.253Z" fill="#35404E"/>
<path d="M65.9907 90.9697H50.9412C49.0018 90.9697 47.4297 92.5586 47.4297 94.5186C47.4297 96.4786 49.0018 98.0675 50.9412 98.0675H65.9907C67.93 98.0675 69.5022 96.4786 69.5022 94.5186C69.5022 92.5586 67.93 90.9697 65.9907 90.9697Z" fill="#EFF2F4"/>
<path d="M149.991 90.9697H134.941C133.002 90.9697 131.43 92.5586 131.43 94.5186C131.43 96.4786 133.002 98.0675 134.941 98.0675H149.991C151.93 98.0675 153.502 96.4786 153.502 94.5186C153.502 92.5586 151.93 90.9697 149.991 90.9697Z" fill="#EFF2F4"/>
<path d="M52.1649 53.9465H147.835L172.281 77.0891L163.944 84.8131H36.056L27.7188 77.0891L52.1649 53.9465Z" fill="url(#paint5_linear_324_1241)"/>
<path d="M189.24 73.6194H11.4886C9.60503 73.6194 8.07812 75.1626 8.07812 77.0661V85.5759C8.07812 87.4795 9.60503 89.0226 11.4886 89.0226H189.24C191.123 89.0226 192.65 87.4795 192.65 85.5759V77.0661C192.65 75.1626 191.123 73.6194 189.24 73.6194Z" fill="url(#paint6_linear_324_1241)"/>
<defs>
<linearGradient id="paint0_linear_324_1241" x1="111.454" y1="170.713" x2="110.569" y2="96.8958" gradientUnits="userSpaceOnUse">
<stop stop-color="#325F71"/>
<stop offset="1" stop-color="#325F71"/>
</linearGradient>
<linearGradient id="paint1_linear_324_1241" x1="36.9798" y1="136.955" x2="31.2953" y2="136.594" gradientUnits="userSpaceOnUse">
<stop stop-color="white"/>
<stop offset="1" stop-color="#E3E9EC"/>
</linearGradient>
<linearGradient id="paint2_linear_324_1241" x1="164.377" y1="136.037" x2="170.465" y2="135.952" gradientUnits="userSpaceOnUse">
<stop stop-color="white"/>
<stop offset="1" stop-color="#E3E9EC"/>
</linearGradient>
<linearGradient id="paint3_linear_324_1241" x1="101.426" y1="49.3322" x2="101.118" y2="34.3236" gradientUnits="userSpaceOnUse">
<stop stop-color="#2F3946"/>
<stop offset="1" stop-color="#325F71"/>
</linearGradient>
<linearGradient id="paint4_linear_324_1241" x1="58.5122" y1="103.365" x2="58.5121" y2="171.427" gradientUnits="userSpaceOnUse">
<stop stop-color="white"/>
<stop offset="1" stop-color="#E3E9EC"/>
</linearGradient>
<linearGradient id="paint5_linear_324_1241" x1="100.221" y1="56.0228" x2="100.221" y2="72.6518" gradientUnits="userSpaceOnUse">
<stop stop-color="#325F71"/>
<stop offset="1" stop-color="#2F3946"/>
</linearGradient>
<linearGradient id="paint6_linear_324_1241" x1="108.118" y1="87.0175" x2="107.829" y2="74.9722" gradientUnits="userSpaceOnUse">
<stop stop-color="#CAD4DB"/>
<stop offset="1" stop-color="white"/>
</linearGradient>
</defs>
</svg>
