<svg id="Group_48854" data-name="Group 48854" xmlns="http://www.w3.org/2000/svg" width="24.359" height="24.353" viewBox="0 0 24.359 24.353">
  <g id="Group_48837" data-name="Group 48837">
    <path id="Path_109889" data-name="Path 109889" d="M86.963,4.993A9.553,9.553,0,0,1,92.53,2.671V.061a12.094,12.094,0,0,0-7.415,3.083Z" transform="translate(-81.066 -0.061)" fill="#15313d"/>
    <path id="Path_109890" data-name="Path 109890" d="M2.61,93.589a9.551,9.551,0,0,1,2.281-5.563L3.042,86.177A12.094,12.094,0,0,0,0,93.589Z" transform="translate(0 -82.08)" fill="#15313d"/>
    <path id="Path_109891" data-name="Path 109891" d="M271.023.061v2.61a9.554,9.554,0,0,1,5.567,2.322l1.848-1.848A12.094,12.094,0,0,0,271.023.061Z" transform="translate(-258.129 -0.061)" fill="#15313d"/>
    <path id="Path_109892" data-name="Path 109892" d="M92.572,84.408a8.164,8.164,0,1,0,8.164,8.164A8.173,8.173,0,0,0,92.572,84.408ZM87.664,95.344H86.235V89.8h1.429Zm3.732.271a3.032,3.032,0,1,1,1.715-5.532L92.3,91.261a1.6,1.6,0,1,0,0,2.644l.809,1.178A3.016,3.016,0,0,1,91.4,95.615Zm4.878,0a3.032,3.032,0,1,1,3.032-3.032A3.035,3.035,0,0,1,96.274,95.615Z" transform="translate(-80.392 -80.395)" fill="#15313d"/>
    <path id="Path_109893" data-name="Path 109893" d="M410.594,272.024a9.553,9.553,0,0,1-2.318,5.519l1.848,1.848a12.093,12.093,0,0,0,3.08-7.368Z" transform="translate(-388.852 -259.085)" fill="#15313d"/>
    <path id="Path_109894" data-name="Path 109894" d="M409.2,88.025a9.551,9.551,0,0,1,2.281,5.563h2.61a12.094,12.094,0,0,0-3.042-7.412Z" transform="translate(-389.729 -82.079)" fill="#15313d"/>
    <path id="Path_109895" data-name="Path 109895" d="M5.051,277.543a9.554,9.554,0,0,1-2.318-5.519H.122a12.094,12.094,0,0,0,3.08,7.368Z" transform="translate(-0.116 -259.085)" fill="#15313d"/>
    <circle id="Ellipse_12639" data-name="Ellipse 12639" cx="1.603" cy="1.603" r="1.603" transform="translate(14.279 10.586)" fill="#15313d"/>
    <path id="Path_109896" data-name="Path 109896" d="M93.543,411.475a9.551,9.551,0,0,1-5.515-2.278l-1.849,1.849a12.093,12.093,0,0,0,7.365,3.039v-2.61Z" transform="translate(-82.078 -389.732)" fill="#15313d"/>
    <path id="Path_109897" data-name="Path 109897" d="M276.538,409.2a9.552,9.552,0,0,1-5.515,2.278v2.61a12.093,12.093,0,0,0,7.365-3.039Z" transform="translate(-258.129 -389.732)" fill="#15313d"/>
  </g>
</svg>
