<svg xmlns="http://www.w3.org/2000/svg" width="20.087" height="26.775" viewBox="0 0 20.087 26.775">
  <path id="Path_41951" data-name="Path 41951" d="M825,362.528H808.892a4.72,4.72,0,0,1-.715-.23,2.215,2.215,0,0,1-1.272-2.138q0-6.772,0-13.543c0-.659.163-.824.813-.824h1.422c0-.723,0-1.409,0-2.1a7.822,7.822,0,0,1,9.58-7.726,7.758,7.758,0,0,1,6.027,7.439c.01.7.006,1.394.009,2.091,0,.092,0,.185,0,.292.543,0,1.048,0,1.553,0,.462,0,.681.213.681.666q0,6.889,0,13.778a2.1,2.1,0,0,1-.918,1.839A5.825,5.825,0,0,1,825,362.528Zm-3.6-16.743c0-.806.01-1.589,0-2.372a4.1,4.1,0,0,0-.916-2.56,4.455,4.455,0,0,0-7.833,1.558,12.965,12.965,0,0,0-.15,3.329c0,.012.02.025.036.045Zm-4.474,12.284c.331,0,.662,0,.993,0,.521-.007.745-.27.685-.78q-.166-1.427-.315-2.856a.324.324,0,0,1,.092-.24,2.229,2.229,0,0,0-1.943-3.873,2.232,2.232,0,0,0-.939,3.862.354.354,0,0,1,.1.26c-.1.961-.209,1.921-.316,2.882a.6.6,0,0,0,.646.743C816.263,358.076,816.595,358.069,816.926,358.069Z" transform="translate(-806.904 -335.753)" fill="#fff"/>
</svg>
