<svg xmlns="http://www.w3.org/2000/svg" width="499.294" height="450.365" viewBox="0 0 499.294 450.365">
  <g id="Group_21443" data-name="Group 21443" transform="translate(-275.621 -245.03)">
    <g id="Group_21393" data-name="Group 21393" transform="translate(275.621 468.374)">
      <path id="Path_41308" data-name="Path 41308" d="M81.1,245.891c12.72-1.79,27.889-10.689,38.312,4.454,7.191,10.448,5.385,24.74,21.4,25.486,6.35.294,12.091-1.778,17.85,1.93,5,3.223,7.535,9.226,9.727,14.5,1.884,4.535,2.789,10.928,5.729,14.928,4.8,6.534,11.248,4.535,18.376,5.309,6.782.735,13.6,3.219,17.877,8.913,5.656,7.531,2.837,16.534,5.954,24.519,0,0,6.356,33.407-29.846,31.11-8.555-.544-16.986.406-24.744-4.933-5.867-4.036-8.629-10.744-9.646-17.49-1.068-7.089.661-13.616-6.065-18.14-4.121-2.771-10.545-3.411-15.153-5.105-5.36-1.971-11.463-4.25-14.891-9.118-3.942-5.6-2.111-11.42-2.669-17.752C111.9,288.52,97.7,290.918,86.963,284.167c-15.562-9.787-7.3-25.312-6.039-38.1Z" transform="translate(-77.609 -241.666)" fill="#356272"/>
      <line id="Line_34" data-name="Line 34" x2="113.46" y2="108.85" transform="translate(25.556 25.569)" fill="none" stroke="#fff" stroke-linecap="round" stroke-linejoin="round" stroke-width="0.616"/>
      <line id="Line_35" data-name="Line 35" x2="3.562" y2="24.754" transform="translate(69.124 46.03)" fill="none" stroke="#fff" stroke-linecap="round" stroke-linejoin="round" stroke-width="0.616"/>
      <line id="Line_36" data-name="Line 36" x1="22.212" y2="3.441" transform="translate(90.987 109.65)" fill="none" stroke="#fff" stroke-linecap="round" stroke-linejoin="round" stroke-width="0.616"/>
      <line id="Line_37" data-name="Line 37" x1="18.322" y1="1.362" transform="translate(40.143 55.778)" fill="none" stroke="#fff" stroke-linecap="round" stroke-linejoin="round" stroke-width="0.616"/>
    </g>
    <g id="Group_21394" data-name="Group 21394" transform="translate(319.443 364.109)">
      <path id="Path_41309" data-name="Path 41309" d="M196.761,365.9s12.968-109.209-89.241-183.112c-28.946,111.574,73.209,202.4,73.209,202.4Z" transform="translate(-102.355 -182.787)" fill="none" stroke="#fff" stroke-linecap="round" stroke-linejoin="round" stroke-width="0.616"/>
      <line id="Line_38" data-name="Line 38" x1="6.386" y2="51.276" transform="translate(44.393 43.617)" fill="#fff" stroke="#0c5ae5" stroke-linecap="round" stroke-linejoin="round" stroke-width="0.616"/>
      <line id="Line_39" data-name="Line 39" x1="46.224" y1="25.92" transform="translate(8.719 94.494)" fill="#fff" stroke="#fff" stroke-linecap="round" stroke-linejoin="round" stroke-width="0.616"/>
      <line id="Line_40" data-name="Line 40" x2="46.944" y2="25.79" transform="translate(15.955 113.869)" fill="#fff" stroke="#fff" stroke-linecap="round" stroke-linejoin="round" stroke-width="0.616"/>
      <line id="Line_41" data-name="Line 41" x2="80.572" y2="194.905" transform="translate(5.165 0)" fill="#fff" stroke="#fff" stroke-linecap="round" stroke-linejoin="round" stroke-width="0.616"/>
    </g>
    <g id="Group_21395" data-name="Group 21395" transform="translate(630.037 333.109)">
      <path id="Path_41310" data-name="Path 41310" d="M412.829,244.738l-5.1-32.282,7.9-6.412-20.559-25.392-7.916,6.393L356.64,175.322l-1.576-10.041-32.3,5.118,1.594,10.041L298.947,201l-9.492-3.648L277.75,227.862l9.492,3.648,5.1,32.282-7.9,6.41L305,295.6l7.915-6.393,30.511,11.723,1.576,10.039,32.3-5.116-1.594-10.041,25.411-20.559L410.6,278.9l11.723-30.511ZM374.455,247.5A26.158,26.158,0,1,1,359.4,213.713,26.152,26.152,0,0,1,374.455,247.5Z" transform="translate(-277.75 -165.281)" fill="none" stroke="#fff" stroke-linecap="round" stroke-linejoin="round" stroke-width="0.616" opacity="0.9"/>
    </g>
    <g id="Group_21396" data-name="Group 21396" transform="translate(328.98 402.445)">
      <path id="Rectangle_8442" data-name="Rectangle 8442" d="M6.142,0H355.614a6.142,6.142,0,0,1,6.142,6.142V210.348a0,0,0,0,1,0,0H0a0,0,0,0,1,0,0V6.142A6.142,6.142,0,0,1,6.142,0Z" transform="translate(17.02 0)" fill="#d4e6fc"/>
      <rect id="Rectangle_8443" data-name="Rectangle 8443" width="358.494" height="201.485" transform="translate(19.02 6.932)" fill="#0b303d"/>
      <path id="Rectangle_8444" data-name="Rectangle 8444" d="M0,0H395.833a0,0,0,0,1,0,0V10.928a5.778,5.778,0,0,1-5.778,5.778H5.778A5.778,5.778,0,0,1,0,10.928V0A0,0,0,0,1,0,0Z" transform="translate(0 210.348)" fill="#d4e6fc"/>
      <path id="Rectangle_8445" data-name="Rectangle 8445" d="M0,0H56.271a0,0,0,0,1,0,0V4.181a3.482,3.482,0,0,1-3.482,3.482H3.482A3.482,3.482,0,0,1,0,4.181V0A0,0,0,0,1,0,0Z" transform="translate(169.781 210.348)" fill="#a6c0df"/>
    </g>
    <rect id="Rectangle_8446" data-name="Rectangle 8446" width="185.53" height="124.163" rx="7.55" transform="translate(566.045 458.88)" fill="#0b303d" stroke="#fff" stroke-linecap="round" stroke-linejoin="round" stroke-width="0.616"/>
    <line id="Line_42" data-name="Line 42" x2="449.006" transform="translate(302.569 629.499)" fill="#d4e6fc" stroke="#47849d" stroke-linecap="round" stroke-linejoin="round" stroke-width="0.616"/>
    <path id="Union_1" data-name="Union 1" d="M-1950.377,129.269c-.333-.141-.665-.284-.992-.427h-10.616v-5.485c-41.406-25.292-26.269-69.815-20.608-84.8,2.756-7.295,21.1-49.559,79.245-49.559q1.211,0,2.4.028c19.148.456,36.077,4.919,48.286,14.008q1.414,1.02,2.794,2.233a47.949,47.949,0,0,1,7.086,7.52c12.8,15.913,21.947,39.609,21.947,39.609l19.628-39.254h26.823s-8.505,68.04-43.18,74.146c-13.147,2.314-22.2-.312-28.372-4.467v46.019h-87.305a21.968,21.968,0,0,1-9.13,2.118A20.336,20.336,0,0,1-1950.377,129.269Z" transform="translate(2383.417 385.667)" fill="#e9666b"/>
    <path id="Path_41312" data-name="Path 41312" d="M185.011,173.025s13.352-17.774,18.259-19.41c5.835,2.945,15.7,12.757,15.7,12.757l-4.907,5.235,6.329-2.867,6.722,6.94-22.759,22.063Z" transform="translate(280.801 158.836)" fill="#2b5f74"/>
    <path id="Path_41313" data-name="Path 41313" d="M251.634,213.525s-.653-14.23,5.644-18.728c2.968-2.12,14.965-6.869,14.965-6.869l2.453,4.661-8.1,4.172,17.42.735,9.077-8.114,3.435,2.716-10.551,16.439-13.494,4.988Z" transform="translate(332.141 185.285)" fill="#fff"/>
    <path id="Path_41314" data-name="Path 41314" d="M159,377.8l18.115-18.636h15.3V377.8Z" transform="translate(260.752 317.282)"/>
    <path id="Path_41315" data-name="Path 41315" d="M227.037,377.8l-11.724-18.636h-15.3V377.8Z" transform="translate(292.363 317.282)"/>
    <path id="Path_41316" data-name="Path 41316" d="M267.607,267.524V434.747H220.669v-133.4h-6.114l-8.606,133.4H159l8.606-133.4,2.188-33.827Z" transform="translate(260.752 246.64)" fill="#fff"/>
    <g id="Group_21397" data-name="Group 21397" transform="translate(392.274 435.651)">
      <rect id="Rectangle_8447" data-name="Rectangle 8447" width="91.46" height="117.6" transform="translate(83.156 0) rotate(45)" fill="#e9666b"/>
      <rect id="Rectangle_8448" data-name="Rectangle 8448" width="84.847" height="110.314" transform="translate(83.108 4.724) rotate(45)" fill="#fff"/>
      <path id="Path_41318" data-name="Path 41318" d="M234.3,259.567l-8.659,8.659-27.834-27.834,8.659-8.659,9.488,9.488a6.356,6.356,0,0,1,8.858,8.858Z" transform="translate(-101.609 -216.6)" fill="#fff" stroke="#000" stroke-linecap="round" stroke-linejoin="round" stroke-width="0.616"/>
      <path id="Path_41319" data-name="Path 41319" d="M185.629,242.047l-.619,3.917,7.216-2.268" transform="translate(-111.473 -208.649)" fill="none" stroke="#000" stroke-linecap="round" stroke-linejoin="round" stroke-width="0.616"/>
      <line id="Line_43" data-name="Line 43" x2="31.1" y2="31.1" transform="translate(81.096 40.132)" fill="none" stroke="#000" stroke-linecap="round" stroke-linejoin="round" stroke-width="0.616"/>
      <path id="Path_41320" data-name="Path 41320" d="M180.862,246.814l-.619,3.917,7.216-2.268" transform="translate(-115.148 -204.975)" fill="none" stroke="#000" stroke-linecap="round" stroke-linejoin="round" stroke-width="0.616"/>
      <line id="Line_44" data-name="Line 44" x2="31.1" y2="31.1" transform="translate(72.654 48.573)" fill="none" stroke="#000" stroke-linecap="round" stroke-linejoin="round" stroke-width="0.616"/>
      <path id="Path_41321" data-name="Path 41321" d="M176.1,251.581l-.619,3.917,7.216-2.268" transform="translate(-118.822 -201.3)" fill="none" stroke="#000" stroke-linecap="round" stroke-linejoin="round" stroke-width="0.616"/>
      <line id="Line_45" data-name="Line 45" x2="31.1" y2="31.1" transform="translate(64.213 57.015)" fill="none" stroke="#000" stroke-linecap="round" stroke-linejoin="round" stroke-width="0.616"/>
    </g>
    <path id="Path_41322" data-name="Path 41322" d="M196.077,214.268h0a10.6,10.6,0,0,0,10.6-10.6V169.223h-21.2v34.446A10.6,10.6,0,0,0,196.077,214.268Z" transform="translate(281.162 170.867)" fill="#fff" stroke="#000" stroke-linecap="round" stroke-linejoin="round" stroke-width="0.616"/>
    <path id="Path_41323" data-name="Path 41323" d="M219.108,184.921a5.891,5.891,0,0,1-7.717,3.129,5.684,5.684,0,0,1-1.271-.742,15.707,15.707,0,1,1,2.548-10.474,5.792,5.792,0,0,1,3.311.37A5.89,5.89,0,0,1,219.108,184.921Z" transform="translate(277.989 165.973)" fill="#fff" stroke="#000" stroke-linecap="round" stroke-linejoin="round" stroke-width="0.616"/>
    <path id="Path_41324" data-name="Path 41324" d="M197.524,175.242a2.672,2.672,0,0,1,3.869-1.156" transform="translate(290.447 174.258)" fill="none" stroke="#000" stroke-linecap="round" stroke-linejoin="round" stroke-width="0.616"/>
    <line id="Line_46" data-name="Line 46" y2="29.349" transform="translate(537.064 439.7)" fill="none" stroke="#fff" stroke-linecap="round" stroke-linejoin="round" stroke-width="0.616"/>
    <path id="Path_41326" data-name="Path 41326" d="M193.687,163.773c6.795,3.375,9.283,11.716,4.678,16.132l4.8-3.419,7.643-4.843S196.418,161.045,193.687,163.773Z" transform="translate(287.489 166.32)" fill="#2b5f74"/>
    <g id="Group_21398" data-name="Group 21398" transform="translate(436.461 508.628)">
      <path id="Path_41327" data-name="Path 41327" d="M188.682,264.4l9.76,9.819,7.86,9.3L203,286.821l2.905,3.822L189.609,303.3l-21.173-25.442Z" transform="translate(-168.436 -264.398)" fill="#fff" stroke="#000" stroke-linecap="round" stroke-linejoin="round" stroke-width="0.616"/>
      <line id="Line_47" data-name="Line 47" x1="7.005" y1="7.984" transform="translate(27.072 20.704)" fill="none" stroke="#000" stroke-linecap="round" stroke-linejoin="round" stroke-width="0.616"/>
      <line id="Line_48" data-name="Line 48" x1="7.005" y1="7.984" transform="translate(22.48 23.848)" fill="none" stroke="#000" stroke-linecap="round" stroke-linejoin="round" stroke-width="0.616"/>
      <line id="Line_49" data-name="Line 49" x1="7.005" y1="7.984" transform="translate(18.165 27.302)" fill="none" stroke="#000" stroke-linecap="round" stroke-linejoin="round" stroke-width="0.616"/>
      <line id="Line_50" data-name="Line 50" x1="5.167" y1="5.968" transform="translate(29.486 16.62)" fill="none" stroke="#000" stroke-linecap="round" stroke-linejoin="round" stroke-width="0.616"/>
    </g>
    <path id="Path_41328" data-name="Path 41328" d="M180.232,226.305c-4.6,9.812-3.357,19.938.526,29.222C189.3,275.95,210.623,292.3,210.623,292.3L183.63,312.419s-36.254-30.69-38.117-51.458" transform="translate(250.355 214.867)" fill="#e9666b" stroke="#fafafa" stroke-width="1"/>
    <path id="Path_41329" data-name="Path 41329" d="M166.4,226.305c-4.6,9.812-3.358,19.938.526,29.222" transform="translate(264.183 214.867)" fill="none" stroke="#fff" stroke-linecap="round" stroke-linejoin="round" stroke-width="0.616"/>
    <rect id="Rectangle_8449" data-name="Rectangle 8449" width="139.74" height="21.482" rx="10" transform="translate(588.94 478.345)" fill="#274651"/>
    <rect id="Rectangle_8450" data-name="Rectangle 8450" width="139.74" height="21.482" rx="10" transform="translate(588.94 508.943)" fill="#274651"/>
    <rect id="Rectangle_8451" data-name="Rectangle 8451" width="84.123" height="21.482" rx="10" transform="translate(616.597 546.016)" fill="#e9666b"/>
    <line id="Line_52" data-name="Line 52" x2="159.318" transform="translate(392.274 695.086)" fill="#d4e6fc" stroke="#47849d" stroke-linecap="round" stroke-linejoin="round" stroke-width="0.616"/>
    <text id="Password" transform="translate(598 523)" fill="#fff" font-size="7" font-family="Poppins-Light, Poppins" font-weight="300" opacity="0.4"><tspan x="0" y="0">Password</tspan></text>
    <text id="Login" transform="translate(649 559)" fill="#fff" font-size="7" font-family="Poppins-Regular, Poppins"><tspan x="0" y="0">Login</tspan></text>
    <text id="Email" transform="translate(609 492)" fill="#fff" font-size="7" font-family="Poppins-Light, Poppins" font-weight="300" opacity="0.4"><tspan x="-9" y="0">Email</tspan></text>
    <g id="bitcoin" transform="translate(516.856 245.03)">
      <g id="Group_3271" data-name="Group 3271" transform="translate(0 6.553)">
        <g id="Group_3269" data-name="Group 3269" transform="translate(0.937 1.121)">
          <path id="Path_5844" data-name="Path 5844" d="M269.882,210.3l17.553,1.053-10.121-12.959L275.062,202a24.761,24.761,0,0,1,8.673-44.426l.793-5.773a30.306,30.306,0,0,0-12.4,54.9Z" transform="translate(-258.982 -151.803)" fill="#e9666b"/>
        </g>
        <g id="Group_3270" data-name="Group 3270">
          <path id="Path_5845" data-name="Path 5845" d="M289.466,212.43l-21.2-1.27,2.614-4.188A31.244,31.244,0,0,1,284.4,150.9l1.245-.2-1.054,7.66-.629.145a23.823,23.823,0,0,0-9.143,42.161l2.425-3.886Zm-17.939-2.951,13.908.834-8.02-10.269-2.067,3.311-.81-.57a25.7,25.7,0,0,1,8.371-45.951l.531-3.864a29.369,29.369,0,0,0-10.764,52.976l.738.507Z" transform="translate(-258.061 -150.701)" fill="#0a2b3a"/>
        </g>
      </g>
      <g id="Group_3274" data-name="Group 3274" transform="translate(138.699 4.303)">
        <g id="Group_3272" data-name="Group 3272" transform="translate(2.016 1.06)">
          <path id="Path_5846" data-name="Path 5846" d="M467.13,150.582l-17.553-1.052L459.7,162.488l2.251-3.606a24.761,24.761,0,0,1-8.672,44.425l-.794,5.773a30.3,30.3,0,0,0,12.4-54.9Z" transform="translate(-449.577 -149.53)" fill="#e9666b"/>
        </g>
        <g id="Group_3273" data-name="Group 3273">
          <path id="Path_5847" data-name="Path 5847" d="M451.418,210.217l1.054-7.66.63-.145a23.823,23.823,0,0,0,9.143-42.16l-2.426,3.885L447.6,148.488l21.2,1.27-2.615,4.188a31.243,31.243,0,0,1-13.516,56.076Zm2.735-6.135-.532,3.864a29.367,29.367,0,0,0,10.765-52.975l-.737-.509,1.887-3.024-13.909-.833,8.02,10.268,2.067-3.31.81.569a25.7,25.7,0,0,1-8.37,45.95Z" transform="translate(-447.595 -148.488)" fill="#0b2b38"/>
        </g>
      </g>
      <g id="Group_3355" data-name="Group 3355" transform="translate(50.808 0)">
        <g id="Group_3342" data-name="Group 3342" transform="translate(0 0)">
          <g id="Group_3341" data-name="Group 3341">
            <g id="Group_3340" data-name="Group 3340">
              <g id="Group_3339" data-name="Group 3339">
                <g id="Group_3337" data-name="Group 3337" transform="translate(0.87 0.488)">
                  <path id="Path_5868" data-name="Path 5868" d="M406.862,181.465a35.569,35.569,0,0,1-7.214,20.882,35.886,35.886,0,0,1-12.421,10.367,35.5,35.5,0,0,1-14.351,3.774q-1.181.057-2.38.035a35.707,35.707,0,0,1-25.57-59.963l.038-.041A35.9,35.9,0,0,1,352,150.656a35.5,35.5,0,0,1,13.354-5.1,35.749,35.749,0,0,1,41.5,35.9Z" transform="translate(-335.432 -145.094)" fill="#fff"/>
                </g>
                <g id="Group_3338" data-name="Group 3338">
                  <path id="Path_5869" data-name="Path 5869" d="M371.173,217.394q-.339,0-.677-.007A36.556,36.556,0,0,1,344.318,156l.039-.041a36.7,36.7,0,0,1,7.2-6,36.2,36.2,0,0,1,13.675-5.217,36.6,36.6,0,0,1,42.491,36.759h0a36.409,36.409,0,0,1-7.385,21.381,36.754,36.754,0,0,1-12.716,10.613,36.194,36.194,0,0,1-14.695,3.865C372.35,217.38,371.762,217.394,371.173,217.394Zm-.013-71.436a35.079,35.079,0,0,0-5.651.456,34.5,34.5,0,0,0-13.036,4.973,35.057,35.057,0,0,0-6.871,5.726,34.855,34.855,0,0,0,24.924,58.575c.776.013,1.559,0,2.324-.034a34.513,34.513,0,0,0,14.008-3.684,34.983,34.983,0,0,0,15.824-16.211A34.885,34.885,0,0,0,371.8,145.965Q371.48,145.958,371.16,145.958Zm35.716,35.521h0Z" transform="translate(-334.597 -144.257)" fill="#0b2b38"/>
                </g>
              </g>
            </g>
          </g>
        </g>
        <g id="Group_3348" data-name="Group 3348" transform="translate(7.707 7.707)">
          <g id="Group_3347" data-name="Group 3347">
            <g id="Group_3346" data-name="Group 3346">
              <g id="Group_3345" data-name="Group 3345">
                <g id="Group_3344" data-name="Group 3344">
                  <path id="Path_5870" data-name="Path 5870" d="M371.043,209.558c-.179,0-.356,0-.536-.005a28.861,28.861,0,0,1,.521-57.717c.179,0,.356,0,.536.006a28.893,28.893,0,0,1,28.328,29.383h0A28.9,28.9,0,0,1,371.043,209.558Zm-.014-56.022a27.161,27.161,0,0,0-.49,54.317c.168,0,.337,0,.5,0a27.161,27.161,0,0,0,.489-54.316C371.364,153.538,371.2,153.536,371.029,153.536Zm28.013,27.674h0Z" transform="translate(-342.175 -151.836)" fill="#252362"/>
                </g>
              </g>
            </g>
          </g>
        </g>
      </g>
    </g>
    <g id="Group_20009" data-name="Group 20009" transform="translate(593.009 263.552)">
      <path id="Path_21026" data-name="Path 21026" d="M1282.052,2894.132l-10.613,18.115,10.613,6.076,10.728-6.076Z" transform="translate(-1271.201 -2894.132)" fill="none" stroke="#252362" stroke-width="1"/>
      <g id="Path_21027" data-name="Path 21027" transform="translate(-1271.191 -2894.979)" fill="none">
        <path d="M1271.191,2915.169l10.982,15.116,10.967-15.116-10.967,6.817Z" stroke="none"/>
        <path d="M 1275.000244140625 2918.710205078125 L 1282.1728515625 2928.58251953125 L 1289.333984375 2918.71240234375 L 1282.173828125 2923.1630859375 L 1275.000244140625 2918.710205078125 M 1271.191284179688 2915.1689453125 L 1282.173461914062 2921.98583984375 L 1293.140258789062 2915.1689453125 L 1282.173461914062 2930.28466796875 L 1271.191284179688 2915.1689453125 Z" stroke="none" fill="#252362"/>
      </g>
      <path id="Path_21028" data-name="Path 21028" d="M1282.557,2895.1v23.119" transform="translate(-1271.649 -2894.171)" fill="none" stroke="#252362" stroke-width="1"/>
      <path id="Path_21029" data-name="Path 21029" d="M1271.439,2912.928l10.448-3.7,10.6,3.7" transform="translate(-1271.201 -2894.74)" fill="none" stroke="#252362" stroke-width="1"/>
      <path id="Path_21030" data-name="Path 21030" d="M1282.557,2923.044v6.447" transform="translate(-1271.649 -2895.296)" fill="none" stroke="#252362" stroke-width="1"/>
    </g>
  </g>
</svg>
