<svg width="1123" height="638" viewBox="0 0 1123 638" fill="none" xmlns="http://www.w3.org/2000/svg">
<path d="M289.68 402.469C335.206 384.362 372.916 351.122 396.365 308.486C419.793 265.849 427.485 216.477 418.109 168.851C408.713 121.225 382.853 78.3186 344.956 47.5313C307.017 16.744 259.454 -0.0112767 210.394 0.134241C161.334 0.300546 113.853 17.3469 76.1227 48.3836C38.3921 79.4204 12.7811 122.473 3.67585 170.161C-5.42937 217.849 2.5325 267.179 26.2103 309.67C49.888 352.162 87.8057 385.152 133.436 402.968L143.684 377.336C104.083 361.87 71.1751 333.224 50.6156 296.345C30.0561 259.467 23.1336 216.643 31.0539 175.254C38.9534 133.865 61.1968 96.4875 93.959 69.546C126.7 42.6045 167.923 27.8033 210.498 27.6578C253.072 27.5123 294.378 42.064 327.286 68.7976C360.193 95.5313 382.645 132.763 390.794 174.09C398.943 215.438 392.27 258.282 371.918 295.306C351.566 332.309 318.825 361.163 279.327 376.879L289.721 402.427L289.68 402.469Z" fill="url(#paint0_linear_26_232)"/>
<path d="M397.903 511.856C391.646 505.62 382.395 504.227 374.807 507.678L323.274 456.269H360.505C363.436 464.064 370.982 469.636 379.817 469.636C391.189 469.636 400.398 460.426 400.398 449.076C400.398 437.726 391.189 428.537 379.817 428.537C370.982 428.537 363.436 434.088 360.505 441.883H308.867L221.183 354.386L218.189 351.392V296.99L227.315 297.301H227.648C246.981 296.719 284.4 291.502 317.64 263.25C367.594 220.801 368.654 158.956 368.363 146.982L368.114 136.921L358.031 136.858C341.297 136.775 324.791 139.062 308.805 143.739C293.588 148.188 279.057 154.715 265.628 163.134C265.275 163.342 264.921 163.571 264.589 163.8C256.938 116.527 226.505 85.2411 219.374 78.4642L212.078 71.5417L204.906 78.6097C193.056 90.2926 182.995 103.618 174.991 118.211C167.362 132.098 161.729 146.961 158.195 162.407C158.049 162.989 157.924 163.592 157.8 164.195C157.259 163.841 156.698 163.488 156.157 163.134C142.728 154.715 128.197 148.188 112.98 143.739C96.9733 139.062 80.4051 136.796 63.7537 136.858L53.6715 136.921L53.422 146.982C53.1102 158.935 54.1288 220.759 104.145 263.25C137.386 291.502 174.783 296.719 194.117 297.301H194.47L203.783 296.99V351.392L200.79 354.386L113.105 441.883H61.467C58.5359 434.088 50.9898 428.537 42.1548 428.537C30.7837 428.537 21.5745 437.726 21.5745 449.076C21.5745 460.426 30.7837 469.636 42.1548 469.636C50.9898 469.636 58.5359 464.064 61.467 456.269H98.6987L47.1648 507.678C39.5771 504.227 30.3055 505.62 24.0691 511.856C16.024 519.881 16.024 532.894 24.0691 540.918C32.1141 548.943 45.1483 548.943 53.1933 540.918C59.4298 534.682 60.8434 525.452 57.3718 517.885L152.561 422.862V516.43C144.745 519.34 139.173 526.865 139.173 535.68C139.173 547.03 148.382 556.239 159.754 556.239C171.125 556.239 180.355 547.03 180.355 535.68C180.355 526.865 174.783 519.361 166.967 516.451V408.498L203.783 371.744V596.236C195.904 599.146 190.291 606.713 190.291 615.59C190.291 627.002 199.563 636.253 210.997 636.253C222.43 636.253 231.681 627.002 231.681 615.59C231.681 606.713 226.068 599.146 218.189 596.236V371.744L255.005 408.498V516.43C247.189 519.34 241.618 526.865 241.618 535.68C241.618 547.03 250.848 556.239 262.219 556.239C273.59 556.239 282.799 547.03 282.799 535.68C282.799 526.845 277.228 519.34 269.411 516.43V422.862L364.58 517.864C361.129 525.431 362.522 534.682 368.779 540.918C376.824 548.943 389.858 548.943 397.903 540.918C405.948 532.894 405.948 519.881 397.903 511.856ZM265.898 196.458C266.106 193.755 266.231 191.095 266.293 188.454C269.37 185.773 272.821 183.154 276.666 180.742C288.474 173.341 301.238 167.604 314.626 163.696C325.29 160.578 336.245 158.665 347.284 157.937C345.891 177.873 338.615 218.14 304.169 247.41C278.995 268.801 250.931 274.746 233.281 276.181C246.378 260.132 262.946 233.045 265.898 196.458ZM117.595 247.41C83.1283 218.119 75.8525 177.873 74.4804 157.937C85.5398 158.665 96.4744 160.578 107.139 163.696C120.526 167.604 133.29 173.341 145.098 180.742C149.048 183.216 152.54 185.877 155.679 188.642C156.157 203.609 159.67 215.5 161.749 222.485L162.248 224.148C168.609 246.017 179.253 263.334 189.813 276.264C172.289 275.037 143.414 269.362 117.595 247.41ZM197.027 209.638L196.175 208.099C192.703 201.717 186.799 190.866 176.571 179.973C176.842 175.857 177.424 171.533 178.463 167.043C181.56 153.468 186.529 140.413 193.202 128.21C198.544 118.481 204.926 109.397 212.244 101.103C223.864 114.428 243.551 142.284 245.401 179.765C235.048 190.741 229.082 201.697 225.59 208.12L224.758 209.658C218.044 221.799 213.678 233.897 210.893 245.248C208.107 233.897 203.741 221.82 197.027 209.638Z" fill="#EF7D7E"/>
<path d="M546.904 379.229C535.958 379.229 526.153 377.135 517.488 372.968C508.843 368.781 502.085 362.956 497.255 355.472C492.404 347.989 490 339.261 490 329.29V264.405H512.14V329.083C512.14 335.82 513.715 341.666 516.907 346.579C520.079 351.492 524.329 355.265 529.656 357.898C534.963 360.53 540.644 361.857 546.676 361.857C552.708 361.857 558.617 360.53 563.944 357.898C569.251 355.265 573.542 351.492 576.797 346.579C580.051 341.666 581.668 335.841 581.668 329.083V264.405H603.808V329.29C603.808 339.261 601.341 347.989 596.428 355.472C591.515 362.956 584.757 368.781 576.196 372.968C567.613 377.156 557.87 379.229 546.904 379.229Z" fill="#316072"/>
<path d="M641.911 376.596V216H663.823V311.462H697.157L729.06 264.384H753.356L718.84 314.53C730.263 317.619 739.197 323.361 745.624 331.799C752.05 340.236 755.263 350.02 755.263 361.173V376.576H733.123V361.173C733.123 355.016 731.652 349.523 728.729 344.672C725.785 339.842 721.701 335.986 716.456 333.125C711.212 330.265 705.179 328.834 698.359 328.834H663.843V376.576H641.932L641.911 376.596Z" fill="#316072"/>
<path d="M800.972 246.577C797.013 246.577 793.551 245.229 790.607 242.514C787.664 239.798 786.212 236.606 786.212 232.936C786.212 229.267 787.684 226.075 790.607 223.359C793.551 220.643 796.992 219.296 800.972 219.296C804.953 219.296 808.394 220.643 811.337 223.359C814.281 226.075 815.732 229.267 815.732 232.936C815.732 236.606 814.26 239.798 811.337 242.514C808.394 245.229 804.953 246.577 800.972 246.577ZM789.778 376.576V264.384H811.918V376.576H789.778Z" fill="#316072"/>
<path d="M895.729 378.358C886.836 377.177 878.938 374.44 872.035 370.108C865.132 365.775 859.68 360.136 855.72 353.171C851.74 346.206 849.771 338.245 849.771 329.311V264.425H871.91V329.103C871.91 335.841 873.486 341.687 876.678 346.6C879.85 351.513 884.1 355.286 889.427 357.918C894.734 360.551 900.414 361.878 906.447 361.878C912.479 361.878 918.387 360.551 923.715 357.918C929.022 355.286 933.313 351.513 936.568 346.6C939.822 341.687 941.439 335.861 941.439 329.103V264.425H963.351V329.311C963.351 338.266 961.402 346.185 957.526 353.067C953.629 359.971 948.239 365.568 941.336 369.9C934.432 374.233 926.534 377.052 917.641 378.379V421.27H895.729V378.358Z" fill="#316072"/>
<path d="M1058.59 379.229C1046.21 379.229 1035.24 376.617 1025.73 371.414C1016.21 366.211 1008.67 359.163 1003.11 350.29C997.557 341.418 994.779 331.488 994.779 320.48C994.779 309.472 997.557 299.543 1003.11 290.67C1008.67 281.798 1016.21 274.749 1025.73 269.546C1035.24 264.343 1046.21 261.731 1058.59 261.731C1070.96 261.731 1081.95 264.343 1091.57 269.546C1101.17 274.749 1108.71 281.798 1114.18 290.67C1119.66 299.543 1122.39 309.472 1122.39 320.48C1122.39 331.488 1119.66 341.418 1114.18 350.29C1108.71 359.163 1101.17 366.211 1091.57 371.414C1081.97 376.617 1070.96 379.229 1058.59 379.229ZM1058.84 361.858C1067.09 361.858 1074.32 360.033 1080.5 356.364C1086.7 352.695 1091.53 347.74 1095.03 341.521C1098.51 335.281 1100.27 328.295 1100.27 320.522C1100.27 312.748 1098.53 305.741 1095.03 299.522C1091.53 293.282 1086.7 288.348 1080.5 284.679C1074.3 281.01 1067.09 279.186 1058.84 279.186C1050.58 279.186 1043.08 281.031 1036.82 284.679C1030.54 288.348 1025.67 293.303 1022.18 299.522C1018.68 305.762 1016.94 312.769 1016.94 320.522C1016.94 328.275 1018.68 335.302 1022.18 341.521C1025.67 347.761 1030.56 352.715 1036.82 356.364C1043.08 360.033 1050.44 361.858 1058.84 361.858Z" fill="#316072"/>
<defs>
<linearGradient id="paint0_linear_26_232" x1="0.0065918" y1="318.193" x2="422" y2="318.193" gradientUnits="userSpaceOnUse">
<stop stopColor="#406474"/>
<stop offset="1" stopColor="#EF7D7E"/>
</linearGradient>
</defs>
</svg>
