<svg width="1121" height="638" viewBox="0 0 1121 638" fill="none" xmlns="http://www.w3.org/2000/svg">
<path d="M290.696 403.26C336.327 385.112 374.124 351.796 397.627 309.061C421.109 266.326 428.818 216.841 419.421 169.106C410.003 121.371 384.083 78.3651 346.099 47.507C308.074 16.6489 260.401 -0.14491 211.228 0.000942077C162.055 0.16763 114.466 17.2531 76.6484 48.3612C38.8311 79.4694 13.1612 122.621 4.035 170.418C-5.09116 218.216 2.88902 267.66 26.6212 310.249C50.3534 352.837 88.3582 385.904 134.093 403.76L144.365 378.07C104.673 362.568 71.6894 333.856 51.0826 296.893C30.4759 259.93 23.5375 217.008 31.476 175.523C39.3936 134.039 61.6882 96.5757 94.5257 69.5723C127.342 42.5688 168.66 27.7336 211.332 27.5878C254.004 27.4419 295.405 42.0271 328.389 68.8222C361.372 95.6172 383.875 132.934 392.043 174.356C400.21 215.799 393.522 258.742 373.124 295.851C352.725 332.939 319.908 361.859 280.32 377.611L290.738 403.219L290.696 403.26Z" fill="white"/>
<path d="M399.168 512.899C392.897 506.649 383.625 505.253 376.02 508.711L324.367 457.184H361.685C364.622 464.998 372.186 470.582 381.041 470.582C392.438 470.582 401.669 461.351 401.669 449.975C401.669 438.598 392.438 429.389 381.041 429.389C372.186 429.389 364.622 434.952 361.685 442.766H309.928L222.042 355.067L219.041 352.067V297.539L228.188 297.851H228.522C247.899 297.268 285.404 292.038 318.721 263.722C368.79 221.175 369.852 159.188 369.561 147.186L369.311 137.102L359.205 137.039C342.432 136.956 325.888 139.248 309.865 143.936C294.614 148.395 280.049 154.937 266.589 163.376C266.235 163.584 265.881 163.814 265.547 164.043C257.88 116.662 227.376 85.3035 220.229 78.511L212.916 71.5726L205.727 78.6569C193.851 90.3667 183.766 103.723 175.744 118.349C168.097 132.268 162.451 147.166 158.909 162.647C158.763 163.23 158.638 163.834 158.513 164.439C157.971 164.084 157.409 163.73 156.867 163.376C143.407 154.937 128.842 148.395 113.591 143.936C97.5468 139.248 80.9406 136.977 64.2509 137.039L54.1455 137.102L53.8955 147.186C53.5829 159.167 54.6039 221.133 104.735 263.722C138.052 292.038 175.536 297.268 194.913 297.851H195.268L204.602 297.539V352.067L201.602 355.067L113.716 442.766H61.959C59.0211 434.952 51.4576 429.389 42.6024 429.389C31.2051 429.389 21.9747 438.598 21.9747 449.975C21.9747 461.351 31.2051 470.582 42.6024 470.582C51.4576 470.582 59.0211 464.998 61.959 457.184H99.2762L47.6238 508.711C40.0187 505.253 30.7259 506.649 24.4751 512.899C16.4115 520.942 16.4115 533.986 24.4751 542.028C32.5386 550.071 45.6027 550.071 53.6663 542.028C59.9171 535.777 61.3339 526.526 57.8543 518.942L153.262 423.701V517.483C145.428 520.401 139.844 527.943 139.844 536.778C139.844 548.154 149.074 557.384 160.471 557.384C171.869 557.384 181.12 548.154 181.12 536.778C181.12 527.943 175.536 520.421 167.702 517.504V409.303L204.602 372.465V597.473C196.705 600.39 191.08 607.974 191.08 616.871C191.08 628.31 200.372 637.582 211.832 637.582C223.292 637.582 232.564 628.31 232.564 616.871C232.564 607.974 226.938 600.39 219.041 597.473V372.465L255.942 409.303V517.483C248.108 520.401 242.524 527.943 242.524 536.778C242.524 548.154 251.775 557.384 263.172 557.384C274.569 557.384 283.8 548.154 283.8 536.778C283.8 527.922 278.216 520.401 270.381 517.483V423.701L365.768 518.921C362.31 526.505 363.706 535.777 369.977 542.028C378.041 550.071 391.105 550.071 399.168 542.028C407.232 533.986 407.232 520.942 399.168 512.899ZM266.86 196.776C267.068 194.067 267.193 191.4 267.256 188.754C270.34 186.066 273.798 183.441 277.653 181.024C289.488 173.606 302.281 167.856 315.7 163.939C326.388 160.813 337.369 158.896 348.433 158.167C347.037 178.149 339.744 218.508 305.219 247.845C279.987 269.285 251.858 275.244 234.168 276.682C247.295 260.597 263.901 233.447 266.86 196.776ZM118.216 247.845C83.6701 218.487 76.3775 178.149 75.0023 158.167C86.0871 158.896 97.0468 160.813 107.736 163.939C121.154 167.856 133.947 173.606 145.782 181.024C149.741 183.504 153.241 186.171 156.388 188.942C156.867 203.944 160.388 215.862 162.472 222.863L162.972 224.53C169.348 246.449 180.016 263.805 190.6 276.765C173.036 275.536 144.094 269.848 118.216 247.845ZM197.83 209.986L196.976 208.444C193.497 202.048 187.579 191.171 177.328 180.253C177.599 176.128 178.182 171.794 179.224 167.293C182.328 153.687 187.308 140.602 193.997 128.372C199.351 118.62 205.748 109.515 213.082 101.201C224.73 114.557 244.461 142.477 246.316 180.045C235.939 191.046 229.959 202.027 226.459 208.465L225.626 210.007C218.896 222.175 214.52 234.302 211.728 245.678C208.936 234.302 204.56 222.196 197.83 209.986Z" fill="white"/>
<path d="M545.225 379.385C534.279 379.385 524.474 377.291 515.809 373.125C507.164 368.937 500.406 363.112 495.576 355.628C490.725 348.145 488.32 339.417 488.32 329.446V264.561H510.46V329.239C510.46 335.976 512.036 341.822 515.228 346.735C518.4 351.648 522.65 355.421 527.977 358.054C533.284 360.687 538.964 362.013 544.997 362.013C551.029 362.013 556.937 360.687 562.265 358.054C567.572 355.421 571.863 351.648 575.118 346.735C578.372 341.822 579.989 335.997 579.989 329.239V264.561H602.129V329.446C602.129 339.417 599.662 348.145 594.749 355.628C589.836 363.112 583.078 368.937 574.516 373.125C565.934 377.312 556.191 379.385 545.225 379.385Z" fill="white"/>
<path d="M640.232 376.753V216.156H662.143V311.618H695.477L727.381 264.54H751.677L717.161 314.687C728.583 317.775 737.518 323.518 743.945 331.955C750.371 340.392 753.584 350.177 753.584 361.329V376.732H731.444V361.329C731.444 355.172 729.972 349.679 727.049 344.828C724.106 339.998 720.022 336.142 714.777 333.281C709.532 330.421 703.5 328.99 696.68 328.99H662.164V376.732H640.252L640.232 376.753Z" fill="white"/>
<path d="M799.293 246.733C795.334 246.733 791.872 245.386 788.928 242.67C785.984 239.954 784.533 236.762 784.533 233.093C784.533 229.423 786.005 226.231 788.928 223.515C791.872 220.8 795.313 219.452 799.293 219.452C803.273 219.452 806.714 220.8 809.658 223.515C812.602 226.231 814.053 229.423 814.053 233.093C814.053 236.762 812.581 239.954 809.658 242.67C806.714 245.386 803.273 246.733 799.293 246.733ZM788.099 376.732V264.54H810.239V376.732H788.099Z" fill="white"/>
<path d="M894.05 378.514C885.157 377.333 877.259 374.596 870.355 370.264C863.452 365.931 858 360.293 854.041 353.327C850.061 346.362 848.091 338.402 848.091 329.467V264.582H870.231V329.26C870.231 335.997 871.807 341.843 874.999 346.756C878.171 351.669 882.42 355.442 887.748 358.074C893.055 360.707 898.735 362.034 904.767 362.034C910.8 362.034 916.708 360.707 922.036 358.074C927.343 355.442 931.634 351.669 934.888 346.756C938.143 341.843 939.76 336.018 939.76 329.26V264.582H961.672V329.467C961.672 338.422 959.723 346.341 955.846 353.224C951.949 360.127 946.559 365.724 939.656 370.057C932.753 374.389 924.855 377.208 915.962 378.535V421.426H894.05V378.514Z" fill="white"/>
<path d="M1056.91 379.386C1044.53 379.386 1033.57 376.774 1024.05 371.57C1014.53 366.367 1006.99 359.319 1001.43 350.446C995.878 341.574 993.1 331.644 993.1 320.636C993.1 309.629 995.878 299.699 1001.43 290.826C1006.99 281.954 1014.53 274.906 1024.05 269.702C1033.57 264.499 1044.53 261.887 1056.91 261.887C1069.28 261.887 1080.27 264.499 1089.89 269.702C1099.49 274.906 1107.03 281.954 1112.51 290.826C1117.98 299.699 1120.71 309.629 1120.71 320.636C1120.71 331.644 1117.98 341.574 1112.51 350.446C1107.03 359.319 1099.49 366.367 1089.89 371.57C1080.29 376.774 1069.28 379.386 1056.91 379.386ZM1057.16 362.014C1065.41 362.014 1072.64 360.189 1078.82 356.52C1085.02 352.851 1089.85 347.896 1093.35 341.677C1096.83 335.438 1098.6 328.452 1098.6 320.678C1098.6 312.904 1096.85 305.897 1093.35 299.678C1089.85 293.438 1085.02 288.505 1078.82 284.835C1072.62 281.166 1065.41 279.342 1057.16 279.342C1048.91 279.342 1041.4 281.187 1035.14 284.835C1028.86 288.505 1023.99 293.459 1020.51 299.678C1017 305.918 1015.26 312.925 1015.26 320.678C1015.26 328.431 1017 335.458 1020.51 341.677C1023.99 347.917 1028.88 352.872 1035.14 356.52C1041.4 360.189 1048.76 362.014 1057.16 362.014Z" fill="white"/>
</svg>
