<svg xmlns="http://www.w3.org/2000/svg" width="44" height="44" viewBox="0 0 44 44">
  <g id="Group_21611" data-name="Group 21611" transform="translate(-1777 -20)">
    <circle id="Ellipse_155" data-name="Ellipse 155" cx="22" cy="22" r="22" transform="translate(1777 20)" fill="#e9666b"/>
    <g id="Group_1115" data-name="Group 1115" transform="translate(1526.798 2661.69)">
      <path id="Path_41" data-name="Path 41" d="M266.168-2428.536h.3q4.237,0,8.474,0a1.976,1.976,0,0,1,.45.035.978.978,0,0,1,.72.98.968.968,0,0,1-.854.911,2.394,2.394,0,0,1-.271.014h-9.675a.983.983,0,0,1-1.076-.71,1.1,1.1,0,0,1-.034-.29c0-.778-.005-1.556,0-2.333a4.318,4.318,0,0,1,3.525-4.112,5.589,5.589,0,0,1,.856-.074q3.274-.009,6.548,0a4.3,4.3,0,0,1,4.268,3.31,4.143,4.143,0,0,1,.115.894c.016.77.008,1.541.006,2.311a.958.958,0,0,1-.947,1,.968.968,0,0,1-.992-.986c-.008-.732,0-1.465,0-2.2a2.348,2.348,0,0,0-1.888-2.335,2.627,2.627,0,0,0-.562-.055c-2.175,0-4.351-.008-6.526,0a2.326,2.326,0,0,0-2.424,2.024A11.13,11.13,0,0,0,266.168-2428.536Z" transform="translate(0 -183.422)" fill="#fff"/>
      <path id="Path_42" data-name="Path 42" d="M306.4-2629.362a5.439,5.439,0,0,1,5.427,5.435,5.441,5.441,0,0,1-5.458,5.428,5.432,5.432,0,0,1-5.414-5.469A5.436,5.436,0,0,1,306.4-2629.362Zm-.013,1.943a3.488,3.488,0,0,0-3.487,3.6,3.487,3.487,0,0,0,3.54,3.382,3.489,3.489,0,0,0,3.444-3.593A3.5,3.5,0,0,0,306.392-2627.419Z" transform="translate(-34.534 0)" fill="#fff"/>
    </g>
  </g>
</svg>
