<svg xmlns="http://www.w3.org/2000/svg" width="123.343" height="61.945" viewBox="0 0 123.343 61.945">
  <g id="Group_48864" data-name="Group 48864" transform="translate(-974.647 -145.843)">
    <g id="Group_48862" data-name="Group 48862" transform="translate(1026.609 166.001)">
      <path id="Path_109907" data-name="Path 109907" d="M1219.787,275.985a6.51,6.51,0,0,1-3.053-.7,5.189,5.189,0,0,1-2.1-1.957,5.578,5.578,0,0,1-.754-2.93v-7.263h2.167v7.238a3.706,3.706,0,0,0,.5,1.957,3.468,3.468,0,0,0,2.023,1.551,3.591,3.591,0,0,0,.869.154,3.847,3.847,0,0,0,2.037-.437,3.486,3.486,0,0,0,1.348-1.268,3.641,3.641,0,0,0,.512-1.957v-7.238h2.364V270.4a5.512,5.512,0,0,1-.767,2.93,5.3,5.3,0,0,1-2.1,1.957A6.438,6.438,0,0,1,1219.787,275.985Z" transform="translate(-1213.878 -257.815)" fill="#fff"/>
      <path id="Path_109908" data-name="Path 109908" d="M1292.771,256.573V238.649h2.364v10.636h3.447l3.3-5.318h2.511l-3.57,5.666a4.977,4.977,0,0,1,2.77,1.951,5.654,5.654,0,0,1,1,3.318v1.671h-2.364v-1.715a3.588,3.588,0,0,0-.47-1.838,3.471,3.471,0,0,0-1.309-1.287,3.835,3.835,0,0,0-1.932-.478h-3.38v5.318Z" transform="translate(-1275.635 -238.649)" fill="#fff"/>
      <path id="Path_109909" data-name="Path 109909" d="M1370.152,243.331a1.556,1.556,0,1,1,1.071-.456A1.465,1.465,0,0,1,1370.152,243.331Zm-1.26,14.517V245.242h2.364v12.606Z" transform="translate(-1335.013 -239.924)" fill="#fff"/>
      <path id="Path_109910" data-name="Path 109910" d="M1410.851,280.663v-4.794a5.706,5.706,0,0,1-2.437-.922,5.13,5.13,0,0,1-1.678-1.893,5.655,5.655,0,0,1-.612-2.668v-7.253h2.167v7.238a3.706,3.706,0,0,0,.5,1.957,3.469,3.469,0,0,0,2.023,1.551,3.592,3.592,0,0,0,.869.154,3.846,3.846,0,0,0,2.037-.437,3.485,3.485,0,0,0,1.348-1.268,3.642,3.642,0,0,0,.511-1.957v-7.238h2.167v7.253a5.656,5.656,0,0,1-.6,2.655,5.062,5.062,0,0,1-1.674,1.881,6,6,0,0,1-2.45.947v4.794Z" transform="translate(-1364.367 -257.815)" fill="#fff"/>
      <path id="Path_109911" data-name="Path 109911" d="M1488.348,275.3a6.547,6.547,0,0,1-3.4-.874,6.453,6.453,0,0,1-2.339-2.363,6.89,6.89,0,0,1,0-6.672,6.461,6.461,0,0,1,2.339-2.364,6.549,6.549,0,0,1,3.4-.874,6.616,6.616,0,0,1,3.41.874,6.339,6.339,0,0,1,2.339,2.364,6.976,6.976,0,0,1,0,6.672,6.332,6.332,0,0,1-2.339,2.363A6.614,6.614,0,0,1,1488.348,275.3Zm.025-1.945a4.061,4.061,0,0,0,2.241-.616,4.258,4.258,0,0,0,1.5-1.662,5.374,5.374,0,0,0,0-4.7,4.264,4.264,0,0,0-1.5-1.662,4.064,4.064,0,0,0-2.241-.616,4.169,4.169,0,0,0-2.277.616,4.227,4.227,0,0,0-1.514,1.662,5.374,5.374,0,0,0,0,4.7,4.222,4.222,0,0,0,1.514,1.662A4.165,4.165,0,0,0,1488.373,273.358Z" transform="translate(-1423.567 -257.049)" fill="#fff"/>
    </g>
    <g id="Group_48863" data-name="Group 48863" transform="translate(974.647 145.843)">
      <path id="Path_109912" data-name="Path 109912" d="M986.4,185.232l.966.5.99-1.933-.967-.5a19.4,19.4,0,0,1-7.864-7.348,18.191,18.191,0,0,1,5.769-24.94,19.227,19.227,0,0,1,14.138-2.582,18.889,18.889,0,0,1,10.142,6.025,19.092,19.092,0,0,1,4.611,12.172,18.2,18.2,0,0,1-10.538,16.743l-.984.46.92,1.968.984-.46a20.371,20.371,0,0,0,11.791-18.724,21.3,21.3,0,0,0-5.144-13.583,21.08,21.08,0,0,0-11.32-6.722,21.452,21.452,0,0,0-15.779,2.881,20.363,20.363,0,0,0-6.458,27.87A21.561,21.561,0,0,0,986.4,185.232Z" transform="translate(-974.647 -145.843)" fill="#fff"/>
      <path id="Path_109913" data-name="Path 109913" d="M1020.183,221.68a1.933,1.933,0,0,0-.709.136l-4.781-4.781h3.242a1.945,1.945,0,1,0,.108-1.474h-4.824l-8.968-8.968-.016.017V201.38l.939.033h.035a14.282,14.282,0,0,0,8.77-3.325,14.946,14.946,0,0,0,4.942-11.35l-.026-1.053-1.053-.006a16.724,16.724,0,0,0-9,2.565h0a15.534,15.534,0,0,0-4.384-8.213l-.763-.726-.749.741a16.727,16.727,0,0,0-4.548,8.175c0,.022-.008.044-.013.066l-.065-.043a16.738,16.738,0,0,0-4.2-1.892,16.451,16.451,0,0,0-4.792-.673l-1.054.006-.026,1.053a14.945,14.945,0,0,0,4.942,11.35,14.281,14.281,0,0,0,8.77,3.325h.035l.985-.035v5.069l-9.112,9.112h-4.935a1.943,1.943,0,1,0,.085,1.474h3.376l-4.83,4.83a1.939,1.939,0,1,0,.987,1.006l9.211-9.211v9.011a1.945,1.945,0,1,0,1.474-.035v-10.45l3.744-3.744V230.2a1.944,1.944,0,1,0,1.26,0V208.568l3.321,3.321v10.8a1.944,1.944,0,1,0,1.626,0v-9.17l9.257,9.257a1.943,1.943,0,1,0,1.745-1.092Zm-6.526-33.244a14.556,14.556,0,0,1,3.058-.549,12.45,12.45,0,0,1-4.146,8.547,11.989,11.989,0,0,1-6.643,2.758,14.129,14.129,0,0,0,3.064-7.641c.02-.252.03-.5.036-.745a7.785,7.785,0,0,1,.973-.723A14.554,14.554,0,0,1,1013.657,188.435Zm-11.719-3.483a14.543,14.543,0,0,1,1.774-2.551,12.764,12.764,0,0,1,3.133,7.5,12.7,12.7,0,0,0-1.908,2.741l-.081.149a14.167,14.167,0,0,0-1.274,3.178,14.154,14.154,0,0,0-1.273-3.178l-.081-.149a12.734,12.734,0,0,0-1.888-2.72,7.78,7.78,0,0,1,.177-1.216A14.554,14.554,0,0,1,1001.938,184.952Zm-11.49,2.934a14.554,14.554,0,0,1,6.716,2.2,7.777,7.777,0,0,1,.991.74,12.718,12.718,0,0,0,.588,3.268l.048.164a14.384,14.384,0,0,0,2.577,4.949,12,12,0,0,1-6.775-2.769A12.45,12.45,0,0,1,990.448,187.886Z" transform="translate(-982.606 -172.036)" fill="#fff"/>
    </g>
  </g>
</svg>
