<svg xmlns="http://www.w3.org/2000/svg" width="24.357" height="16.722" viewBox="0 0 24.357 16.722">
  <g id="Group_35" data-name="Group 35" transform="translate(174.644 2555.299)" opacity="0.8">
    <path id="Path_43" data-name="Path 43" d="M-162.511-2429.509c.571-.408,1.094-.849,1.677-1.188a7.079,7.079,0,0,1,10.361,4.542,9.94,9.94,0,0,1,.183,1.522.837.837,0,0,1-.915.954c-.717.008-1.434,0-2.151,0h-7.567q-6.332,0-12.664,0a1.655,1.655,0,0,1-.5-.056.822.822,0,0,1-.56-.843,6.826,6.826,0,0,1,1.611-4.444,6.906,6.906,0,0,1,5.973-2.573,6.857,6.857,0,0,1,4.374,1.926Zm-10.346,4.1h10.59a5.382,5.382,0,0,0-5.281-4.5A5.382,5.382,0,0,0-172.857-2425.411Zm20.815.011a5.282,5.282,0,0,0-3.769-4.264,5.2,5.2,0,0,0-5.486,1.467c-.1.1-.091.172-.04.3.229.553.452,1.109.649,1.675a6.267,6.267,0,0,1,.172.826Z" transform="translate(0 -114.902)" fill="#fff"/>
    <path id="Path_44" data-name="Path 44" d="M-130.549-2555.3a4.243,4.243,0,0,1,4.232,4.347,4.25,4.25,0,0,1-4.29,4.16,4.274,4.274,0,0,1-4.213-4.377A4.281,4.281,0,0,1-130.549-2555.3Zm-.007,6.792a2.551,2.551,0,0,0,2.54-2.556,2.548,2.548,0,0,0-2.57-2.523,2.551,2.551,0,0,0-2.528,2.54A2.553,2.553,0,0,0-130.557-2548.506Z" transform="translate(-36.997 0)" fill="#fff"/>
    <path id="Path_45" data-name="Path 45" d="M13.273-2555.3a4.243,4.243,0,0,1,4.241,4.312,4.262,4.262,0,0,1-4.255,4.2,4.261,4.261,0,0,1-4.241-4.319A4.246,4.246,0,0,1,13.273-2555.3Zm-.011,6.792a2.552,2.552,0,0,0,2.554-2.542,2.549,2.549,0,0,0-2.531-2.536,2.552,2.552,0,0,0-2.567,2.527A2.553,2.553,0,0,0,13.262-2548.505Z" transform="translate(-170.631 -0.001)" fill="#fff"/>
  </g>
</svg>
