<svg xmlns="http://www.w3.org/2000/svg" width="22.566" height="21.223" viewBox="0 0 22.566 21.223">
  <g id="Group_36" data-name="Group 36" transform="translate(666.543 2571.396)" opacity="0.8">
    <path id="Path_46" data-name="Path 46" d="M-644.127-2566.175c-.053.238-.1.48-.161.715a4.546,4.546,0,0,1-4.385,3.369c-1.869.013-3.737,0-5.606,0h-.267v1.4c.454.057.905.112,1.356.17.76.1,1.525.172,2.279.3a1.909,1.909,0,0,1,1.566,1.9q.005,3.617,0,7.236a.679.679,0,0,1-.761.765c-1.123,0-2.245,0-3.368,0h-4.172c-.592,0-.826-.236-.826-.829,0-.652.006-1.3-.006-1.956a.43.43,0,0,0-.134-.286c-.876-.748-1.759-1.486-2.642-2.225a1.845,1.845,0,0,1-.639-2.077A2.028,2.028,0,0,1-660.06-2559a2.166,2.166,0,0,1,1.57.592v-3.679h-.235c-1.072,0-2.144.007-3.216,0a4.567,4.567,0,0,1-4.4-3.96,4.559,4.559,0,0,1,3.614-5.092,4.434,4.434,0,0,1,.926-.1q6.541-.009,13.081,0a4.572,4.572,0,0,1,4.549,3.973.4.4,0,0,0,.041.1Zm-14.343,2.781v-.233c0-.573,0-1.145,0-1.717a1.958,1.958,0,0,1,1.952-1.947,1.963,1.963,0,0,1,1.956,1.967c0,.565,0,1.13,0,1.695v.236h.294q2.694,0,5.388,0a5.613,5.613,0,0,0,.627-.038,3.28,3.28,0,0,0,2.813-3.414,3.26,3.26,0,0,0-3.308-3.077q-6.507,0-13.015,0a3.706,3.706,0,0,0-.6.047,3.268,3.268,0,0,0-2.709,3.373,3.268,3.268,0,0,0,3.112,3.1C-660.81-2563.365-659.658-2563.393-658.471-2563.393Zm7.823,9.142v-.277q0-1.847,0-3.693a.673.673,0,0,0-.59-.736c-.25-.036-.5-.062-.753-.093-1.083-.133-2.167-.262-3.249-.4a.654.654,0,0,1-.622-.725c0-.68,0-1.361,0-2.041,0-1.014,0-2.028,0-3.042a.649.649,0,0,0-.72-.706.657.657,0,0,0-.583.733q0,4.073,0,8.145a.668.668,0,0,1-.388.688.671.671,0,0,1-.76-.147c-.372-.322-.752-.635-1.13-.95a.784.784,0,0,0-.873-.116.541.541,0,0,0-.158.934c.053.049.109.095.165.141.849.712,1.7,1.42,2.544,2.137a.586.586,0,0,0,.409.151q3.226-.007,6.451,0Zm-6.506,1.332v1.26h6.489v-1.26Z" transform="translate(0 0)" fill="#fff" stroke="#696a7b" stroke-width="0.3"/>
    <path id="Path_47" data-name="Path 47" d="M-519.41-2539.885l1.761-1.762c.117-.118.234-.237.353-.353a.658.658,0,0,1,.965-.043.653.653,0,0,1-.036.964q-1.178,1.185-2.362,2.364c-.077.077-.151.157-.233.228a.628.628,0,0,1-.868,0q-.7-.668-1.364-1.367a.634.634,0,0,1,.028-.884.64.64,0,0,1,.9-.021C-519.977-2540.483-519.707-2540.19-519.41-2539.885Z" transform="translate(-131.948 -26.399)" fill="#fff" stroke="#696a7b" stroke-width="0.3"/>
  </g>
</svg>
