<svg xmlns="http://www.w3.org/2000/svg" width="24.303" height="21.092" viewBox="0 0 24.303 21.092">
  <path id="Path_48" data-name="Path 48" d="M-1053.792-2484.23c-.05.063-.1.124-.149.19q-1.8,2.6-3.61,5.191a.282.282,0,0,0,0,.384,3.454,3.454,0,0,1,0,3.872,3.493,3.493,0,0,1-3.541,1.488,3.488,3.488,0,0,1-2.781-2.786,3.463,3.463,0,0,1,3.6-4.111.588.588,0,0,0,.6-.293q1.786-2.609,3.6-5.2a.281.281,0,0,0-.01-.4,4.538,4.538,0,0,1,3.131-7.179,4.544,4.544,0,0,1,5.043,4.082,4.421,4.421,0,0,1-.848,3.086.26.26,0,0,0,0,.362q1.883,2.7,3.753,5.4a.294.294,0,0,0,.336.16,3.481,3.481,0,0,1,4.032,3.5,3.493,3.493,0,0,1-3.621,3.429,3.488,3.488,0,0,1-2.863-5.257.3.3,0,0,0-.016-.386q-1.877-2.688-3.744-5.381a.95.95,0,0,0-.179-.154.835.835,0,0,0-.066.223c0,1.342,0,2.682-.007,4.024a.276.276,0,0,0,.193.293,3.482,3.482,0,0,1,1.987,3.551,3.511,3.511,0,0,1-2.856,3.035,3.5,3.5,0,0,1-3.938-2.379,3.481,3.481,0,0,1,1.824-4.2.308.308,0,0,0,.213-.327c-.008-1.317,0-2.635,0-3.954v-.246Zm1.35-2.374a1.957,1.957,0,0,0,1.981-1.949,1.973,1.973,0,0,0-1.949-1.965,1.975,1.975,0,0,0-1.97,1.944A1.961,1.961,0,0,0-1052.443-2486.6Zm-7.091,10.073a.919.919,0,0,0-.916-.916.925.925,0,0,0-.9.906.915.915,0,0,0,.894.912A.911.911,0,0,0-1059.534-2476.531Zm8.016-.007a.908.908,0,0,0-.893-.91.909.909,0,0,0-.912.913.9.9,0,0,0,.916.9A.9.9,0,0,0-1051.518-2476.538Zm7.4.908a.915.915,0,0,0,.912-.894.928.928,0,0,0-.912-.923.921.921,0,0,0-.909.9A.91.91,0,0,0-1044.122-2475.629Z" transform="translate(1064.438 2493.602)" fill="#fff" stroke="#15313d" stroke-width="1" opacity="0.8"/>
</svg>
