<svg xmlns="http://www.w3.org/2000/svg" width="22.141" height="23.033" viewBox="0 0 22.141 23.033">
  <g id="Group_37" data-name="Group 37" transform="translate(1405.881 2514.448)" opacity="0.8">
    <path id="Path_49" data-name="Path 49" d="M-1394.5-2514.2a3.016,3.016,0,0,1,1.5.974c.224.23.483.429.688.675a1.1,1.1,0,0,0,1.176.362c.507-.1,1.024-.15,1.537-.218a1.97,1.97,0,0,1,2.206,1.767c.075.534.184,1.063.271,1.6a.818.818,0,0,0,.47.64c.507.257,1.009.525,1.509.8a1.957,1.957,0,0,1,.875,2.7q-.367.77-.75,1.532a.824.824,0,0,0,0,.794q.384.761.75,1.532a1.956,1.956,0,0,1-.878,2.7c-.48.262-.961.524-1.452.764a.928.928,0,0,0-.541.76c-.1.633-.2,1.268-.354,1.89a1.881,1.881,0,0,1-1.978,1.39c-.646-.064-1.289-.152-1.93-.253a.8.8,0,0,0-.737.228c-.418.409-.836.817-1.26,1.219a1.955,1.955,0,0,1-2.811,0c-.366-.347-.749-.68-1.082-1.056a1.117,1.117,0,0,0-1.176-.36c-.492.1-1,.144-1.494.215a1.975,1.975,0,0,1-2.251-1.762c-.075-.534-.184-1.062-.271-1.595a.83.83,0,0,0-.487-.651c-.5-.251-1-.519-1.489-.788a1.961,1.961,0,0,1-.879-2.7q.366-.771.75-1.532a.824.824,0,0,0,0-.794q-.385-.761-.75-1.532a1.961,1.961,0,0,1,.875-2.7c.48-.262.961-.524,1.452-.764a.928.928,0,0,0,.542-.76c.1-.625.2-1.253.349-1.868a1.877,1.877,0,0,1,2-1.412c.638.063,1.274.153,1.908.253a.8.8,0,0,0,.738-.227c.412-.4.834-.8,1.243-1.206a2.547,2.547,0,0,1,1.117-.608Zm5.1,19.378a.664.664,0,0,0,.685-.574c.092-.509.2-1.017.263-1.53a2.2,2.2,0,0,1,1.338-1.858c.456-.209.892-.465,1.335-.7a.666.666,0,0,0,.327-1c-.248-.513-.495-1.024-.75-1.532a2.022,2.022,0,0,1,0-1.912c.252-.5.495-1.008.739-1.513a.673.673,0,0,0-.335-1.032c-.5-.268-1-.535-1.508-.8a2.01,2.01,0,0,1-1.105-1.559c-.091-.583-.2-1.164-.307-1.744a.651.651,0,0,0-.731-.546c-.549.072-1.1.139-1.645.238a2.112,2.112,0,0,1-2.017-.621c-.377-.387-.775-.753-1.164-1.13a.677.677,0,0,0-1.072,0q-.63.609-1.26,1.219a1.873,1.873,0,0,1-1.528.573c-.66-.065-1.315-.175-1.972-.271a.665.665,0,0,0-.8.56c-.093.509-.2,1.017-.263,1.53a2.2,2.2,0,0,1-1.337,1.858c-.456.209-.892.465-1.335.7a.666.666,0,0,0-.328,1c.247.512.495,1.024.75,1.532a2.02,2.02,0,0,1,0,1.911c-.251.5-.494,1.008-.739,1.514a.673.673,0,0,0,.334,1.032c.5.268,1,.535,1.508.8a2.01,2.01,0,0,1,1.106,1.558c.09.576.2,1.149.3,1.723a.657.657,0,0,0,.755.568c.556-.078,1.113-.152,1.666-.244a2.123,2.123,0,0,1,1.975.629c.385.389.785.764,1.18,1.144a.67.67,0,0,0,1.04,0c.389-.375.788-.741,1.164-1.129a2.128,2.128,0,0,1,2.054-.632C-1390.514-2494.956-1389.947-2494.9-1389.4-2494.82Z" transform="translate(0 0)" fill="#fff" stroke="#fff" stroke-width="0.5"/>
    <path id="Path_50" data-name="Path 50" d="M-1371.293-2486c-.052.114-.1.232-.158.341a.8.8,0,0,1-.143.156l-7.314,7.316a.694.694,0,0,1-.513.267.545.545,0,0,1-.51-.321.54.54,0,0,1,.053-.583,1.523,1.523,0,0,1,.155-.171l7.328-7.33a.69.69,0,0,1,.5-.26A.61.61,0,0,1-1371.293-2486Z" transform="translate(-19.156 -20.724)" fill="#fff" stroke="#fff" stroke-width="0.5"/>
    <path id="Path_51" data-name="Path 51" d="M-1378.061-2486.384a2.1,2.1,0,0,1-2.091-2.083,2.092,2.092,0,0,1,2.086-2.1,2.092,2.092,0,0,1,2.091,2.081A2.1,2.1,0,0,1-1378.061-2486.384Zm.937-2.1a.932.932,0,0,0-.942-.939.934.934,0,0,0-.939.943.949.949,0,0,0,.943.946A.947.947,0,0,0-1377.124-2488.481Z" transform="translate(-19.028 -17.537)" fill="#fff" stroke="#fff" stroke-width="0.5"/>
    <path id="Path_52" data-name="Path 52" d="M-1355.394-2460.331a2.093,2.093,0,0,1,2.1,2.075,2.1,2.1,0,0,1-2.061,2.11,2.093,2.093,0,0,1-2.116-2.055A2.091,2.091,0,0,1-1355.394-2460.331Zm-.932,2.089a.932.932,0,0,0,.937.944.932.932,0,0,0,.944-.937.945.945,0,0,0-.937-.95A.944.944,0,0,0-1356.326-2458.242Z" transform="translate(-37.144 -41.694)" fill="#fff" stroke="#fff" stroke-width="0.5"/>
  </g>
</svg>
