<svg xmlns="http://www.w3.org/2000/svg" width="20.701" height="20.631" viewBox="0 0 20.701 20.631">
  <g id="Group_42" data-name="Group 42" transform="translate(323.435 3350.48)" opacity="0.8">
    <path id="Path_64" data-name="Path 64" d="M-285.7-3329.317a6,6,0,0,1-.5.644q-2.443,2.431-4.9,4.847a.871.871,0,0,1-1.2.157.852.852,0,0,1-.179-1.2,2.059,2.059,0,0,1,.2-.224l3.424-3.38c.047-.046.091-.1.176-.184h-.276q-4.761,0-9.522,0a1.867,1.867,0,0,1-.4-.025.862.862,0,0,1-.65-.9.851.851,0,0,1,.789-.781c.1-.007.2-.008.3-.008h9.753c-.077-.083-.122-.136-.171-.184q-1.733-1.712-3.468-3.422a.891.891,0,0,1-.3-.927.856.856,0,0,1,1.314-.47,1.882,1.882,0,0,1,.228.2q2.5,2.47,5,4.946a3.66,3.66,0,0,1,.368.516Z" transform="translate(-17.033 -10.645)" fill="#fff"/>
    <path id="Path_65" data-name="Path 65" d="M-323.435-3340.169q0-3.821,0-7.642a2.568,2.568,0,0,1,2.21-2.644,2.442,2.442,0,0,1,.423-.025q3.8,0,7.6,0a.853.853,0,0,1,.938.818.841.841,0,0,1-.738.885,2.865,2.865,0,0,1-.342.019q-3.669,0-7.338,0a1.593,1.593,0,0,0-.457.055.8.8,0,0,0-.563.736c0,.074,0,.148,0,.222q0,7.581,0,15.162a1.377,1.377,0,0,0,.051.437.782.782,0,0,0,.7.555,3.1,3.1,0,0,0,.323.013q3.659,0,7.318,0a1.718,1.718,0,0,1,.44.043.836.836,0,0,1,.6.93.836.836,0,0,1-.8.745c-.027,0-.054,0-.081,0-2.621,0-5.243.005-7.864-.01a2.547,2.547,0,0,1-2.378-2.106,3.919,3.919,0,0,1-.041-.562Q-323.437-3336.349-323.435-3340.169Z" transform="translate(0 0)" fill="#fff"/>
  </g>
</svg>
