<svg id="Group_21567" data-name="Group 21567" xmlns="http://www.w3.org/2000/svg" width="26.786" height="26.784" viewBox="0 0 26.786 26.784">
  <path id="Path_41584" data-name="Path 41584" d="M514.444,259.064c-.086.434-.146.876-.264,1.3a7.041,7.041,0,1,1,.2-2.861c.021.137.046.273.068.41Zm-7.9,3.207v.449c0,.157,0,.314,0,.471a.783.783,0,0,0,1.566.012,5.99,5.99,0,0,0,0-.679c-.014-.185.059-.264.223-.344a2.349,2.349,0,0,0,.3-4.076,2.4,2.4,0,0,0-1.329-.405.745.745,0,0,1-.7-.5.724.724,0,0,1,.144-.8.713.713,0,0,1,.829-.217,2.3,2.3,0,0,1,.576.345.8.8,0,0,0,1.148-.019.769.769,0,0,0-.111-1.153c-.321-.26-.689-.462-1.077-.716,0-.23,0-.526,0-.821a.784.784,0,1,0-1.567,0c0,.3,0,.59,0,.878a2.346,2.346,0,0,0-1.3,3.293,2.307,2.307,0,0,0,2.095,1.284.759.759,0,0,1,.714.485.728.728,0,0,1-.147.825.684.684,0,0,1-.83.2,2.946,2.946,0,0,1-.735-.518.81.81,0,0,0-1.145-.1.785.785,0,0,0-.02,1.162A3.3,3.3,0,0,0,506.545,262.271Z" transform="translate(-487.658 -241.959)" fill="#fff"/>
  <path id="Path_41585" data-name="Path 41585" d="M501.143,242.967c.3.234.609.457.9.7q2.417,2.061,4.826,4.133a.793.793,0,0,1-.534,1.441l-2.171,0a.65.65,0,0,0-.09.017v.424c0,.636,0,1.272,0,1.908a.322.322,0,0,1-.186.327,8.619,8.619,0,0,0-.027,15.135.353.353,0,0,1,.213.363c-.011.514,0,1.028-.007,1.542a.771.771,0,0,1-.779.784c-1.805.006-3.609,0-5.414,0a.4.4,0,0,1-.076-.02V249.244h-1.482c-.271,0-.54,0-.811,0a.794.794,0,0,1-.8-.514.777.777,0,0,1,.274-.908q2-1.722,4.009-3.439c.436-.374.872-.751,1.313-1.121.131-.11.28-.2.421-.3Z" transform="translate(-488.325 -242.967)" fill="#fff"/>
  <path id="Path_41586" data-name="Path 41586" d="M496.378,268.564h-3.125v-14.8a.811.811,0,0,1,.922-.933c.731,0,1.46,0,2.2,0Z" transform="translate(-488.492 -241.793)" fill="#fff"/>
  <path id="Path_41587" data-name="Path 41587" d="M492.119,267.905c-.807,0-1.6.012-2.389-.006a.769.769,0,0,1-.73-.83c0-.915,0-1.83,0-2.744q0-2.484,0-4.966a.807.807,0,0,1,.909-.92c.731,0,1.461,0,2.211,0Z" transform="translate(-488.998 -241.125)" fill="#fff"/>
</svg>
