<svg xmlns="http://www.w3.org/2000/svg" width="84" height="84" viewBox="0 0 84 84">
  <g id="Group_21573" data-name="Group 21573" transform="translate(-1093 -2176)">
    <g id="Ellipse_9265" data-name="Ellipse 9265" transform="translate(1093 2176)" fill="#fceeef" stroke="rgba(233,102,107,0.15)" stroke-width="1">
      <circle cx="42" cy="42" r="42" stroke="none"/>
      <circle cx="42" cy="42" r="41.5" fill="none"/>
    </g>
    <g id="Group_21569" data-name="Group 21569" transform="translate(731.847 2132.386)">
      <path id="Path_41589" data-name="Path 41589" d="M415.392,99.032a1.445,1.445,0,0,1-1.511.835q-9.207-.025-18.412-.01h-.462V70.633H406.39v.385q0,3.639,0,7.276A1.158,1.158,0,0,0,407.7,79.6h7.687Zm-11.33-17.178c-1.861,0-3.721,0-5.582,0a1.142,1.142,0,0,0-1.144.686,1.125,1.125,0,0,0,1.132,1.566q5.6,0,11.2,0a1.129,1.129,0,1,0-.025-2.248Q406.852,81.85,404.062,81.854Zm-.035,6.751q2.772,0,5.544,0c.8,0,1.312-.435,1.318-1.116s-.515-1.134-1.335-1.134h-2.549q-4.251,0-8.5,0a1.155,1.155,0,0,0-1.141.633,1.119,1.119,0,0,0,1.083,1.617C400.306,88.61,402.166,88.6,404.027,88.6Zm.08,2.251c-1.886,0-3.772,0-5.657,0a1.127,1.127,0,1,0,.01,2.248c.787,0,1.574,0,2.361,0q4.4,0,8.8,0a1.156,1.156,0,0,0,1.159-.664,1.12,1.12,0,0,0-1.094-1.587C407.828,90.851,405.966,90.856,404.107,90.856ZM400.691,79.6c.736,0,1.473,0,2.208,0a1.129,1.129,0,1,0,.015-2.25q-2.226,0-4.453,0a1.127,1.127,0,1,0-.015,2.248C399.194,79.607,399.943,79.6,400.691,79.6Z" transform="translate(7.168 0.013)" fill="#e9666b"/>
      <path id="Path_41590" data-name="Path 41590" d="M392.676,74.4c.89-.352,1.713-.671,2.529-1.011a.4.4,0,0,0,.193-.291c.022-.423.005-.85.01-1.273a1.128,1.128,0,0,1,1.19-1.205c1.086-.007,2.172,0,3.284,0v6.809a7.819,7.819,0,0,0-7,2.615,7.555,7.555,0,0,0-1.964,5.653,7.892,7.892,0,0,0,8.964,7.362v6.814h-1.939c-.438,0-.875,0-1.313,0a1.136,1.136,0,0,1-1.224-1.212c0-.425.01-.85-.008-1.275a.367.367,0,0,0-.163-.276c-.828-.342-1.664-.664-2.567-1.019-.294.305-.633.672-.988,1.024a1.121,1.121,0,0,1-1.72-.01q-1.529-1.519-3.048-3.048a1.127,1.127,0,0,1,.008-1.722c.334-.339.669-.674,1-1.011.008-.008.013-.022,0,0-.34-.867-.666-1.713-1.011-2.55a.374.374,0,0,0-.287-.148c-.425-.017-.85,0-1.275-.008a1.129,1.129,0,0,1-1.194-1.2q-.007-2.174,0-4.35a1.127,1.127,0,0,1,1.2-1.2c.425,0,.85.012,1.273-.01a.4.4,0,0,0,.3-.186c.339-.817.658-1.642,1.011-2.542-.3-.289-.664-.628-1.016-.981a1.125,1.125,0,0,1,0-1.72q1.519-1.529,3.05-3.048a1.123,1.123,0,0,1,1.72,0C392.038,73.726,392.379,74.091,392.676,74.4Z" transform="translate(0 0)" fill="#e9666b"/>
      <path id="Path_41591" data-name="Path 41591" d="M396.31,76.156v2.281a3.352,3.352,0,0,0-4.05,1.6,3.161,3.161,0,0,0,.153,3.508c.807,1.225,1.976,1.616,3.89,1.342v2.258a5.536,5.536,0,0,1-5.605-2.122,5.615,5.615,0,0,1,5.612-8.868Z" transform="translate(3.58 3.584)" fill="#e9666b"/>
      <path id="Path_41592" data-name="Path 41592" d="M403.235,71.076l5.952,5.952h-5.952Z" transform="translate(12.601 0.305)" fill="#e9666b"/>
      <path id="Path_41593" data-name="Path 41593" d="M394.533,79.858a1.123,1.123,0,1,1-1.127-1.111A1.137,1.137,0,0,1,394.533,79.858Z" transform="translate(5.371 5.371)" fill="#e9666b"/>
    </g>
  </g>
</svg>
