<svg width="41" height="41" viewBox="0 0 41 41" fill="none" xmlns="http://www.w3.org/2000/svg">
<path d="M20.5 41C31.8218 41 41 31.8218 41 20.5C41 9.17816 31.8218 0 20.5 0C9.17816 0 0 9.17816 0 20.5C0 31.8218 9.17816 41 20.5 41Z" fill="#E9666B"/>
<path d="M33 20.5C33 23.9688 32.4429 26.7813 31.7 26.7813C30.9571 26.7813 30.4 23.9688 30.4 20.5C30.4 17.0312 30.9571 14.2188 31.7 14.2188C32.4429 14.2188 33 17.0312 33 20.5ZM29.75 20.5C29.75 24.3438 28.0786 27.5312 26.1286 27.5312C24.1786 27.5312 22.5071 24.3438 22.5071 20.5C22.5071 16.6562 24.1786 13.4688 26.1286 13.4688C28.0786 13.4688 29.75 16.6562 29.75 20.5ZM21.6714 20.5C21.6714 24.625 18.4214 28 14.3357 28C10.25 28 7 24.625 7 20.5C7 16.375 10.25 13 14.3357 13C18.4214 13 21.6714 16.375 21.6714 20.5Z" fill="white"/>
</svg>
