<svg width="255" height="136" viewBox="0 0 255 136" fill="none" xmlns="http://www.w3.org/2000/svg">
<path d="M247.658 0H7.34168C3.28698 0 0 3.30177 0 7.37471V128.625C0 132.698 3.28698 136 7.34168 136H247.658C251.713 136 255 132.698 255 128.625V7.37471C255 3.30177 251.713 0 247.658 0Z" fill="#2F3946"/>
<path d="M243.538 4.71985H11.4615C8.37509 4.71985 5.87305 7.23315 5.87305 10.3334V125.667C5.87305 128.767 8.37509 131.28 11.4615 131.28H243.538C246.624 131.28 249.126 128.767 249.126 125.667V10.3334C249.126 7.23315 246.624 4.71985 243.538 4.71985Z" fill="url(#paint0_linear_324_1309)"/>
<path d="M148.643 14.4085C178.109 14.4085 201.996 38.4026 201.996 68.0009C201.996 97.5992 178.109 121.593 148.643 121.593C119.178 121.593 95.291 97.5992 95.291 68.0009C95.291 38.4026 119.178 14.4085 148.643 14.4085Z" fill="#244855"/>
<path d="M148.643 17.7464C176.274 17.7464 198.673 40.2464 198.673 68.0014C198.673 95.7565 176.274 118.256 148.643 118.256C121.012 118.256 98.6133 95.7565 98.6133 68.0014C98.6133 40.2464 121.012 17.7464 148.643 17.7464Z" fill="white"/>
<path d="M148.643 24.2356C172.706 24.2356 192.213 43.83 192.213 68.0008C192.213 92.1717 172.706 111.766 148.643 111.766C124.581 111.766 105.074 92.1717 105.074 68.0008C105.074 43.83 124.581 24.2356 148.643 24.2356Z" fill="#E3E9EC"/>
<path d="M148.642 110.264C171.879 110.264 190.716 91.3422 190.716 68.0009C190.716 44.6595 171.879 25.7377 148.642 25.7377C125.405 25.7377 106.568 44.6595 106.568 68.0009C106.568 91.3422 125.405 110.264 148.642 110.264Z" fill="#325F71"/>
<path d="M148.644 98.0414C165.161 98.0414 178.55 84.5918 178.55 68.001C178.55 51.4101 165.161 37.9606 148.644 37.9606C132.128 37.9606 118.738 51.4101 118.738 68.001C118.738 84.5918 132.128 98.0414 148.644 98.0414Z" fill="#E3E9EC"/>
<path d="M148.644 95.2647C163.633 95.2647 175.785 83.0583 175.785 68.0009C175.785 52.9436 163.633 40.7372 148.644 40.7372C133.654 40.7372 121.502 52.9436 121.502 68.0009C121.502 83.0583 133.654 95.2647 148.644 95.2647Z" fill="white"/>
<path d="M148.644 107.914C170.589 107.914 188.378 90.0442 188.378 68.0011C188.378 45.9579 170.589 28.0884 148.644 28.0884C126.7 28.0884 108.91 45.9579 108.91 68.0011C108.91 90.0442 126.7 107.914 148.644 107.914Z" stroke="white" stroke-width="3.77952" stroke-linecap="round" stroke-linejoin="round"/>
<path d="M148.644 105.328C169.167 105.328 185.804 88.6163 185.804 68.0011C185.804 47.386 169.167 30.6741 148.644 30.6741C128.121 30.6741 111.484 47.386 111.484 68.0011C111.484 88.6163 128.121 105.328 148.644 105.328Z" stroke="white" stroke-width="3.77952" stroke-linecap="round" stroke-linejoin="round"/>
<path d="M148.643 102.508C167.615 102.508 182.995 87.0586 182.995 68.0012C182.995 48.9438 167.615 33.4948 148.643 33.4948C129.671 33.4948 114.291 48.9438 114.291 68.0012C114.291 87.0586 129.671 102.508 148.643 102.508Z" stroke="white" stroke-width="3.77952" stroke-linecap="round" stroke-linejoin="round"/>
<path d="M144.792 38.9343C143.613 38.9498 142.639 40.4015 142.639 41.7009C142.639 43.186 143.866 43.6069 144.731 44.3086C145.839 45.2086 147.668 46.7142 147.668 46.7142V50.4259V51.6692V52.2917C145.764 52.4121 143.896 52.881 142.159 53.6752L140.842 52.4651L139.928 51.6262L135.838 47.8693C135.727 47.7681 135.613 47.6752 135.494 47.5907C135.414 47.4935 135.327 47.4005 135.232 47.3129C134.14 46.3108 132.762 46.7768 131.461 47.4825L125.246 50.8541C123.945 51.5598 124.323 53.6391 125.414 54.6412C126.505 55.6432 127.643 55.0176 128.742 54.8504C130.151 54.6358 132.492 54.2956 132.492 54.2956L135.219 56.8001L136.132 57.6391L136.536 58.0102C135.605 59.1505 134.839 60.4164 134.258 61.7709H132.583H131.345H125.802C125.653 61.7709 125.506 61.7809 125.362 61.7985C125.237 61.7809 125.111 61.7709 124.981 61.7709C123.503 61.7709 122.798 63.0493 122.312 64.4518L119.99 71.1533C119.504 72.5558 121.18 73.8338 122.659 73.8338C124.137 73.8338 124.556 72.601 125.255 71.7328C126.151 70.6193 127.65 68.7817 127.65 68.7817H131.345H132.583H132.997C133.095 70.7678 133.566 72.7173 134.387 74.5271L133.374 75.6392L132.539 76.557L128.799 80.6657C128.699 80.7764 128.606 80.8917 128.522 81.0108C128.426 81.0911 128.333 81.1787 128.245 81.2746C127.248 82.3706 127.712 83.7549 128.414 85.0617L131.771 91.3055C132.473 92.6123 134.544 92.232 135.541 91.136C136.539 90.0399 135.916 88.8974 135.749 87.7937C135.535 86.3781 135.197 84.0267 135.197 84.0267L137.691 81.2874L138.526 80.37L138.706 80.1714C139.895 81.1496 141.22 81.9469 142.639 82.5379V83.9355V85.1788V90.7465C142.639 90.8965 142.648 91.0439 142.666 91.1888C142.649 91.3136 142.639 91.4411 142.639 91.571C142.639 93.0561 143.911 93.7632 145.307 94.2515L151.979 96.5848C153.375 97.073 154.648 95.3889 154.648 93.9038C154.648 92.4187 153.421 91.9978 152.556 91.2962C151.448 90.3962 149.618 88.8905 149.618 88.8905V85.1788V83.9355V83.7109C151.631 83.5866 153.601 83.0733 155.421 82.1992L156.445 83.14L157.359 83.979L161.449 87.7358C161.559 87.837 161.674 87.9296 161.793 88.014C161.873 88.1112 161.96 88.2046 162.055 88.2922C163.146 89.2943 164.525 88.8283 165.825 88.1227L172.041 84.751C173.342 84.0454 172.964 81.9656 171.873 80.9635C170.781 79.9615 169.644 80.5875 168.545 80.7548C167.136 80.9693 164.795 81.3091 164.795 81.3091L162.068 78.8046L161.154 77.9656L160.938 77.7666C161.878 76.5724 162.64 75.2477 163.201 73.8338H164.704H165.942H171.484C171.634 73.8338 171.781 73.8249 171.925 73.8065C172.049 73.8241 172.176 73.8338 172.306 73.8338C173.784 73.8338 174.488 72.5558 174.974 71.1533L177.297 64.4518C177.783 63.0493 176.106 61.7709 174.628 61.7709C173.15 61.7709 172.731 63.0037 172.032 63.8719C171.136 64.9854 169.637 66.823 169.637 66.823H165.942H164.704H164.275C164.129 64.8739 163.623 62.969 162.783 61.2059L163.912 59.9656L164.747 59.0477L168.487 54.939C168.588 54.8283 168.681 54.713 168.765 54.5939C168.861 54.5136 168.954 54.426 169.041 54.3301C170.039 53.2341 169.575 51.8498 168.872 50.5431L165.516 44.2992C164.813 42.9924 162.743 43.3727 161.746 44.4687C160.748 45.5648 161.371 46.7077 161.537 47.8114C161.751 49.227 162.09 51.578 162.09 51.578L159.596 54.3173L158.761 55.2351L158.376 55.6578C157.241 54.7546 155.986 54.0138 154.648 53.4566V51.6692V50.4259V44.8586C154.648 44.7087 154.638 44.5608 154.62 44.4159C154.638 44.2911 154.648 44.1636 154.648 44.0337C154.648 42.5487 153.375 41.8415 151.979 41.3532L145.307 39.0204C145.133 38.9594 144.961 38.9321 144.792 38.9343Z" fill="url(#paint1_linear_324_1309)"/>
<path d="M148.643 78.0876C154.189 78.0876 158.685 73.5716 158.685 68.0008C158.685 62.43 154.189 57.9139 148.643 57.9139C143.097 57.9139 138.602 62.43 138.602 68.0008C138.602 73.5716 143.097 78.0876 148.643 78.0876Z" fill="#F37F7E"/>
<path d="M148.643 74.8159C152.39 74.8159 155.427 71.765 155.427 68.0014C155.427 64.2379 152.39 61.187 148.643 61.187C144.897 61.187 141.859 64.2379 141.859 68.0014C141.859 71.765 144.897 74.8159 148.643 74.8159Z" fill="white"/>
<path d="M11.4619 4.71985C8.36594 4.71985 5.87305 7.22338 5.87305 10.3333V15.3043H249.127V10.3333C249.127 7.22338 246.634 4.71985 243.538 4.71985H11.4619Z" fill="#2E596A"/>
<path d="M75.8235 10.459H231.143V125.541H75.8235L56.1465 96.7704V67.9999V39.2294L75.8235 10.459Z" stroke="#3D748B" stroke-width="7.55905" stroke-linecap="round" stroke-linejoin="round"/>
<path d="M74.6288 9.4397H232.682V126.56H74.6288L54.6055 97.2802V68V38.7199L74.6288 9.4397Z" stroke="#2F3946" stroke-width="7.55905" stroke-linecap="round" stroke-linejoin="round"/>
<path d="M221.859 54.3534H243.763C246.661 54.3534 249.01 56.7131 249.01 59.6239V83.4534C249.01 86.3642 246.661 88.7238 243.763 88.7238H221.859C218.962 88.7238 216.612 86.3642 216.612 83.4534V59.6239C216.612 56.7131 218.962 54.3534 221.859 54.3534Z" fill="#264C5A"/>
<path d="M221.859 50.814H243.763C246.661 50.814 249.01 53.1736 249.01 56.0844V79.9139C249.01 82.8247 246.661 85.1844 243.763 85.1844H221.859C218.962 85.1844 216.612 82.8247 216.612 79.9139V56.0844C216.612 53.1736 218.962 50.814 221.859 50.814Z" fill="#3B7086"/>
<path d="M229.309 43.7196C229.309 41.5863 230.935 39.8569 232.941 39.8569C234.946 39.8569 236.572 41.5863 236.572 43.7196V92.2787C236.572 94.412 234.946 96.1413 232.941 96.1413C230.935 96.1413 229.309 94.412 229.309 92.2787V43.7196Z" fill="#EF7B79"/>
<path d="M241.17 57.0306C241.17 58.4853 242.344 59.6646 243.792 59.6646C245.24 59.6646 246.414 58.4853 246.414 57.0306C246.414 55.5758 245.24 54.3965 243.792 54.3965C242.344 54.3965 241.17 55.5758 241.17 57.0306Z" fill="#F37F7E"/>
<path d="M241.17 67.2241C241.17 68.6788 242.344 69.8581 243.792 69.8581C245.24 69.8581 246.414 68.6788 246.414 67.2241C246.414 65.7694 245.24 64.5901 243.792 64.5901C242.344 64.5901 241.17 65.7694 241.17 67.2241Z" fill="#F8FAFB"/>
<path d="M241.17 77.4175C241.17 78.8722 242.344 80.0515 243.792 80.0515C245.24 80.0515 246.414 78.8722 246.414 77.4175C246.414 75.9627 245.24 74.7834 243.792 74.7834C242.344 74.7834 241.17 75.9627 241.17 77.4175Z" fill="#F8FAFB"/>
<path d="M224.451 57.0308C224.451 58.4855 223.277 59.6648 221.829 59.6648C220.381 59.6648 219.207 58.4855 219.207 57.0308C219.207 55.5761 220.381 54.3968 221.829 54.3968C223.277 54.3968 224.451 55.5761 224.451 57.0308Z" fill="#F8FAFB"/>
<path d="M224.451 67.2242C224.451 68.6789 223.277 69.8582 221.829 69.8582C220.381 69.8582 219.207 68.6789 219.207 67.2242C219.207 65.7695 220.381 64.5901 221.829 64.5901C223.277 64.5901 224.451 65.7695 224.451 67.2242Z" fill="#F37F7E"/>
<path d="M224.451 77.4175C224.451 78.8723 223.277 80.0516 221.829 80.0516C220.381 80.0516 219.207 78.8723 219.207 77.4175C219.207 75.9628 220.381 74.7835 221.829 74.7835C223.277 74.7835 224.451 75.9628 224.451 77.4175Z" fill="#F8FAFB"/>
<path d="M232.801 32.3347C229.404 32.3347 226.67 35.0813 226.67 38.4934C226.675 39.8067 226.774 41.0147 226.67 42.4734C226.67 43.6805 227.637 44.6525 228.839 44.6525H232.801H233.023H236.985C238.187 44.6525 239.154 43.6805 239.154 42.4734C239.159 41.2437 239.213 39.5651 239.154 38.4934C239.154 35.0813 236.42 32.3347 233.023 32.3347H232.801ZM228.839 45.6423C227.637 45.6423 226.67 46.6142 226.67 47.8213V49.7821C226.67 50.9892 227.637 51.9607 228.839 51.9607H236.985C238.187 51.9607 239.154 50.9892 239.154 49.7821V47.8213C239.154 46.6142 238.187 45.6423 236.985 45.6423H228.839ZM228.681 53.2778C227.567 53.2778 226.67 54.1789 226.67 55.2983V80.7003C226.67 81.8197 227.567 82.7208 228.681 82.7208H237.143C238.257 82.7208 239.154 81.8197 239.154 80.7003V55.2983C239.154 54.1789 238.257 53.2778 237.143 53.2778H228.681ZM228.839 84.0378C227.637 84.0378 226.67 85.0097 226.67 86.2169V88.1777C226.67 89.3848 227.637 90.3563 228.839 90.3563H236.985C238.187 90.3563 239.154 89.3848 239.154 88.1777V86.2169C239.154 85.0097 238.187 84.0378 236.985 84.0378H228.839ZM228.839 91.3461C227.637 91.3461 226.67 92.318 226.67 93.5251C226.774 94.9838 226.675 96.1918 226.67 97.5052C226.67 100.917 229.404 103.664 232.801 103.664H233.023C236.42 103.664 239.154 100.917 239.154 97.5052C239.213 96.4335 239.159 94.7548 239.154 93.5251C239.154 92.318 238.187 91.3461 236.985 91.3461H233.023H232.801H228.839Z" fill="url(#paint2_linear_324_1309)"/>
<path d="M71.3366 41.3632L82.3073 26.2076C82.4472 26.0144 82.4046 25.7438 82.2123 25.6033L57.9605 7.88993C57.7681 7.74944 57.4988 7.79218 57.3589 7.9854L46.3882 23.1411C46.2484 23.3343 46.2909 23.6048 46.4833 23.7453L70.7351 41.4587C70.9274 41.5992 71.1967 41.5565 71.3366 41.3632Z" fill="#244855"/>
<path d="M70.2416 36.0284L76.6964 27.1113C76.8123 26.9512 76.7771 26.7271 76.6177 26.6106L58.5136 13.3875C58.3542 13.2711 58.1311 13.3065 58.0152 13.4666L51.5604 22.3837C51.4445 22.5438 51.4797 22.7679 51.6391 22.8843L69.7432 36.1075C69.9026 36.2239 70.1257 36.1885 70.2416 36.0284Z" fill="url(#paint3_linear_324_1309)"/>
<path d="M59.1264 34.1331L71.0673 16.6996C71.0787 16.683 71.0745 16.6603 71.058 16.6489L69.1799 15.3509C69.1634 15.3395 69.1408 15.3437 69.1294 15.3603L57.1885 32.7938C57.1772 32.8104 57.1813 32.8332 57.1979 32.8446L59.0759 34.1425C59.0924 34.154 59.1151 34.1498 59.1264 34.1331Z" fill="#2F3946"/>
<path d="M78.7763 24.1699C78.115 23.6869 77.1892 23.8338 76.7083 24.4981C76.2275 25.1623 76.3738 26.0924 77.035 26.5754C77.6963 27.0584 78.6222 26.9115 79.1031 26.2472C79.5839 25.5829 79.4376 24.6529 78.7763 24.1699Z" fill="#305C6E"/>
<path d="M71.8271 19.0948C71.1658 18.6118 70.24 18.7588 69.7591 19.423C69.2783 20.0873 69.4245 21.0173 70.0858 21.5003C70.7471 21.9833 71.673 21.8364 72.1538 21.1721C72.6347 20.5079 72.4884 19.5778 71.8271 19.0948Z" fill="#305C6E"/>
<path d="M69.788 36.5834C69.1268 36.1004 68.2009 36.2474 67.72 36.9117C67.2392 37.5759 67.3855 38.506 68.0468 38.989C68.7081 39.472 69.6339 39.325 70.1148 38.6608C70.5956 37.9965 70.4493 37.0665 69.788 36.5834Z" fill="#305C6E"/>
<path d="M62.8388 31.5084C62.1775 31.0254 61.2517 31.1723 60.7708 31.8366C60.29 32.5009 60.4363 33.4309 61.0975 33.9139C61.7588 34.3969 62.6847 34.25 63.1656 33.5857C63.6464 32.9214 63.5001 31.9914 62.8388 31.5084Z" fill="#305C6E"/>
<path d="M66.706 15.3555C66.0447 14.8725 65.1188 15.0195 64.638 15.6837C64.1572 16.348 64.3034 17.2781 64.9647 17.7611C65.626 18.2441 66.5519 18.0971 67.0327 17.4329C67.5136 16.7686 67.3673 15.8385 66.706 15.3555Z" fill="#305C6E"/>
<path d="M59.7568 10.2796C59.0955 9.79661 58.1696 9.94357 57.6888 10.6078C57.208 11.2721 57.3542 12.2021 58.0155 12.6851C58.6768 13.1681 59.6027 13.0212 60.0835 12.3569C60.5644 11.6927 60.4181 10.7626 59.7568 10.2796Z" fill="#305C6E"/>
<path d="M57.7177 27.7691C57.0564 27.2861 56.1306 27.433 55.6497 28.0973C55.1689 28.7615 55.3152 29.6916 55.9765 30.1746C56.6377 30.6576 57.5636 30.5106 58.0445 29.8464C58.5253 29.1821 58.379 28.2521 57.7177 27.7691Z" fill="#305C6E"/>
<path d="M50.7685 22.694C50.1072 22.211 49.1814 22.3579 48.7005 23.0222C48.2197 23.6865 48.3659 24.6165 49.0272 25.0995C49.6885 25.5825 50.6144 25.4356 51.0952 24.7713C51.5761 24.107 51.4298 23.177 50.7685 22.694Z" fill="#305C6E"/>
<path d="M71.3189 95.6697L82.0424 111.268C82.1776 111.465 82.1285 111.734 81.9328 111.87L58.0482 128.438C57.8525 128.574 57.5843 128.524 57.4491 128.328L46.7256 112.729C46.5905 112.533 46.6396 112.263 46.8353 112.128L70.7198 95.5595C70.9155 95.4238 71.1837 95.4731 71.3189 95.6697Z" fill="#244855"/>
<path d="M70.9764 100.662L77.2133 109.734C77.3252 109.897 77.2846 110.12 77.1224 110.232L58.7034 123.009C58.5412 123.122 58.319 123.081 58.207 122.918L51.9701 113.846C51.8582 113.683 51.8988 113.459 52.061 113.347L70.48 100.57C70.6422 100.458 70.8644 100.499 70.9764 100.662Z" fill="url(#paint4_linear_324_1309)"/>
<path d="M59.7069 102.659L71.3627 119.613C71.3738 119.63 71.3698 119.652 71.3537 119.663L69.5272 120.93C69.5112 120.941 69.4891 120.937 69.478 120.921L57.8222 103.966C57.8111 103.95 57.8151 103.928 57.8312 103.917L59.6577 102.65C59.6737 102.639 59.6958 102.643 59.7069 102.659Z" fill="#2F3946"/>
<path d="M79.2114 112.724C78.5386 113.191 77.6165 113.021 77.1519 112.346C76.6873 111.67 76.8561 110.743 77.5289 110.277C78.2017 109.81 79.1237 109.98 79.5883 110.655C80.0529 111.331 79.8842 112.257 79.2114 112.724Z" fill="#305C6E"/>
<path d="M72.143 117.628C71.4702 118.095 70.5482 117.925 70.0836 117.25C69.619 116.574 69.7877 115.648 70.4605 115.181C71.1333 114.714 72.0554 114.884 72.52 115.56C72.9846 116.235 72.8158 117.162 72.143 117.628Z" fill="#305C6E"/>
<path d="M70.5297 100.095C69.8569 100.562 68.9349 100.393 68.4703 99.7168C68.0057 99.041 68.1744 98.1148 68.8472 97.6481C69.52 97.1814 70.4421 97.351 70.9067 98.0268C71.3713 98.7026 71.2025 99.6288 70.5297 100.095Z" fill="#305C6E"/>
<path d="M63.4614 105C62.7886 105.466 61.8665 105.297 61.4019 104.621C60.9373 103.945 61.1061 103.019 61.7789 102.552C62.4517 102.085 63.3737 102.255 63.8383 102.931C64.3029 103.607 64.1342 104.533 63.4614 105Z" fill="#305C6E"/>
<path d="M66.9369 121.243C66.2642 121.71 65.3421 121.54 64.8775 120.865C64.4129 120.189 64.5817 119.263 65.2545 118.796C65.9272 118.329 66.8493 118.499 67.3139 119.175C67.7785 119.85 67.6097 120.777 66.9369 121.243Z" fill="#305C6E"/>
<path d="M59.8686 126.147C59.1958 126.613 58.2738 126.444 57.8092 125.768C57.3445 125.092 57.5133 124.166 58.1861 123.699C58.8589 123.232 59.7809 123.402 60.2455 124.078C60.7101 124.754 60.5414 125.68 59.8686 126.147Z" fill="#305C6E"/>
<path d="M58.2494 108.614C57.5767 109.081 56.6546 108.911 56.19 108.235C55.7254 107.559 55.8942 106.633 56.567 106.167C57.2397 105.7 58.1618 105.869 58.6264 106.545C59.091 107.221 58.9222 108.147 58.2494 108.614Z" fill="#305C6E"/>
<path d="M51.1811 113.518C50.5083 113.985 49.5863 113.815 49.1217 113.139C48.657 112.464 48.8258 111.537 49.4986 111.071C50.1714 110.604 51.0934 110.773 51.558 111.449C52.0226 112.125 51.8539 113.051 51.1811 113.518Z" fill="#305C6E"/>
<path d="M79.2412 13.0371C78.5799 12.5541 77.654 12.701 77.1732 13.3653C76.6923 14.0295 76.8386 14.9596 77.4999 15.4426C78.1612 15.9256 79.0871 15.7786 79.5679 15.1144C80.0487 14.4501 79.9024 13.5201 79.2412 13.0371Z" fill="#3D748B"/>
<path d="M227.923 13.0371C227.262 12.5541 226.336 12.701 225.855 13.3653C225.374 14.0295 225.52 14.9596 226.182 15.4426C226.843 15.9256 227.769 15.7786 228.25 15.1144C228.73 14.4501 228.584 13.5201 227.923 13.0371Z" fill="#3D748B"/>
<path d="M79.2412 120.915C78.5799 120.432 77.654 120.578 77.1732 121.243C76.6923 121.907 76.8386 122.837 77.4999 123.32C78.1612 123.803 79.0871 123.656 79.5679 122.992C80.0487 122.328 79.9024 121.398 79.2412 120.915Z" fill="#3D748B"/>
<path d="M227.923 120.915C227.262 120.432 226.336 120.578 225.855 121.243C225.374 121.907 225.52 122.837 226.182 123.32C226.843 123.803 227.769 123.656 228.25 122.992C228.73 122.328 228.584 121.398 227.923 120.915Z" fill="#3D748B"/>
<path d="M23.76 8.96985H11.1243C10.8863 8.96985 10.6934 9.16367 10.6934 9.40274V15.3161C10.6934 15.5552 10.8863 15.749 11.1243 15.749H23.76C23.998 15.749 24.1909 15.5552 24.1909 15.3161V9.40274C24.1909 9.16367 23.998 8.96985 23.76 8.96985Z" fill="#F37F7E"/>
<path d="M38.4006 9.07458H25.7649C25.5269 9.07458 25.334 9.2684 25.334 9.50748V15.4208C25.334 15.6599 25.5269 15.8537 25.7649 15.8537H38.4006C38.6386 15.8537 38.8315 15.6599 38.8315 15.4208V9.50748C38.8315 9.2684 38.6386 9.07458 38.4006 9.07458Z" fill="#F37F7E"/>
<path d="M23.76 16.8385H11.1243C10.8863 16.8385 10.6934 17.0323 10.6934 17.2714V23.1847C10.6934 23.4238 10.8863 23.6176 11.1243 23.6176H23.76C23.998 23.6176 24.1909 23.4238 24.1909 23.1847V17.2714C24.1909 17.0323 23.998 16.8385 23.76 16.8385Z" fill="#F37F7E"/>
<path d="M38.4006 16.9423H25.7649C25.5269 16.9423 25.334 17.1361 25.334 17.3752V23.2885C25.334 23.5276 25.5269 23.7214 25.7649 23.7214H38.4006C38.6386 23.7214 38.8315 23.5276 38.8315 23.2885V17.3752C38.8315 17.1361 38.6386 16.9423 38.4006 16.9423Z" fill="white"/>
<path d="M23.76 24.7076H11.1243C10.8863 24.7076 10.6934 24.9015 10.6934 25.1405V31.0539C10.6934 31.293 10.8863 31.4868 11.1243 31.4868H23.76C23.998 31.4868 24.1909 31.293 24.1909 31.0539V25.1405C24.1909 24.9015 23.998 24.7076 23.76 24.7076Z" fill="#F37F7E"/>
<path d="M38.4006 24.8114H25.7649C25.5269 24.8114 25.334 25.0052 25.334 25.2443V31.1576C25.334 31.3967 25.5269 31.5905 25.7649 31.5905H38.4006C38.6386 31.5905 38.8315 31.3967 38.8315 31.1576V25.2443C38.8315 25.0052 38.6386 24.8114 38.4006 24.8114Z" fill="#F37F7E"/>
<defs>
<linearGradient id="paint0_linear_324_1309" x1="126.826" y1="17.1863" x2="124.455" y2="127.512" gradientUnits="userSpaceOnUse">
<stop stopColor="#325F71"/>
<stop offset="1" stopColor="#295160"/>
</linearGradient>
<linearGradient id="paint1_linear_324_1309" x1="150.035" y1="53.9637" x2="152.227" y2="92.3581" gradientUnits="userSpaceOnUse">
<stop stopColor="#F37F7E"/>
<stop offset="1" stopColor="#D25855"/>
</linearGradient>
<linearGradient id="paint2_linear_324_1309" x1="232.422" y1="67.5823" x2="226.608" y2="67.7889" gradientUnits="userSpaceOnUse">
<stop stopColor="white"/>
<stop offset="1" stopColor="#E3E9EC"/>
</linearGradient>
<linearGradient id="paint3_linear_324_1309" x1="64.2689" y1="29.0984" x2="69.3865" y2="22.0282" gradientUnits="userSpaceOnUse">
<stop stopColor="#315D6F"/>
<stop offset="1" stopColor="#3D748B"/>
</linearGradient>
<linearGradient id="paint4_linear_324_1309" x1="61.05" y1="118.061" x2="69.7248" y2="103.598" gradientUnits="userSpaceOnUse">
<stop stopColor="#315D6F"/>
<stop offset="1" stopColor="#3D748B"/>
</linearGradient>
</defs>
</svg>
