<svg xmlns="http://www.w3.org/2000/svg" width="84" height="84" viewBox="0 0 84 84">
  <g id="Group_21571" data-name="Group 21571" transform="translate(-395 -2176)">
    <g id="Ellipse_9267" data-name="Ellipse 9267" transform="translate(395 2176)" fill="#fceeef" stroke="rgba(233,102,107,0.15)" stroke-width="1">
      <circle cx="42" cy="42" r="42" stroke="none"/>
      <circle cx="42" cy="42" r="41.5" fill="none"/>
    </g>
    <g id="Group_21568" data-name="Group 21568" transform="translate(419 2203.124)">
      <path id="Path_4525" data-name="Path 4525" d="M789.559,369.124c0-1.2.007-2.339,0-3.475a.986.986,0,0,1,.571-1.039.959.959,0,0,1,1.142.305q2.989,2.994,5.983,5.983c.056.056.1.12.17.2-.072.082-.13.156-.2.221q-2.976,2.978-5.958,5.949a1.448,1.448,0,0,1-.576.368.92.92,0,0,1-1.13-.961c-.009-1.054,0-2.108,0-3.162v-.392c-2.748-.267-5.279.1-7.225,2.232a6.881,6.881,0,0,0-1.531,7.39,6.959,6.959,0,0,0,5.854,4.715,7.939,7.939,0,0,0,.94.07,1.972,1.972,0,1,1-.028,3.944,11.171,11.171,0,0,1-2.853-21.968,14.165,14.165,0,0,1,4.073-.377C789.032,369.128,789.275,369.124,789.559,369.124Z" transform="translate(-776.421 -364.526)" fill="#e9666b"/>
      <path id="Path_4526" data-name="Path 4526" d="M833.207,397.13c2.437.2,4.745.009,6.638-1.682a7.228,7.228,0,0,0-3.706-12.66,7.958,7.958,0,0,0-.981-.074,1.972,1.972,0,1,1,.05-3.944,11.172,11.172,0,0,1,2.515,22.05,16.4,16.4,0,0,1-4,.294h-.514v.527q0,1.54,0,3.08a.912.912,0,0,1-.577.909.868.868,0,0,1-1.019-.2c-2.085-2.077-4.165-4.158-6.263-6.255a1.621,1.621,0,0,1,.144-.2q3.019-3.022,6.039-6.042a.946.946,0,0,1,1.677.687c0,.15,0,.3,0,.452Z" transform="translate(-809.552 -374.172)" fill="#e9666b"/>
    </g>
  </g>
</svg>
