<svg xmlns="http://www.w3.org/2000/svg" width="33.726" height="36.873" viewBox="0 0 33.726 36.873">
  <g id="Group_46" data-name="Group 46" transform="translate(492.708 3929.873)">
    <path id="Path_75" data-name="Path 75" d="M-436.8-3890.864q0-5.711,0-11.421c0-1.035.342-1.38,1.366-1.381h7.008c.952,0,1.329.38,1.329,1.338q0,11.465,0,22.929c0,1-.345,1.345-1.352,1.345q-3.569,0-7.138,0c-.831,0-1.21-.375-1.211-1.215Q-436.8-3885.067-436.8-3890.864Zm7.6,10.725v-21.394h-5.492v21.394Z" transform="translate(-31.885 -14.946)" fill="#e97055"/>
    <path id="Path_76" data-name="Path 76" d="M-454.075-3880.693q0,4.391,0,8.781a1.056,1.056,0,0,1-1.215,1.211q-3.634,0-7.268,0a1.058,1.058,0,0,1-1.21-1.217q0-8.8,0-17.606a1.084,1.084,0,0,1,1.237-1.247q3.612,0,7.224,0c.843,0,1.231.4,1.231,1.253Q-454.074-3885.105-454.075-3880.693Zm-2.094-7.941h-5.491v15.845h5.491Z" transform="translate(-16.505 -22.3)" fill="#e97055"/>
    <path id="Path_77" data-name="Path 77" d="M-471.414-3917.56l12.005-10.115-.034-.094c-.672,0-1.345.013-2.017,0a1.042,1.042,0,0,1-1.073-.765,1.031,1.031,0,0,1,.992-1.319c1.73-.024,3.462-.019,5.193,0a.9.9,0,0,1,.938.976q.028,2.466,0,4.932a1.033,1.033,0,0,1-1.037,1.057,1.068,1.068,0,0,1-1.049-1.1c-.018-.706,0-1.414-.006-2.121,0-.136-.013-.273-.024-.486-1,.843-1.945,1.637-2.888,2.434q-5.106,4.313-10.213,8.625a1.094,1.094,0,0,1-1.738-.083c-1.091-1.089-2.178-2.182-3.282-3.288-1.169,1.057-2.313,2.091-3.456,3.127a1.036,1.036,0,0,1-1.2.2.943.943,0,0,1-.57-1.018,1.268,1.268,0,0,1,.334-.672q2.078-1.927,4.194-3.812a1.031,1.031,0,0,1,1.573.093c1.016,1,2.022,2.017,3.029,3.029C-471.634-3917.856-471.545-3917.723-471.414-3917.56Z" transform="translate(-6.74)" fill="#e97055"/>
    <path id="Path_78" data-name="Path 78" d="M-481.057-3870.573q0,2.984,0,5.969c0,.9-.364,1.257-1.255,1.258q-3.611,0-7.223,0a1.07,1.07,0,0,1-1.223-1.213q0-6.055,0-12.11a1.077,1.077,0,0,1,1.2-1.2q3.654-.007,7.31,0a1.067,1.067,0,0,1,1.192,1.2C-481.053-3874.639-481.057-3872.606-481.057-3870.573Zm-7.588-5.176v10.316h5.481v-10.316Z" transform="translate(-1.111 -29.654)" fill="#e97055"/>
    <path id="Path_79" data-name="Path 79" d="M-491.537-3891.406a1.042,1.042,0,0,1-1.056-.6.929.929,0,0,1,.165-1.121q1.244-1.2,2.543-2.335a1.007,1.007,0,0,1,1.4.116,1,1,0,0,1,.011,1.407c-.843.8-1.717,1.576-2.6,2.341A1.29,1.29,0,0,1-491.537-3891.406Z" transform="translate(0 -19.494)" fill="#e97055"/>
  </g>
</svg>
