<svg xmlns="http://www.w3.org/2000/svg" width="31.658" height="37.265" viewBox="0 0 31.658 37.265">
  <g id="Group_47" data-name="Group 47" transform="translate(94.192 4044.24)">
    <path id="Path_80" data-name="Path 80" d="M-78.821-4006.974a27.8,27.8,0,0,1-4.973-2.18,19.1,19.1,0,0,1-9.5-12.53,28.958,28.958,0,0,1-.867-6.465c-.045-2.447-.029-4.9,0-7.343a3.936,3.936,0,0,1,3.333-3.64,28.969,28.969,0,0,0,4.155-.641,14.728,14.728,0,0,0,6.1-3.311,7.192,7.192,0,0,1,.982-.8,2.336,2.336,0,0,1,2.828.288c.556.467,1.094.959,1.67,1.4a14.311,14.311,0,0,0,6.7,2.775c.79.118,1.587.179,2.379.282a3.944,3.944,0,0,1,3.421,3.823c.029,2.024.093,4.05.05,6.073a31.706,31.706,0,0,1-1.289,8.846,18.859,18.859,0,0,1-7.959,10.525,26.653,26.653,0,0,1-6.151,2.9Zm-13.174-24.593h-.024c0,.848-.017,1.7,0,2.545a29.912,29.912,0,0,0,1.046,7.532,16.7,16.7,0,0,0,5.273,8.351,21.881,21.881,0,0,0,7.079,3.906.906.906,0,0,0,.557-.029,23.782,23.782,0,0,0,4.808-2.286,16.71,16.71,0,0,0,6.388-7.123,24.02,24.02,0,0,0,2.007-8.314,77.4,77.4,0,0,0,.072-8.252,1.708,1.708,0,0,0-1.587-1.731c-.792-.1-1.589-.167-2.379-.284a16.429,16.429,0,0,1-7.4-2.98c-.684-.5-1.312-1.073-1.953-1.628-.206-.177-.367-.2-.559,0-.117.122-.253.226-.377.342a16.368,16.368,0,0,1-5.1,3.224,18.585,18.585,0,0,1-5.791,1.261c-1.433.091-2.059.726-2.067,2.155C-92-4033.774-91.995-4032.67-91.995-4031.567Z" transform="translate(0 0)" fill="#29a2fb"/>
    <path id="Path_81" data-name="Path 81" d="M-61.41-4014.186a9.276,9.276,0,0,1-10.278,8.859,9.262,9.262,0,0,1-8.221-10.253,9.248,9.248,0,0,1,10.23-8.2A9.259,9.259,0,0,1-61.41-4014.186Zm-9.294,6.71a7.067,7.067,0,0,0,7.1-7.041,7.07,7.07,0,0,0-7.057-7.121,7.072,7.072,0,0,0-7.1,7.042A7.072,7.072,0,0,0-70.7-4007.476Z" transform="translate(-7.702 -11.045)" fill="#29a2fb"/>
    <path id="Path_82" data-name="Path 82" d="M-66.907-4005.947c.532-.534,1.026-1.032,1.522-1.528q1.348-1.35,2.7-2.7a1.123,1.123,0,0,1,1.282-.336,1.089,1.089,0,0,1,.455,1.689,2.7,2.7,0,0,1-.222.239q-2.4,2.4-4.805,4.807a1.125,1.125,0,0,1-1.824.008c-.6-.6-1.213-1.187-1.795-1.8a1.093,1.093,0,0,1,.527-1.856,1.076,1.076,0,0,1,1.054.342C-67.649-4006.715-67.29-4006.341-66.907-4005.947Z" transform="translate(-13.135 -18.215)" fill="#29a2fb"/>
  </g>
</svg>
