<svg xmlns="http://www.w3.org/2000/svg" width="511.134" height="440.717" viewBox="0 0 511.134 440.717">
  <g id="Group_21444" data-name="Group 21444" transform="translate(-293.814 -284.5)">
    <g id="Group_21406" data-name="Group 21406" transform="translate(527.077 385.919)" opacity="0.8">
      <path id="Path_41333" data-name="Path 41333" d="M259.126,182.583l-3.656-6.228-20.024,11.756,3.656,6.228-11.463,20.193-7.221.053.169,23.219,7.221-.053,11.756,20.024L236,264.056l20.193,11.463,3.565-6.28,23.22-.169,3.656,6.228,20.024-11.756L303,257.314l11.463-20.193,7.221-.052-.169-23.219-7.221.053-11.756-20.024,3.565-6.28-20.193-11.463-3.565,6.28Z" transform="translate(-220.417 -176.134)" fill="none" stroke="#fff" stroke-linecap="round" stroke-linejoin="round" stroke-width="0.622"/>
      <path id="Path_41334" data-name="Path 41334" d="M258.031,194.742a18.577,18.577,0,1,1-18.443,18.712A18.578,18.578,0,0,1,258.031,194.742Z" transform="translate(-207.531 -163.626)" fill="none" stroke="#fff" stroke-linecap="round" stroke-linejoin="round" stroke-width="0.622"/>
    </g>
    <path id="Path_41335" data-name="Path 41335" d="M114.489,136.5s-45.427,39.7,4.915,90.179" transform="translate(233.241 198.393)" fill="none" stroke="#fff" stroke-linecap="round" stroke-linejoin="round" stroke-width="0.622" stroke-dasharray="6.218 3.109"/>
    <g id="Group_21407" data-name="Group 21407" transform="translate(293.814 555.517)">
      <path id="Path_41336" data-name="Path 41336" d="M88.771,268.531C82.223,279.689,68.116,290.4,78.22,305.919c6.97,10.705,20.974,14.508,15.521,29.711-2.16,6.028-6.294,10.578-5.05,17.364,1.08,5.9,5.7,10.558,9.771,14.623,3.5,3.493,9.107,6.791,11.705,11.063,4.242,6.976-.094,12.217-2.109,19.152-1.916,6.6-2.219,13.9,1.443,20.066,4.843,8.157,14.309,8.986,20.55,14.953,0,0,28.675,18.737,40.424-15.859,2.777-8.175,6.9-15.663,4.9-24.937-1.508-7.012-6.7-12.16-12.588-15.7-6.192-3.714-12.934-4.609-14.566-12.608-1-4.9.868-11.128,1.058-16.071.221-5.747.438-12.306-2.779-17.366-3.7-5.821-9.826-6.348-15.51-9.3-14.337-7.44-6.654-19.75-8.822-32.34-3.144-18.249-20.772-16.509-33.161-20.238Z" transform="translate(-74.685 -268.439)" fill="#356272"/>
      <line id="Line_53" data-name="Line 53" x2="54.908" y2="139.957" transform="translate(25.497 28.831)" fill="#d4e6fc" stroke="#fff" stroke-linecap="round" stroke-linejoin="round" stroke-width="0.622"/>
      <line id="Line_54" data-name="Line 54" x2="21.687" y2="12.816" transform="translate(27.837 77.258)" fill="#d4e6fc" stroke="#fff" stroke-linecap="round" stroke-linejoin="round" stroke-width="0.622"/>
      <line id="Line_55" data-name="Line 55" y1="19.366" x2="11.727" transform="translate(70.176 123.35)" fill="#d4e6fc" stroke="#0c5ae5" stroke-linecap="round" stroke-linejoin="round" stroke-width="0.622"/>
      <line id="Line_56" data-name="Line 56" y1="17.587" x2="5.761" transform="translate(42.274 54.007)" fill="#d4e6fc" stroke="#fff" stroke-linecap="round" stroke-linejoin="round" stroke-width="0.622"/>
    </g>
    <path id="Path_41337" data-name="Path 41337" d="M111.67,293.216H222.323V227.554L111.67,244.089Z" transform="translate(243.989 258.63)" fill="#e9666b"/>
    <path id="Path_41338" data-name="Path 41338" d="M110.712,376.936l17.273-17.77h14.592v17.77Z" transform="translate(243.346 347.098)"/>
    <path id="Path_41339" data-name="Path 41339" d="M177.893,376.936l-11.179-17.77H152.123v17.77Z" transform="translate(271.181 347.098)"/>
    <path id="Path_41340" data-name="Path 41340" d="M214.273,266.625V426.078H169.515V298.88h-5.83l-8.207,127.2H110.712l8.207-127.2,2.087-32.256Z" transform="translate(243.346 284.893)" fill="#fff"/>
    <path id="Path_41341" data-name="Path 41341" d="M245.694,241.292c0-36.865-28.233-53.308-65.088-54.187q-1.131-.028-2.286-.027c-55.443,0-72.936,40.3-75.563,47.256-5.848,15.483-22.307,64.04,30.72,86.5,15.956,6.757,27.35-9.632,35.872-14.016,14.849-7.64,20.2-9.552,20.2-9.552Z" transform="translate(233.251 231.423)" fill="#e9666b"/>
    <path id="Path_41342" data-name="Path 41342" d="M171.2,254.568s5.921,26.964,38.985,21.141,23.394-56.665,23.394-56.665H208.006l-.936,23.394S193.5,207.27,176.509,195.218C166.144,187.868,171.2,254.568,171.2,254.568Z" transform="translate(283.178 236.514)" fill="#e9666b"/>
    <line id="Line_57" data-name="Line 57" y2="27.986" transform="translate(465.918 480.513)" fill="none" stroke="#fff" stroke-linecap="round" stroke-linejoin="round" stroke-width="0.622"/>
    <g id="Group_21408" data-name="Group 21408" transform="translate(369.989 546.239)">
      <path id="Path_41343" data-name="Path 41343" d="M139.545,263.468l9.307,9.363,7.495,8.863-3.152,3.155,2.77,3.645-15.536,12.068L120.24,276.3Z" transform="translate(-120.24 -263.468)" fill="#fff" stroke="#0c5ae5" stroke-linecap="round" stroke-linejoin="round" stroke-width="0.622"/>
      <line id="Line_58" data-name="Line 58" x1="6.68" y1="7.613" transform="translate(25.815 19.742)" fill="none" stroke="#0c5ae5" stroke-linecap="round" stroke-linejoin="round" stroke-width="0.622"/>
      <line id="Line_59" data-name="Line 59" x1="6.68" y1="7.613" transform="translate(21.436 22.741)" fill="none" stroke="#0c5ae5" stroke-linecap="round" stroke-linejoin="round" stroke-width="0.622"/>
      <line id="Line_60" data-name="Line 60" x1="6.68" y1="7.613" transform="translate(17.321 26.034)" fill="none" stroke="#0c5ae5" stroke-linecap="round" stroke-linejoin="round" stroke-width="0.622"/>
      <line id="Line_61" data-name="Line 61" x1="4.927" y1="5.691" transform="translate(28.116 15.848)" fill="none" stroke="#0c5ae5" stroke-linecap="round" stroke-linejoin="round" stroke-width="0.622"/>
    </g>
    <path id="Path_41344" data-name="Path 41344" d="M130.2,225c-14.036,29.944,28.979,62.929,28.979,62.929l-25.738,19.183S98.859,277.85,97.083,258.048" transform="translate(234.184 256.915)" fill="#e9666b"/>
    <path id="Path_41345" data-name="Path 41345" d="M150.236,192.489s-16.381,4.246-17.359-15.677,31-27.1,38.522-18.777S150.236,192.489,150.236,192.489Z" transform="translate(258.229 209.61)" fill="#2b5f74"/>
    <path id="Path_41346" data-name="Path 41346" d="M148.23,210.812h0a10.1,10.1,0,0,0,10.105-10.105V167.862H138.123v32.845A10.106,10.106,0,0,0,148.23,210.812Z" transform="translate(261.771 218.506)" fill="#fff" stroke="#000" stroke-linecap="round" stroke-linejoin="round" stroke-width="0.622"/>
    <path id="Path_41347" data-name="Path 41347" d="M133.884,173.116a5.618,5.618,0,0,0,5.147,6.047,5.355,5.355,0,0,0,1.4-.069,14.981,14.981,0,1,0,2.46-9.978,5.524,5.524,0,0,0-2.965-1.147A5.617,5.617,0,0,0,133.884,173.116Z" transform="translate(258.909 214.896)" fill="#fff" stroke="#000" stroke-linecap="round" stroke-linejoin="round" stroke-width="0.622"/>
    <path id="Path_41348" data-name="Path 41348" d="M139.97,171.626a2.547,2.547,0,0,0-2.762-2.682" transform="translate(261.156 219.229)" fill="none" stroke="#000" stroke-linecap="round" stroke-linejoin="round" stroke-width="0.622"/>
    <rect id="Rectangle_8453" data-name="Rectangle 8453" width="280.981" height="269.725" rx="10" transform="translate(462.113 448.515)" fill="none" stroke="#d4e6fc" stroke-width="10"/>
    <g id="Group_21409" data-name="Group 21409" transform="translate(493.278 432.941)">
      <path id="Path_41349" data-name="Path 41349" d="M195.124,202.643l.169,15.708,19.661-.1.407-15.456Z" transform="translate(-195.124 -202.643)" fill="#fff" stroke="#000" stroke-linecap="round" stroke-linejoin="round" stroke-width="0.622"/>
      <line id="Line_62" data-name="Line 62" y1="10.125" x2="0.263" transform="translate(4.143 5.307)" fill="none" stroke="#000" stroke-linecap="round" stroke-linejoin="round" stroke-width="0.622"/>
      <line id="Line_63" data-name="Line 63" y1="10.125" x2="0.263" transform="translate(9.426 4.81)" fill="none" stroke="#000" stroke-linecap="round" stroke-linejoin="round" stroke-width="0.622"/>
      <line id="Line_64" data-name="Line 64" y1="10.125" x2="0.263" transform="translate(14.696 4.709)" fill="none" stroke="#000" stroke-linecap="round" stroke-linejoin="round" stroke-width="0.622"/>
    </g>
    <path id="Path_41350" data-name="Path 41350" d="M118.022,225C103.985,254.946,147,287.931,147,287.931" transform="translate(246.366 256.915)" fill="none" stroke="#fff" stroke-linecap="round" stroke-linejoin="round" stroke-width="0.622"/>
    <rect id="Rectangle_8454" data-name="Rectangle 8454" width="205.206" height="31.546" rx="15.773" transform="translate(497.236 506)" fill="#274651"/>
    <rect id="Rectangle_8455" data-name="Rectangle 8455" width="205.206" height="31.546" rx="15.773" transform="translate(497.236 550)" fill="#274651"/>
    <rect id="Rectangle_8456" data-name="Rectangle 8456" width="205.206" height="31.546" rx="15.773" transform="translate(497.236 597)" fill="#274651"/>
    <rect id="Rectangle_8457" data-name="Rectangle 8457" width="123.534" height="31.546" rx="15.773" transform="translate(538 651)" fill="#e9666b"/>
    <ellipse id="Ellipse_9228" data-name="Ellipse 9228" cx="39.462" cy="39.462" rx="39.462" ry="39.462" transform="translate(637.809 356.688)" fill="#fff" stroke="#e9666b" stroke-linecap="round" stroke-linejoin="round" stroke-width="0.622" stroke-dasharray="6.218 3.109"/>
    <line id="Line_65" data-name="Line 65" x2="464.903" transform="translate(317.184 724.906)" fill="#d4e6fc" stroke="#47849d" stroke-linecap="round" stroke-linejoin="round" stroke-width="0.622"/>
    <g id="Group_21412" data-name="Group 21412" transform="translate(705.396 513.902)">
      <ellipse id="Ellipse_9229" data-name="Ellipse 9229" cx="43.569" cy="43.569" rx="43.569" ry="43.569" transform="translate(6.026 5.952)" fill="#274651" stroke="#fff" stroke-linecap="round" stroke-linejoin="round" stroke-width="0.622"/>
      <circle id="Ellipse_9230" data-name="Ellipse 9230" cx="35.017" cy="35.017" r="35.017" transform="translate(0.074 49.521) rotate(-45)" fill="#274651" stroke="#fff" stroke-linecap="round" stroke-linejoin="round" stroke-width="0.616"/>
      <g id="Group_21411" data-name="Group 21411" transform="translate(35.503 30.922)">
        <path id="Path_41354" data-name="Path 41354" d="M313.178,270.191v9.675a14.381,14.381,0,1,0,28.762,0v-9.675Zm16.081,14.8h-3.445v-7.333h3.445Z" transform="translate(-313.178 -256.568)" fill="#fff"/>
        <path id="Path_41355" data-name="Path 41355" d="M334.356,272.892v-1.873a8.973,8.973,0,0,0-8.973-8.975h0a8.975,8.975,0,0,0-8.975,8.975v1.873" transform="translate(-311.007 -262.044)" fill="none" stroke="#fff" stroke-width="2"/>
      </g>
    </g>
    <path id="Path_41356" data-name="Path 41356" d="M348.692,275.457s28.966-52.241-22.767-81.354" transform="translate(388.009 237.111)" fill="none" stroke="#fff" stroke-linecap="round" stroke-linejoin="round" stroke-width="0.622" stroke-dasharray="6.218 3.109"/>
    <g id="Group_21413" data-name="Group 21413" transform="translate(487.435 364.237)" opacity="0.9">
      <path id="Path_41357" data-name="Path 41357" d="M253.391,190.669,251.762,178.2l-3.878.51-7.65-9.991,1.5-3.612-11.62-4.828-1.495,3.612-12.478,1.627-2.374-3.1-9.991,7.644,2.383,3.109-4.828,11.612-3.878.51,1.627,12.471,3.878-.5,7.644,9.985-1.5,3.612,11.618,4.828,1.5-3.612,12.471-1.627,2.383,3.109,9.983-7.65-2.375-3.1,4.828-11.618Zm-26.668,7.286a10.061,10.061,0,1,1,8.677-11.276A10.063,10.063,0,0,1,226.723,197.955Z" transform="translate(-197.456 -160.277)" fill="#e9666b"/>
    </g>
    <rect id="Rectangle_8459" data-name="Rectangle 8459" width="174.527" height="49.898" transform="translate(363.991 285)" fill="none" stroke="#fff" stroke-linecap="round" stroke-linejoin="round" stroke-width="1"/>
    <ellipse id="Ellipse_9231" data-name="Ellipse 9231" cx="7.686" cy="7.686" rx="7.686" ry="7.686" transform="translate(382.477 302.263)" fill="#274651"/>
    <ellipse id="Ellipse_9232" data-name="Ellipse 9232" cx="7.686" cy="7.686" rx="7.686" ry="7.686" transform="translate(406.794 302.263)" fill="#274651"/>
    <ellipse id="Ellipse_9233" data-name="Ellipse 9233" cx="7.686" cy="7.686" rx="7.686" ry="7.686" transform="translate(431.112 302.263)" fill="#274651"/>
    <ellipse id="Ellipse_9234" data-name="Ellipse 9234" cx="7.686" cy="7.686" rx="7.686" ry="7.686" transform="translate(455.431 302.263)" fill="#274651"/>
    <ellipse id="Ellipse_9235" data-name="Ellipse 9235" cx="7.686" cy="7.686" rx="7.686" ry="7.686" transform="translate(479.749 302.263)" fill="#274651"/>
    <path id="Path_41358" data-name="Path 41358" d="M215.792,124.673a7.686,7.686,0,1,1-7.687-7.685A7.687,7.687,0,0,1,215.792,124.673Z" transform="translate(303.646 185.275)" fill="#274651"/>
    <g id="Group_21414" data-name="Group 21414" transform="translate(665.601 380.141)">
      <path id="Path_41359" data-name="Path 41359" d="M317.982,180.211a9.754,9.754,0,1,1,0-13.794A9.752,9.752,0,0,1,317.982,180.211Z" transform="translate(-294.124 -163.56)" fill="#e9666b"/>
      <path id="Path_41360" data-name="Path 41360" d="M313.981,169.394l-16.96,16.96,5.3,5.3" transform="translate(-297.021 -159.639)" fill="none" stroke="#e9666b" stroke-width="3"/>
      <line id="Line_69" data-name="Line 69" x1="3.896" y1="3.896" transform="translate(4.77 21.945)" fill="none" stroke="#e9666b" stroke-width="3"/>
      <path id="Path_41361" data-name="Path 41361" d="M312.915,175.146a5.186,5.186,0,1,1,0-7.334A5.187,5.187,0,0,1,312.915,175.146Z" transform="translate(-292.287 -161.724)" fill="#fff"/>
    </g>
    <text id="Email" transform="translate(519 569)" fill="#fff" font-size="7" font-family="Poppins-Light, Poppins" font-weight="300" opacity="0.4"><tspan x="-9" y="0">Email</tspan></text>
    <text id="Password" transform="translate(527 615)" fill="#fff" font-size="7" font-family="Poppins-Light, Poppins" font-weight="300" opacity="0.4"><tspan x="-16" y="0">Password</tspan></text>
    <text id="Register" transform="translate(582 669)" fill="#fff" font-size="9" font-family="Poppins-Regular, Poppins"><tspan x="0" y="0">Register</tspan></text>
    <text id="Name" transform="translate(524 525)" fill="#fff" font-size="7" font-family="Poppins-Light, Poppins" font-weight="300" opacity="0.4"><tspan x="-10" y="0">Name</tspan></text>
  </g>
</svg>
