<?xml version="1.0" encoding="iso-8859-1"?>
<!-- Generator: Adobe Illustrator 19.0.0, SVG Export Plug-In . SVG Version: 6.00 Build 0)  -->
<svg fill="#0D4842" version="1.1" id="Layer_1" xmlns="http://www.w3.org/2000/svg" xmlns:xlink="http://www.w3.org/1999/xlink" x="0px" y="0px"
	 viewBox="0 0 512 512" style="enable-background:new 0 0 512 512;" xml:space="preserve">
<g>
	<g>
		<g>
			<path d="M424.749,4.565C422.744,1.707,419.48,0,416.003,0H309.336c-4.501,0-8.533,2.837-10.048,7.083l-43.691,122.496
				L212.739,7.125C211.245,2.837,207.192,0,202.669,0H96.003c-3.477,0-6.741,1.707-8.747,4.544c-1.984,2.837-2.475,6.464-1.28,9.771
				l70.677,194.304c1.067,2.944,3.392,5.291,6.336,6.357c1.195,0.448,2.453,0.661,3.691,0.661c1.813,0,3.648-0.469,5.269-1.387
				C197.592,199.701,226.648,192,256.003,192c1.067,0,2.112,0.085,3.157,0.149l2.944,0.171c0.235,0.021,0.427,0.021,0.619,0
				c1.664,0.192,3.349-0.427,4.949-1.323l4.523,1.536c0.747,0.256,1.493,0.427,2.261,0.491c23.104,2.496,45.163,9.621,65.579,21.205
				c1.621,0.917,3.456,1.387,5.269,1.387c1.237,0,2.496-0.213,3.691-0.661c2.944-1.088,5.269-3.413,6.336-6.357l70.677-194.304
				C427.224,11.051,426.733,7.403,424.749,4.565z"/>
			<path d="M256.003,213.333c-82.347,0-149.333,66.987-149.333,149.333S173.656,512,256.003,512s149.333-66.987,149.333-149.333
				S338.349,213.333,256.003,213.333z M347.8,339.157l-45.803,34.859l18.56,60.16c1.365,4.459-0.32,9.301-4.16,11.947
				c-3.84,2.645-8.96,2.475-12.629-0.427l-47.68-37.632l-46.699,37.568c-1.941,1.557-4.309,2.347-6.677,2.347
				c-2.069,0-4.117-0.597-5.931-1.792c-3.883-2.603-5.632-7.403-4.309-11.861l17.685-60.245l-45.888-34.923
				c-3.648-2.773-5.12-7.552-3.648-11.904c1.451-4.352,5.525-7.253,10.112-7.253h56.32l18.901-56.704
				c2.901-8.704,17.344-8.704,20.224,0L285.016,320h56.32c4.565,0,8.64,2.923,10.112,7.253
				C352.899,331.584,351.448,336.384,347.8,339.157z"/>
		</g>
	</g>
</g>
</svg>
