<svg xmlns="http://www.w3.org/2000/svg" width="15.91" height="15.919" viewBox="0 0 15.91 15.919">
  <path id="Path_15446" data-name="Path 15446" d="M148.683,273.051a7.142,7.142,0,1,1-.207-11.279,6.935,6.935,0,0,1,2.805,4.811,7.064,7.064,0,0,1-1.531,5.395,1.172,1.172,0,0,1,.189.126q1.377,1.372,2.751,2.747a.808.808,0,0,1,.261.773.793.793,0,0,1-1.3.437c-.08-.068-.152-.146-.226-.221q-1.316-1.315-2.63-2.631A1.253,1.253,0,0,1,148.683,273.051Zm1.074-5.56a5.557,5.557,0,1,0-5.563,5.554A5.543,5.543,0,0,0,149.758,267.49Z" transform="translate(-137.061 -260.337)" fill="#fff"/>
</svg>
