<svg xmlns="http://www.w3.org/2000/svg" width="84" height="84" viewBox="0 0 84 84">
  <g id="Group_21574" data-name="Group 21574" transform="translate(-1442 -2176)">
    <g id="Ellipse_9264" data-name="Ellipse 9264" transform="translate(1442 2176)" fill="#fceeef" stroke="rgba(233,102,107,0.15)" stroke-width="1">
      <circle cx="42" cy="42" r="42" stroke="none"/>
      <circle cx="42" cy="42" r="41.5" fill="none"/>
    </g>
    <path id="Path_41588" data-name="Path 41588" d="M829.616,369.353H809.4a5.92,5.92,0,0,1-.9-.289,2.78,2.78,0,0,1-1.6-2.683q0-8.5,0-17c0-.827.2-1.034,1.02-1.034h1.785c0-.907,0-1.769,0-2.631a9.816,9.816,0,0,1,12.022-9.7,9.736,9.736,0,0,1,7.563,9.335c.012.875.008,1.75.011,2.625,0,.116,0,.232,0,.367.682,0,1.316,0,1.949,0,.579,0,.855.267.855.836q0,8.645,0,17.29a2.634,2.634,0,0,1-1.152,2.308A7.312,7.312,0,0,1,829.616,369.353Zm-4.521-21.011c0-1.012.013-1.994,0-2.976a5.148,5.148,0,0,0-1.149-3.212,5.591,5.591,0,0,0-9.829,1.955,16.268,16.268,0,0,0-.188,4.177c0,.016.025.032.046.056Zm-5.615,15.415c.415,0,.831,0,1.247,0,.653-.008.934-.339.86-.979q-.208-1.791-.395-3.583a.407.407,0,0,1,.115-.3,2.8,2.8,0,0,0-2.439-4.86,2.8,2.8,0,0,0-1.178,4.847.444.444,0,0,1,.129.326c-.123,1.206-.262,2.411-.4,3.616a.747.747,0,0,0,.811.933C818.649,363.766,819.065,363.757,819.48,363.757Z" transform="translate(664.504 1865.457)" fill="#e9666b"/>
  </g>
</svg>
