<svg xmlns="http://www.w3.org/2000/svg" width="84" height="84" viewBox="0 0 84 84">
  <g id="Group_21572" data-name="Group 21572" transform="translate(-745 -2176)">
    <g id="Ellipse_9266" data-name="Ellipse 9266" transform="translate(745 2176)" fill="#fde3e0" stroke="rgba(219,79,60,0.1)" stroke-width="1">
      <circle cx="42" cy="42" r="42" stroke="none"/>
      <circle cx="42" cy="42" r="41.5" fill="none"/>
    </g>
    <g id="Group_21567" data-name="Group 21567" transform="translate(281.002 1958.033)">
      <path id="Path_41584" data-name="Path 41584" d="M518.68,261.343c-.112.564-.189,1.138-.343,1.69a9.143,9.143,0,1,1,.254-3.716c.028.177.06.355.089.532Zm-10.259,4.165v.583c0,.2-.006.408,0,.612a1.017,1.017,0,0,0,2.033.016,7.762,7.762,0,0,0,0-.882c-.019-.24.077-.343.289-.446a3.051,3.051,0,0,0,.394-5.293,3.116,3.116,0,0,0-1.727-.526.967.967,0,0,1-.914-.645.941.941,0,0,1,.188-1.042.926.926,0,0,1,1.077-.282,2.99,2.99,0,0,1,.748.448,1.045,1.045,0,0,0,1.491-.025,1,1,0,0,0-.144-1.5c-.417-.337-.9-.6-1.4-.93,0-.3.006-.683,0-1.067a1.018,1.018,0,1,0-2.035,0c-.006.384,0,.766,0,1.141a3.047,3.047,0,0,0-1.693,4.277,3,3,0,0,0,2.72,1.667.986.986,0,0,1,.927.629.945.945,0,0,1-.19,1.071.889.889,0,0,1-1.078.263,3.824,3.824,0,0,1-.955-.673,1.051,1.051,0,0,0-1.487-.131,1.02,1.02,0,0,0-.026,1.509A4.284,4.284,0,0,0,508.422,265.508Z" transform="translate(5.105 3.837)" fill="#e9666b"/>
      <path id="Path_41585" data-name="Path 41585" d="M503.081,242.967c.389.3.791.593,1.166.913q3.139,2.677,6.268,5.367a1.03,1.03,0,0,1-.693,1.872l-2.819,0a.839.839,0,0,0-.116.022v.551c0,.825-.006,1.652,0,2.478a.418.418,0,0,1-.241.424,11.194,11.194,0,0,0-.035,19.655.458.458,0,0,1,.276.471c-.015.667,0,1.336-.009,2a1,1,0,0,1-1.011,1.019c-2.344.007-4.687,0-7.031,0a.52.52,0,0,1-.1-.026v-26.6h-1.924c-.352,0-.7,0-1.054,0a1.031,1.031,0,0,1-1.039-.667,1.009,1.009,0,0,1,.356-1.179q2.6-2.237,5.207-4.466c.567-.485,1.132-.975,1.7-1.456.17-.142.363-.256.547-.384Z" transform="translate(2.564 0)" fill="#e9666b"/>
      <path id="Path_41586" data-name="Path 41586" d="M497.312,273.263h-4.059V254.042a1.054,1.054,0,0,1,1.2-1.212c.949,0,1.9,0,2.861,0Z" transform="translate(1.928 4.47)" fill="#e9666b"/>
      <path id="Path_41587" data-name="Path 41587" d="M493.051,270.733c-1.048,0-2.077.016-3.1-.007a1,1,0,0,1-.948-1.078c0-1.189,0-2.376,0-3.563q0-3.226,0-6.45a1.049,1.049,0,0,1,1.18-1.195c.949,0,1.9,0,2.872,0Z" transform="translate(0 7.013)" fill="#e9666b"/>
    </g>
  </g>
</svg>
