<svg xmlns="http://www.w3.org/2000/svg" width="41" height="41" viewBox="0 0 41 41">
  <g id="Group_21576" data-name="Group 21576" transform="translate(-1443 -7010)">
    <circle id="Ellipse_9239" data-name="Ellipse 9239" cx="20.5" cy="20.5" r="20.5" transform="translate(1443 7010)" fill="#e9666b"/>
    <path id="Path_41454" data-name="Path 41454" d="M382.87,158.326v-1.165c.022-.173.046-.347.067-.52a8.95,8.95,0,0,1,2.685-5.5,9.079,9.079,0,0,1,8.567-2.5,9.306,9.306,0,0,1,7.329,8.926,9.337,9.337,0,0,1-7.7,9.353c-.344.064-.694.1-1.042.145h-1.166a.814.814,0,0,0-.122-.029,9,9,0,0,1-4.452-1.532,9.188,9.188,0,0,1-4.023-6.138C382.951,159.024,382.917,158.673,382.87,158.326Zm12.192-2.708c-.087.088-.154.163-.228.23q-2.026,1.831-4.055,3.66a.417.417,0,0,0-.155.326c-.007.267-.035.533-.054.8-.031.453-.061.906-.092,1.363a.523.523,0,0,0,.432-.183l1.156-1.113c.047.031.087.057.126.085l2.1,1.544c.5.365.839.235.967-.367q.524-2.463,1.048-4.926c.156-.735.315-1.469.465-2.206a.66.66,0,0,0-.134-.7c-.216-.186-.444-.083-.668,0l-6.665,2.571c-.763.295-1.527.587-2.287.891-.167.067-.359.163-.341.378s.218.258.386.311c.7.221,1.4.434,2.1.659a.359.359,0,0,0,.337-.046q1.821-1.154,3.648-2.3c.5-.317,1.005-.634,1.51-.949A.339.339,0,0,1,395.062,155.618Z" transform="translate(1071.13 6872.581)" fill="#fff"/>
  </g>
</svg>
