<svg width="54" height="54" viewBox="0 0 54 54" fill="none" xmlns="http://www.w3.org/2000/svg">
<rect width="54" height="54" rx="8" fill="#FE5B62"/>
<path d="M18.9445 21.232C19.0298 18.9493 19.7765 17.1893 21.1845 15.952C22.5925 14.7147 24.5018 14.096 26.9125 14.096C28.5125 14.096 29.8778 14.3733 31.0085 14.928C32.1605 15.4827 33.0245 16.24 33.6005 17.2C34.1978 18.16 34.4965 19.2373 34.4965 20.432C34.4965 21.84 34.1445 22.992 33.4405 23.888C32.7365 24.7627 31.9152 25.36 30.9765 25.68V25.808C32.1925 26.2133 33.1525 26.8853 33.8565 27.824C34.5605 28.7627 34.9125 29.968 34.9125 31.44C34.9125 32.7627 34.6032 33.936 33.9845 34.96C33.3872 35.9627 32.5018 36.752 31.3285 37.328C30.1765 37.904 28.8005 38.192 27.2005 38.192C24.6405 38.192 22.5925 37.5627 21.0565 36.304C19.5418 35.0453 18.7418 33.1467 18.6565 30.608H23.9685C23.9898 31.5467 24.2565 32.2933 24.7685 32.848C25.2805 33.3813 26.0272 33.648 27.0085 33.648C27.8405 33.648 28.4805 33.4133 28.9285 32.944C29.3978 32.4533 29.6325 31.8133 29.6325 31.024C29.6325 30 29.3018 29.264 28.6405 28.816C28.0005 28.3467 26.9658 28.112 25.5365 28.112H24.5125V23.664H25.5365C26.6245 23.664 27.4992 23.4827 28.1605 23.12C28.8432 22.736 29.1845 22.064 29.1845 21.104C29.1845 20.336 28.9712 19.7387 28.5445 19.312C28.1178 18.8853 27.5312 18.672 26.7845 18.672C25.9738 18.672 25.3658 18.9173 24.9605 19.408C24.5765 19.8987 24.3525 20.5067 24.2885 21.232H18.9445Z" fill="white"/>
</svg>
