<svg xmlns="http://www.w3.org/2000/svg" width="28.301" height="19.806" viewBox="0 0 28.301 19.806">
  <g id="Group_28" data-name="Group 28" transform="translate(7573.391 -1319.003)">
    <path id="Path_32" data-name="Path 32" d="M-7573.391,1434.909c.028-.054.061-.106.084-.162a1.428,1.428,0,0,1,1.289-.929c.074-.006.147,0,.221,0q12.554,0,25.107,0a1.489,1.489,0,0,1,1.337.625,1.347,1.347,0,0,1,.1,1.438,1.4,1.4,0,0,1-1.241.788c-.1.007-.2,0-.3,0q-12.36,0-24.72.01a1.711,1.711,0,0,1-1.87-1.1Z" transform="translate(0 -106.335)"/>
    <path id="Path_33" data-name="Path 33" d="M-7467.043,1321.832q-4.6,0-9.194,0a1.414,1.414,0,0,1-1.408-1.2,1.412,1.412,0,0,1,1.036-1.58,1.792,1.792,0,0,1,.463-.048q9.1,0,18.195,0a1.393,1.393,0,0,1,1.381.821,1.34,1.34,0,0,1-.195,1.5,1.388,1.388,0,0,1-1.14.512Q-7462.474,1321.828-7467.043,1321.832Z" transform="translate(-88.665 0)"/>
    <path id="Path_34" data-name="Path 34" d="M-7393.212,1551.777q-3.134,0-6.268,0a1.4,1.4,0,0,1-1.49-1.191,1.407,1.407,0,0,1,1.318-1.632c.524-.012,1.049,0,1.574,0q5.62,0,11.239,0a1.33,1.33,0,0,1,1.286.834,1.346,1.346,0,0,1-.214,1.5,1.451,1.451,0,0,1-1.2.5c-1.74-.008-3.479,0-5.219,0Z" transform="translate(-159.674 -212.971)"/>
  </g>
</svg>
