<svg xmlns="http://www.w3.org/2000/svg" width="60" height="60" viewBox="0 0 60 60">
  <g id="Group_21612" data-name="Group 21612" transform="translate(-1399 -200)">
    <rect id="Rectangle_27" data-name="Rectangle 27" width="60" height="60" rx="10" transform="translate(1399 200)" fill="#db4f3c"/>
    <g id="Group_24" data-name="Group 24" transform="translate(8095.41 -1163.721)">
      <path id="Path_21" data-name="Path 21" d="M-6666.82,1376.721a16.594,16.594,0,0,1,16.587,16.593,16.6,16.6,0,0,1-16.589,16.592,16.6,16.6,0,0,1-16.589-16.631A16.6,16.6,0,0,1-6666.82,1376.721Zm-.013,2.368a14.264,14.264,0,0,0-14.209,14.234,14.266,14.266,0,0,0,14.23,14.214A14.264,14.264,0,0,0-6652.6,1393.3,14.263,14.263,0,0,0-6666.833,1379.089Z" fill="#fff"/>
      <path id="Path_22" data-name="Path 22" d="M-6660.814,1402.211h.479q5.736,0,11.472,0a1.192,1.192,0,0,1,1.223,1.007,1.19,1.19,0,0,1-.841,1.312,1.45,1.45,0,0,1-.4.045q-7.05,0-14.1,0a1.159,1.159,0,0,1-1.1-.621,1.142,1.142,0,0,1,.072-1.257c.77-1.16,1.538-2.322,2.316-3.477a1.186,1.186,0,0,1,1.679-.378,1.191,1.191,0,0,1,.3,1.695C-6660.055,1401.079-6660.414,1401.608-6660.814,1402.211Z" transform="translate(-10.893 -12.452)" fill="#fff"/>
      <path id="Path_23" data-name="Path 23" d="M-6651.036,1420.24h-.484q-5.737,0-11.474,0a1.2,1.2,0,0,1-1.214-.977,1.192,1.192,0,0,1,.843-1.346,1.459,1.459,0,0,1,.4-.042q7.031,0,14.063,0a1.179,1.179,0,0,1,1.129.626,1.172,1.172,0,0,1-.1,1.29c-.76,1.138-1.515,2.279-2.278,3.414a1.19,1.19,0,0,1-1.7.4,1.2,1.2,0,0,1-.272-1.727C-6651.777,1421.347-6651.428,1420.828-6651.036,1420.24Z" transform="translate(-10.898 -23.372)" fill="#fff"/>
    </g>
  </g>
</svg>
