<svg xmlns="http://www.w3.org/2000/svg" width="41" height="41" viewBox="0 0 41 41">
  <g id="Group_21579" data-name="Group 21579" transform="translate(-1599 -7010)">
    <circle id="Ellipse_9202" data-name="Ellipse 9202" cx="20.5" cy="20.5" r="20.5" transform="translate(1599 7010)" fill="#e9666b"/>
    <path id="twitter" d="M17.135,6.12A7.815,7.815,0,0,0,19.1,4.087h0a8.176,8.176,0,0,1-2.256.618,3.894,3.894,0,0,0,1.723-2.164,7.834,7.834,0,0,1-2.483.948A3.915,3.915,0,0,0,9.309,6.166a4.031,4.031,0,0,0,.091.893,11.084,11.084,0,0,1-8.07-4.1A3.915,3.915,0,0,0,2.533,8.2,3.87,3.87,0,0,1,.764,7.713v.043A3.933,3.933,0,0,0,3.9,11.6a3.893,3.893,0,0,1-1.026.129,3.456,3.456,0,0,1-.741-.067,3.954,3.954,0,0,0,3.658,2.728A7.87,7.87,0,0,1,.937,16.063,7.4,7.4,0,0,1,0,16.009a11.025,11.025,0,0,0,6.006,1.757A11.067,11.067,0,0,0,17.135,6.12Z" transform="translate(1610 7020.75)" fill="#fff"/>
  </g>
</svg>
