<svg width="54" height="54" viewBox="0 0 54 54" fill="none" xmlns="http://www.w3.org/2000/svg">
<rect width="54" height="54" rx="8" fill="#3E778E"/>
<path d="M19.6074 33.616C20.3327 33.04 20.6634 32.7733 20.5994 32.816C22.69 31.088 24.3327 29.6693 25.5274 28.56C26.7434 27.4507 27.7674 26.288 28.5994 25.072C29.4314 23.856 29.8474 22.672 29.8474 21.52C29.8474 20.6453 29.6447 19.9627 29.2394 19.472C28.834 18.9813 28.226 18.736 27.4154 18.736C26.6047 18.736 25.9647 19.0453 25.4954 19.664C25.0474 20.2613 24.8234 21.1147 24.8234 22.224H19.5434C19.586 20.4107 19.97 18.896 20.6954 17.68C21.442 16.464 22.4127 15.568 23.6074 14.992C24.8234 14.416 26.1674 14.128 27.6394 14.128C30.178 14.128 32.0874 14.7787 33.3674 16.08C34.6687 17.3813 35.3194 19.0773 35.3194 21.168C35.3194 23.4507 34.5407 25.5733 32.9834 27.536C31.426 29.4773 29.442 31.376 27.0314 33.232H35.6714V37.68H19.6074V33.616Z" fill="white"/>
</svg>
