<svg xmlns="http://www.w3.org/2000/svg" width="60" height="60" viewBox="0 0 60 60">
  <g id="Group_48700" data-name="Group 48700" transform="translate(-1399 -200)">
    <rect id="Rectangle_27" data-name="Rectangle 27" width="60" height="60" rx="10" transform="translate(1399 200)" fill="#db4f3c"/>
    <path id="Icon_awesome-users" data-name="Icon awesome-users" d="M4.6,11.449A3.066,3.066,0,1,0,1.533,8.383,3.069,3.069,0,0,0,4.6,11.449Zm21.465,0A3.066,3.066,0,1,0,23,8.383,3.069,3.069,0,0,0,26.065,11.449ZM27.6,12.983H24.532a3.057,3.057,0,0,0-2.161.891,7.009,7.009,0,0,1,3.6,5.242h3.162a1.532,1.532,0,0,0,1.533-1.533V16.049A3.069,3.069,0,0,0,27.6,12.983Zm-12.266,0A5.366,5.366,0,1,0,9.966,7.616,5.364,5.364,0,0,0,15.332,12.983Zm3.68,1.533h-.4a7.409,7.409,0,0,1-6.564,0h-.4a5.521,5.521,0,0,0-5.52,5.52v1.38a2.3,2.3,0,0,0,2.3,2.3h13.8a2.3,2.3,0,0,0,2.3-2.3v-1.38A5.521,5.521,0,0,0,19.012,14.516ZM8.294,13.874a3.057,3.057,0,0,0-2.161-.891H3.066A3.069,3.069,0,0,0,0,16.049v1.533a1.532,1.532,0,0,0,1.533,1.533H4.691A7.026,7.026,0,0,1,8.294,13.874Z" transform="translate(1413.667 217.017)" fill="#fff"/>
  </g>
</svg>
