<svg xmlns="http://www.w3.org/2000/svg" width="44" height="44" viewBox="0 0 44 44">
  <g id="Group_48701" data-name="Group 48701" transform="translate(-1777 -20)">
    <circle id="Ellipse_155" data-name="Ellipse 155" cx="22" cy="22" r="22" transform="translate(1777 20)" fill="#e9666b"/>
    <path id="Icon_open-person" data-name="Icon open-person" d="M10.595,0A5.526,5.526,0,0,0,5.3,5.713a5.526,5.526,0,0,0,5.3,5.713,5.526,5.526,0,0,0,5.3-5.713A5.526,5.526,0,0,0,10.595,0ZM5.059,11.427C2.251,11.541,0,13.529,0,16v2.285H21.189V16c0-2.468-2.225-4.456-5.059-4.571a7.847,7.847,0,0,1-11.071,0Z" transform="translate(1788 33)" fill="#fff"/>
  </g>
</svg>
