<svg xmlns="http://www.w3.org/2000/svg" width="60" height="60" viewBox="0 0 60 60">
  <g id="Group_48699" data-name="Group 48699" transform="translate(-927 -200)">
    <rect id="Rectangle_24" data-name="Rectangle 24" width="60" height="60" rx="10" transform="translate(927 200)" fill="#604aba"/>
    <g id="Group_48827" data-name="Group 48827" transform="translate(938.012 210.003)">
      <g id="Group_48827-2" data-name="Group 48827" transform="translate(3 2.009)">
        <path id="Path_109883" data-name="Path 109883" d="M23.6,34.757c0-.938,0-3.795,2.71-3.795H31.73V27.71A2.713,2.713,0,0,0,29.02,25H5.71A2.713,2.713,0,0,0,3,27.71V41.8a2.713,2.713,0,0,0,2.71,2.71H29.02a2.713,2.713,0,0,0,2.71-2.71V38.552H26.309C23.6,38.552,23.6,35.7,23.6,34.757Z" transform="translate(-3 -12.537)" fill="#fff"/>
        <path id="Path_109884" data-name="Path 109884" d="M33.038,18.879V15.593a1.57,1.57,0,0,0-.782-1.358,1.641,1.641,0,0,0-1.638-.029l-9.373,4.674Z" transform="translate(-11.355 -7.5)" fill="#fff"/>
        <ellipse id="Ellipse_12636" data-name="Ellipse 12636" cx="0.914" cy="1.371" rx="0.914" ry="1.371" transform="translate(23.789 20.989)" fill="#fff"/>
        <path id="Path_109885" data-name="Path 109885" d="M23.77,11.014V8.706a1.686,1.686,0,0,0-.982-1.563A1.538,1.538,0,0,0,21.1,7.4l-9.441,8.272h2.768Z" transform="translate(-6.965 -4.293)" fill="#fff"/>
        <path id="Path_109886" data-name="Path 109886" d="M51.131,38h-6.5C43.65,38,43,38.461,43,40.71s.65,2.71,1.626,2.71h6.5a1.628,1.628,0,0,0,1.626-1.626V39.626A1.628,1.628,0,0,0,51.131,38Zm-4.879,4.879a2.168,2.168,0,1,1,2.168-2.168A2.17,2.17,0,0,1,46.252,42.879Z" transform="translate(-21.317 -18.49)" fill="#fff"/>
        <path id="Path_109887" data-name="Path 109887" d="M55.927,5.689,53.434,2.335a.808.808,0,0,0-1.3,0L49.658,5.673a.391.391,0,0,0,.276.668h1.224a3.91,3.91,0,0,1-1.82,4.133l-.338.2L51.168,12.3l.1-.063a7.091,7.091,0,0,0,3.157-5.9h1.236a.382.382,0,0,0,.27-.652Z" transform="translate(-24.064 -2.009)" fill="#fff"/>
      </g>
    </g>
  </g>
</svg>
