<svg xmlns="http://www.w3.org/2000/svg" width="41" height="41" viewBox="0 0 41 41">
  <g id="Group_48981" data-name="Group 48981" transform="translate(-1312 -6192)">
    <circle id="Ellipse_9239" data-name="Ellipse 9239" cx="20.5" cy="20.5" r="20.5" transform="translate(1312 6192)" fill="#e9666b"/>
    <g id="Group_48982" data-name="Group 48982" transform="translate(7363.248 6319.943)">
      <path id="Path_109925" data-name="Path 109925" d="M-6020.29-110.491v6.453c-.008.034-.016.069-.021.1-.08.579-.147,1.16-.242,1.737a2.756,2.756,0,0,1-.832,1.582,3.035,3.035,0,0,1-1.78.78c-.967.128-1.939.19-2.913.227-1.209.046-2.42.066-3.63.1-.078,0-.155.011-.233.017h-2.488c-.045-.005-.091-.014-.137-.015-.275,0-.551,0-.826-.011-1.442-.055-2.885-.1-4.326-.179a13.969,13.969,0,0,1-1.933-.234,2.644,2.644,0,0,1-2.121-1.926,8.7,8.7,0,0,1-.32-1.994c-.068-.965-.123-1.932-.147-2.9a30.586,30.586,0,0,1,.149-3.842,14.02,14.02,0,0,1,.281-1.839,2.659,2.659,0,0,1,1.943-2.046,6.545,6.545,0,0,1,1.3-.207c.915-.075,1.831-.141,2.749-.17,1.489-.048,2.979-.085,4.469-.089,2.308-.006,4.616.037,6.919.215a13.651,13.651,0,0,1,1.666.214,2.665,2.665,0,0,1,2.113,1.9,8.264,8.264,0,0,1,.295,1.608C-6020.334-110.836-6020.312-110.663-6020.29-110.491Zm-13.113-.041v6.621l5.751-3.311Z" transform="translate(0)" fill="#fff"/>
    </g>
  </g>
</svg>
